<svg xmlns="http://www.w3.org/2000/svg" viewBox="0 0 95 60.68"><defs><style>.cls-1{fill:#f2f2f2;}</style></defs><title>NID_Logo_Mobile_W</title><g id="Layer_2" data-name="Layer 2"><g id="Layer_1-2" data-name="Layer 1"><g id="Layer_2-2" data-name="Layer 2"><g id="Layer_1-2-2" data-name="Layer 1-2"><path class="cls-1" d="M19.11,23.09a12.31,12.31,0,0,1-3.91,2.07A20,20,0,0,0,19.39,21c.72-1,3.4-2.94,5.49-4.6.47-.37.93-.72,1.4-1.07a12.52,12.52,0,0,0,2.77-3.5,9.24,9.24,0,0,1,1.23-1.59.7.7,0,0,1,.7-.18c.33.11,1,1,1.3,1.37a7.19,7.19,0,0,0,2.51,1.89,17.91,17.91,0,0,1,4.53,1.81l-2.42,2.38c-.8-1.7-2.43-.56-3.45-2.55a6.14,6.14,0,0,1-.81,2,4.4,4.4,0,0,0-.34-1.22,5.94,5.94,0,0,1-1.13,2.33c-.15-1,.11-2.42-.45-2.94-.42,1.76-2.57,2.52-2.64,4-.56-.49-.36-1.52.27-2.84-.94,1.07-2.42,1.94-2.81,3.25a1.55,1.55,0,0,1-.24-.74,4.88,4.88,0,0,0-.93,1.89,3.52,3.52,0,0,1-.27-1.49,6,6,0,0,0-1.3,2.32,2.4,2.4,0,0,1-.24-.84,5.6,5.6,0,0,0-1.1,1.62A4.79,4.79,0,0,0,19.12,24,2,2,0,0,1,19.11,23.09Z"/><path class="cls-1" d="M34.23,20.56c-1.66.79-3.27,2.42-5,2.84,1.63-.92,2.45-2.52,3.67-3.79l-1.47.51c1.91-1.48,4-2.12,5.67-3.56a10.52,10.52,0,0,0,2.41-3,20,20,0,0,1,2-3.67,18.21,18.21,0,0,0,1.92-1.8c.63-.79,4.54-5.86,6-7.52.25-.28.54-.72,1-.46a4.22,4.22,0,0,1,.8,1c.67,1,1.23,1.6,1.94,2.47a7.58,7.58,0,0,1,.73,1.07,3.16,3.16,0,0,0,1.21,1.43,11.89,11.89,0,0,1,2.17,2.43c.54.79,1,1.63,1.51,2.43A25.78,25.78,0,0,0,62.17,15a8,8,0,0,0,1.9,1.63c1,.51,1,.24,1.87,1.2C67.18,19.21,68,21,70,22.87,67.9,22,66.41,20,63.69,20.2a3.94,3.94,0,0,1,1.82-.61A4.75,4.75,0,0,0,63,18.68a7.72,7.72,0,0,0-4.5-2.75,3.7,3.7,0,0,1,1.3-.54c-.89-.63-2.18-.88-2.71-1.89a1.94,1.94,0,0,0,1.13,0,20.57,20.57,0,0,0-2.86-4.41c-.28.28,0,1.3-.28,1.58-1.09-2.13-2.1-.6-1,1.21a.65.65,0,0,0-.51,0c-.55.33-.13,2,.51,2.28a4.28,4.28,0,0,0,.69,2.51,1.38,1.38,0,0,1-.55-.24A15.74,15.74,0,0,0,54.5,18c-1-1.79-1.43-4.26-3-5.7a1.68,1.68,0,0,1,.38,0,1.91,1.91,0,0,0-.67-.66,1.76,1.76,0,0,1,1,.25C52.28,11,51,7.78,50.72,11c-.21-.4-.57,0-.58.57-.18-.82-.55-.88-.94-.63a4.75,4.75,0,0,0-1.56,4.59,4.39,4.39,0,0,0-2,3.18,8.5,8.5,0,0,0-1.92,1.62c1-1.7,1.29-3.11,2.16-4.53a4.86,4.86,0,0,1-.86.3c1-1.23,1.37-2.19,1.1-2.81.29-.74,0-.67-.36-.41.54-1.28-.18-1.34-.51-.74.11-.37-.23-.54-.54-.4s-.53.69-.77,1c-.62.75-1.49,1.29-1.73,2.46a3.12,3.12,0,0,1,0-1.52c-.73,1.56-2.72,2.86-2.64,4.53a9.42,9.42,0,0,0-5.69,3.08A1.86,1.86,0,0,1,34.23,20.56Z"/><path class="cls-1" d="M62.28,15.82l-1.89-2a14.23,14.23,0,0,1,2.19-2.31c.83-.68.57-.58,1.12-1.38a4.07,4.07,0,0,1,2.1-1.56c.66-.08.74.4,1,.85A6.08,6.08,0,0,0,68.16,11,23.05,23.05,0,0,1,71,13.86a14.65,14.65,0,0,0,2.49,2.69c1.13.95,2.86,1.72,3.65,2.81,2.21,3.11,1.46,3,5.78,5.78-.93-.33-1.83-.62-2.3-.38-1.16-1.22-2-1.58-2.68-1.35a3.56,3.56,0,0,0-2.29-2.26,2.75,2.75,0,0,1,0,1.14,8,8,0,0,0-4.88-4.23,8.23,8.23,0,0,1,2.16.2c-.38-.73-1.49-1-2.23-1.49a3.71,3.71,0,0,0,.69,0,9.61,9.61,0,0,0-2.29-2.26,4.59,4.59,0,0,0,0,1.31,6.28,6.28,0,0,1-1.63-1.61,7.52,7.52,0,0,1,0,3.19,17.41,17.41,0,0,0-1.6-3.88,3.58,3.58,0,0,1-.27,1.07,3.34,3.34,0,0,0-.76-.47,8.88,8.88,0,0,1,0,1.66,11.72,11.72,0,0,0-1-1.85A7.61,7.61,0,0,0,62.28,15.82Z"/><path class="cls-1" d="M7,54.67H7.8v4.4H7Z"/><path class="cls-1" d="M12.11,54.67h.82v4.4h-.8L9.86,56v3H9v-4.4h.8l2.27,3Z"/><path class="cls-1" d="M13.67,54.67h3.59v.75H15.89v3.65H15V55.42H13.67Z"/><path class="cls-1" d="M18,54.67h3.22v.74H18.86V56.5H21v.74H18.86v1.11h2.46v.74H18Z"/><path class="cls-1" d="M25.09,59.07l-.75-1.3H23.18v1.3h-.84v-4.4h1.84a2,2,0,0,1,1.32.4A1.39,1.39,0,0,1,26,56.18a1.65,1.65,0,0,1-.22.88,1.37,1.37,0,0,1-.65.55l1,1.46Zm-1.91-2h1a1.12,1.12,0,0,0,.73-.21.75.75,0,0,0,.25-.62.73.73,0,0,0-.25-.6,1.15,1.15,0,0,0-.73-.2h-1Z"/><path class="cls-1" d="M27,54.67h.84v4.4H27Z"/><path class="cls-1" d="M32.31,54.91A2.25,2.25,0,0,1,33.17,58l0,0a2.25,2.25,0,0,1-.85.82,2.51,2.51,0,0,1-2.38,0A2.24,2.24,0,0,1,29.84,55l.08,0A2.55,2.55,0,0,1,32.31,54.91Zm-1.93.66a1.51,1.51,0,0,0,0,2.61,1.44,1.44,0,0,0,.75.2,1.42,1.42,0,0,0,.74-.2,1.48,1.48,0,0,0,.54-.55,1.55,1.55,0,0,0,0-1.52,1.46,1.46,0,0,0-.54-.54,1.43,1.43,0,0,0-.74-.2,1.48,1.48,0,0,0-.76.2Z"/><path class="cls-1" d="M37.12,59.07l-.76-1.3H35.2v1.3h-.85v-4.4H36.2a2,2,0,0,1,1.32.4A1.39,1.39,0,0,1,38,56.18a1.65,1.65,0,0,1-.22.88,1.37,1.37,0,0,1-.65.55l1,1.46ZM35.2,57h1a1.12,1.12,0,0,0,.73-.21.75.75,0,0,0,.25-.62.73.73,0,0,0-.25-.6,1.15,1.15,0,0,0-.73-.2h-1Z"/><path class="cls-1" d="M41.14,55.48a2.1,2.1,0,0,0-.63-.11.88.88,0,0,0-.48.11.36.36,0,0,0-.18.31.41.41,0,0,0,.12.31,1,1,0,0,0,.31.2,4.83,4.83,0,0,0,.51.18,5.6,5.6,0,0,1,.73.26,1.31,1.31,0,0,1,.49.39,1.07,1.07,0,0,1,.2.68,1.16,1.16,0,0,1-.22.7,1.36,1.36,0,0,1-.6.46,2.26,2.26,0,0,1-.87.16,2.74,2.74,0,0,1-1-.19,2.86,2.86,0,0,1-.86-.51l.36-.72a2.58,2.58,0,0,0,.75.48,2,2,0,0,0,.77.18,1,1,0,0,0,.55-.14.44.44,0,0,0,.13-.61l-.05-.06a.91.91,0,0,0-.31-.2l-.52-.17a6,6,0,0,1-.73-.26,1.27,1.27,0,0,1-.48-.38,1.05,1.05,0,0,1-.2-.67,1.12,1.12,0,0,1,.2-.67,1.31,1.31,0,0,1,.59-.46,2.21,2.21,0,0,1,.86-.16,2.91,2.91,0,0,1,.85.13,2.86,2.86,0,0,1,.75.34l-.34.74A3.2,3.2,0,0,0,41.14,55.48Z"/><path class="cls-1" d="M66.25,55a2.05,2.05,0,0,1,.82.78,2.2,2.2,0,0,1,.3,1.14,2.17,2.17,0,0,1-.3,1.13,2.1,2.1,0,0,1-.83.78,2.51,2.51,0,0,1-1.2.28h-1.8v-4.4h1.83A2.46,2.46,0,0,1,66.25,55Zm-.44,3.19a1.32,1.32,0,0,0,.51-.52,1.63,1.63,0,0,0,0-1.51,1.34,1.34,0,0,0-.52-.52,1.48,1.48,0,0,0-.74-.18h-1v2.92h1A1.43,1.43,0,0,0,65.82,58.15Z"/><path class="cls-1" d="M68.26,54.67h3.22v.74H69.1V56.5h2.14v.74H69.1v1.11h2.46v.74h-3.3Z"/><path class="cls-1" d="M74.65,55.48a2.1,2.1,0,0,0-.63-.11.88.88,0,0,0-.48.11.36.36,0,0,0-.18.31.41.41,0,0,0,.12.31,1,1,0,0,0,.31.2,4.83,4.83,0,0,0,.51.18,5.6,5.6,0,0,1,.73.26,1.31,1.31,0,0,1,.49.39,1.07,1.07,0,0,1,.2.68,1.16,1.16,0,0,1-.21.7,1.36,1.36,0,0,1-.6.46,2.26,2.26,0,0,1-.87.16,2.74,2.74,0,0,1-1-.19,2.86,2.86,0,0,1-.86-.51l.36-.72a2.58,2.58,0,0,0,.75.48,2,2,0,0,0,.77.18,1,1,0,0,0,.55-.14.44.44,0,0,0,.13-.61l-.05-.06a.91.91,0,0,0-.31-.2l-.52-.17a6,6,0,0,1-.73-.26,1.27,1.27,0,0,1-.49-.39,1.05,1.05,0,0,1-.2-.67,1.12,1.12,0,0,1,.2-.67,1.31,1.31,0,0,1,.58-.44,2.21,2.21,0,0,1,.86-.16,2.91,2.91,0,0,1,.85.13,2.86,2.86,0,0,1,.75.34l-.34.74A3.2,3.2,0,0,0,74.65,55.48Z"/><path class="cls-1" d="M76.68,54.67h.84v4.4h-.84Z"/><path class="cls-1" d="M81.75,56.89h.74v1.67a3,3,0,0,1-.82.42,2.86,2.86,0,0,1-.93.16,2.35,2.35,0,0,1-1.18-.3,2.26,2.26,0,0,1-.84-.82,2.2,2.2,0,0,1-.31-1.15,2.14,2.14,0,0,1,.31-1.14,2.27,2.27,0,0,1,.86-.81,2.46,2.46,0,0,1,1.2-.3,2.67,2.67,0,0,1,.93.17,2.47,2.47,0,0,1,.79.47l-.48.62a1.81,1.81,0,0,0-.58-.37,1.77,1.77,0,0,0-.66-.13,1.52,1.52,0,0,0-.76.2,1.5,1.5,0,0,0,.77,2.8,1.69,1.69,0,0,0,.47-.07,2.09,2.09,0,0,0,.48-.2Z"/><path class="cls-1" d="M86.69,54.67h.81v4.4h-.8l-2.26-3v3h-.82v-4.4h.8l2.27,3Z"/><path class="cls-1" d="M51.6,55.74a1.9,1.9,0,0,0,.79-.6,1.44,1.44,0,0,0,.25-.86,1.21,1.21,0,0,0-.28-.84,1,1,0,0,0-.76-.31.92.92,0,0,0-.7.29,1,1,0,0,0-.28.74,1.39,1.39,0,0,0,.22.74A4,4,0,0,0,51.6,55.74Z"/><path class="cls-1" d="M50.41,56.94a1.41,1.41,0,0,0-.2.74,1.69,1.69,0,0,0,.44,1.2,1.45,1.45,0,0,0,1.11.47,1.9,1.9,0,0,0,.77-.16,2.47,2.47,0,0,0,.7-.48L51,56.32A2.08,2.08,0,0,0,50.41,56.94Z"/><path class="cls-1" d="M58.62,55.51l-1.72-1.43V50.87a.24.24,0,0,0-.23-.25H55.13a.24.24,0,0,0-.25.23s0,0,0,0V52.4L53,50.79a1,1,0,0,0-1.2,0L46.11,55.5a.23.23,0,0,0-.09.17.26.26,0,0,0,.06.18l.49.58a.27.27,0,0,0,.16.09.29.29,0,0,0,.19-.06l.91-.76v4.47a.51.51,0,0,0,.5.5h8.05a.51.51,0,0,0,.5-.5V55.71l.91.76a.24.24,0,0,0,.16.06h0a.27.27,0,0,0,.16-.09l.49-.58a.25.25,0,0,0,.06-.18A.23.23,0,0,0,58.62,55.51Zm-2.72,4.34H54V59.6l-.47-.54a4.27,4.27,0,0,1-1,.69,2.51,2.51,0,0,1-1,.23,2.27,2.27,0,0,1-1.61-.59,2,2,0,0,1-.64-1.49,1.81,1.81,0,0,1,.35-1.1,2.55,2.55,0,0,1,1-.78,3.64,3.64,0,0,1-.66-.83,1.65,1.65,0,0,1,.35-2,2,2,0,0,1,1.37-.51,1.9,1.9,0,0,1,1.31.45,1.45,1.45,0,0,1,.5,1.13,1.58,1.58,0,0,1-.36,1,3.38,3.38,0,0,1-1.18.82l1.81,2a4.66,4.66,0,0,0,.4-.66,2.39,2.39,0,0,0,.2-.58l-.19-.2-.58-.08V56.1h2.15v.42l-.76.1a6.06,6.06,0,0,1-.37,1,5.26,5.26,0,0,1-.51.83l.82,1,1,.05Z"/><path class="cls-1" d="M4.29,31.74c0-.05,0-.08-.07-.08a.16.16,0,0,1-.12-.05.2.2,0,0,0,0,.08.2.2,0,0,1,0,.08L4,31.71s0,0-.08,0l-.05.11-.05.11s0,0,0,0,0-.05,0-.05a.18.18,0,0,1,.13.21q-.11,0-.13,0L3.79,32a.16.16,0,0,0,.07.21h.06l.31.09q0,.21-.16.24t-.15.21a.49.49,0,0,1-.13.09.5.5,0,0,0-.13.09.28.28,0,0,1,.18.2,3,3,0,0,1,.07.3c-.09,0-.14,0-.16,0l-.13.08a1.09,1.09,0,0,1,.09.18.23.23,0,0,1,0,.2l.12-.11s.1,0,.18,0,0-.06,0-.08,0,0,0-.08a.11.11,0,0,0,.11,0,.18.18,0,0,1,.13,0q.08-.13,0-.18t-.05-.21a.19.19,0,0,1,.27,0l0,0a1.13,1.13,0,0,0,.45-.18A1.2,1.2,0,0,1,5.32,33c.07,0,.11.08.11.12a.41.41,0,0,1-.05.18v.08a1.4,1.4,0,0,1,.08.29.21.21,0,0,1-.11.24s0,0,.05,0,.05,0,.05,0,0,.27,0,.38a1.19,1.19,0,0,0,0,.38.18.18,0,0,1-.05.13v.05a.16.16,0,0,1,0,.11V35a.08.08,0,0,0,0,.05q0,.45,0,.72v3.25q0,.63,0,1.15t0,.79a3.34,3.34,0,0,0,.16,1.19,1.27,1.27,0,0,0,.47.59l.09.07.09,0a1.07,1.07,0,0,0,.46.09H7.1a3,3,0,0,0,.51,0,2,2,0,0,1,.51,0,.8.8,0,0,1,.64.29,1.07,1.07,0,0,1,.07.85.72.72,0,0,1-.51.5,1.72,1.72,0,0,1-.77.08q-.92-.11-1.69-.22a8.67,8.67,0,0,0-1.59-.09,6.38,6.38,0,0,0-.79.05l-.79.08-.84.12a3.76,3.76,0,0,1-1.14,0,1.05,1.05,0,0,1-.46-.21A.78.78,0,0,1,0,43.86a.75.75,0,0,1,.2-.72,1,1,0,0,1,.54-.22,1.61,1.61,0,0,1,.41,0l.41.05a8.54,8.54,0,0,0,.89,0,1.07,1.07,0,0,0,.65-.33,2.17,2.17,0,0,0,.14-.29A3.22,3.22,0,0,0,3.37,42a2.21,2.21,0,0,0,.05-.37q0-.18,0-1t0-1.85V30.69q0-.26,0-.48c0-.15,0-.26,0-.33a2.26,2.26,0,0,0-.39-1,1,1,0,0,0-1-.37l-.54.08a2.78,2.78,0,0,1-.52.05,1.52,1.52,0,0,1-.46-.07.64.64,0,0,1-.34-.25c0-.05,0-.09,0-.11a.2.2,0,0,0,.07-.11s-.05,0-.05,0,0,0-.05,0a.57.57,0,0,0,0-.28.52.52,0,0,1,0-.31.08.08,0,0,1,0-.05l.05-.05a1.79,1.79,0,0,0,.18-.25A1.78,1.78,0,0,1,.52,27a.11.11,0,0,0,.08,0H.68a2.47,2.47,0,0,1,.72-.05l.7.07.7.09a2.38,2.38,0,0,0,.72,0h.13a.42.42,0,0,0,.28,0,.42.42,0,0,1,.28,0,.21.21,0,0,0,.13,0L4.55,27l.24,0h0l.07,0,.07,0a.13.13,0,0,1,.09,0h.22a.15.15,0,0,0,.11,0A3.35,3.35,0,0,1,6,26.85a1.38,1.38,0,0,1,.67.16,1,1,0,0,1,.31.39q.1.24.2.48l.18.48a1.2,1.2,0,0,0,.28.42s0,0,0,0,0,0,0,0a.07.07,0,0,0,0,.05l.05.13.05.11a.18.18,0,0,0,.05.13l.05.09.05.09.55,1.14.92,1.92,1.11,2.3q.59,1.21,1.1,2.3L12.56,39l.55,1.14c.07.16.16.36.28.58s.23.46.36.7.24.47.34.7l.26.58h0c0-.14,0-.31,0-.51a1.46,1.46,0,0,1,0-.41v-.05a0,0,0,0,1,0,0h0q0-.29,0-.6a1.86,1.86,0,0,0,0-.55v-.08l.08-.16v-.11a1.25,1.25,0,0,1,0-.45.7.7,0,0,0-.05-.39.07.07,0,0,1,0-.05v0a6.06,6.06,0,0,0,0-1.25,7.64,7.64,0,0,1,0-1.27c0-.07,0-.1.05-.08a.84.84,0,0,1-.05-.21v-2.9q0-.94,0-1.88t0-1.56a2.15,2.15,0,0,0-.23-1,1.09,1.09,0,0,0-.31-.41,1.1,1.1,0,0,0-.52-.22,2,2,0,0,0-.52,0l-.5.08a1.16,1.16,0,0,1-.26,0h-.31a.93.93,0,0,1-.54-.29.76.76,0,0,1-.2-.6.86.86,0,0,1,.33-.72,1.25,1.25,0,0,1,.8-.18,4.19,4.19,0,0,1,.87.08,8.14,8.14,0,0,0,1,.13h.31l.46,0h.91a4.37,4.37,0,0,0,.63,0l.66-.07.75-.13a2.58,2.58,0,0,1,.83,0A2.61,2.61,0,0,1,19,27q.25.11.36.63t-.22.72a1.64,1.64,0,0,1-.56.25,3,3,0,0,1-.46,0h-.52a1.24,1.24,0,0,0-.87.29,1.83,1.83,0,0,0-.29.74,8.79,8.79,0,0,0-.05,1v1.21l0,.05-.05.13a.58.58,0,0,0,0,.18.08.08,0,0,1-.05.08.08.08,0,0,0-.05.08c0,.05,0,.07,0,0s0,0,.07,0a3.42,3.42,0,0,1,.05.55,4.6,4.6,0,0,0,0,.58.09.09,0,0,1,0,.08.19.19,0,0,0-.07.08v.08q.08.76.12,1.59a10.15,10.15,0,0,1,0,1.56v.13a3.85,3.85,0,0,1,0,1.05,2.37,2.37,0,0,0,0,1v.11l.05,1a4.09,4.09,0,0,1-.05.93v1.34a3.63,3.63,0,0,1-.13,1,3.24,3.24,0,0,1-.28.71,1.32,1.32,0,0,1-.75.59,2,2,0,0,1-.74.11,1.62,1.62,0,0,1-.56-.14,2,2,0,0,1-.45-.28l-.36-.33a4.17,4.17,0,0,1-.41-.58,7.06,7.06,0,0,1-.38-.72l-.51-1.07-.88-1.81L9.84,37.89l-1-2.11L8,34.11l-.42-.85a.47.47,0,0,0-.07-.15.08.08,0,0,1,0-.11h0l0-.05-.05,0-.05,0a1.37,1.37,0,0,1,0-.31s0,0,0,0a.06.06,0,0,1-.07,0,0,0,0,0,1-.05,0h0a.54.54,0,0,0-.2-.36.38.38,0,0,1-.14-.36V31.7c-.05-.12-.14-.3-.26-.54s-.25-.48-.37-.75-.25-.51-.37-.75a5.48,5.48,0,0,1-.26-.56,1.38,1.38,0,0,1-.08-.18.36.36,0,0,0-.08-.12s0,0,0,0,0,0,0,0,0,.19,0,.36a1.65,1.65,0,0,1,0,.38.11.11,0,0,0,0,.08,1.73,1.73,0,0,0,0,.29.7.7,0,0,1-.05.26s0,0,0,.08q0,.31.09.7a2.26,2.26,0,0,1,0,.8s0,.05.05.11,0,0,0,0,0,0,0,0a.33.33,0,0,0,0,.31v.08a.41.41,0,0,0,0,.33.34.34,0,0,1,0,.3.17.17,0,0,1-.13-.11.33.33,0,0,0-.08-.13c.09-.12.11-.22.07-.3a.39.39,0,0,1,0-.33s-.05,0-.05,0a.11.11,0,0,1,0,.08l-.22,0a.23.23,0,0,0-.18.05l.08,0s0,0,0,.11,0,0,0,0,0,0-.05,0-.08,0,0-.13-.12,0-.16,0a.09.09,0,0,1-.1,0c-.05,0-.07,0-.05,0a.13.13,0,0,0,0-.07.31.31,0,0,1-.13-.05.21.21,0,0,0-.13,0,.41.41,0,0,0-.11-.12.1.1,0,0,1,0-.14h0a.13.13,0,0,1,.11-.07A.14.14,0,0,1,4.29,31.74ZM.43,28s0,0-.07,0L.27,28a.12.12,0,0,1,0,.13.06.06,0,0,0,0,.09l0,0c.07,0,.1,0,.08-.07a.14.14,0,0,1,0-.12.21.21,0,0,0,.13,0c.05-.09,0-.15,0-.18s0,0,0,0S.44,28,.43,28Zm1.34.05a.06.06,0,0,0,.07,0s0,0,.09,0a.28.28,0,0,0,0-.16H1.79A.55.55,0,0,1,1.77,28.06Zm.39,16.16s0,0,0,0a0,0,0,0,0,0-.05h0s0,.05,0,.05Zm1.42-2.89s.05,0,.05,0H3.58Zm.05.34s.05,0,.05,0,0,0,.05,0,0,0,0-.13-.06,0-.07,0l-.06.08ZM3.68,36q.16.05.16-.16a.11.11,0,0,0-.16.16Zm.08-1.37a.12.12,0,0,1,.11,0l.08.09A.2.2,0,0,1,4,34.64l.09-.08-.18-.05a.13.13,0,0,0-.16.08h0Zm.13,7.24s-.06,0-.07,0H3.76a0,0,0,0,0,0,.05h0a.11.11,0,0,0,.08,0Zm-.08,1.25v.05s.05,0,.05,0,0-.05,0-.05a0,0,0,0,1,0,0h0Zm.05-6.43.07-.08s0,0,.07,0,0,.11.05.12a.11.11,0,0,0,.11,0c-.05,0-.08,0-.08-.08a.24.24,0,0,0,0-.11l-.16.08a.08.08,0,0,0,0,.15Zm0,4.33A.07.07,0,0,1,4,41s0,0,0,0,0,0,0,0a.06.06,0,0,0,0-.07s0,.05,0,.05,0,0,0,.07Zm0,.94a.46.46,0,0,0,.12.16.59.59,0,0,1,.12.13.11.11,0,0,1,.12,0,.07.07,0,0,0,.09,0q0-.08,0-.08s0,0-.05-.08a.11.11,0,0,0-.08,0s0,0-.08,0A.18.18,0,0,0,4,42s0-.05,0-.11a.15.15,0,0,0,.11,0c-.05,0-.09,0-.12,0a.16.16,0,0,1-.12.06Zm0-6.3a.3.3,0,0,1,0,.21.15.15,0,0,0,.11,0,.47.47,0,0,1,0-.26.15.15,0,0,0-.11,0ZM4,37.1A.33.33,0,0,0,4.15,37l.11-.11H4.17a.06.06,0,0,1-.07,0v-.13s-.07,0-.09,0-.06,0-.09,0a.17.17,0,0,1,.08.14ZM4,34H4a0,0,0,0,1,0,0s0,0,0,0Zm0-2.86c.07,0,.11,0,.11-.08s-.11,0-.11.1Zm.05,9.35s.05,0,.05,0a0,0,0,0,0,0-.05h0s0,0,0,0S4.08,40.42,4.1,40.44Zm.16-4.28a.11.11,0,0,1-.11.05c-.05,0-.07,0-.05.11q.05-.13.14-.08a.25.25,0,0,0,.22,0,.21.21,0,0,1,0,.13.8.8,0,0,0,0,.13.43.43,0,0,1,.18.05.39.39,0,0,0,.16.05.11.11,0,0,1,0-.11.23.23,0,0,0,0-.11,1.89,1.89,0,0,1-.39-.26,1.74,1.74,0,0,0-.34-.24,2.7,2.7,0,0,1,.16.27Zm-.16.29a.06.06,0,0,1,.07,0,.12.12,0,0,0,.07.07,0,0,0,0,1,0,0h0a.14.14,0,0,1,0-.13c0-.05,0-.08-.07-.08s0,.08-.05.14Zm0,2.23a.12.12,0,0,0,.11,0l.05-.09q-.16,0-.16.14Zm0-4.65s0,0,.08,0-.08,0-.08,0Zm0,6.9c0,.07,0,.08,0,0s0-.05,0,0Zm.39-10.5s-.05,0-.05,0a.09.09,0,0,0,0-.07.09.09,0,0,0,0,.12h0a.09.09,0,0,1,0,.12h0a.54.54,0,0,1,.29,0l-.11-.14a.23.23,0,0,1,0-.2.2.2,0,0,1-.18-.08.48.48,0,0,0-.13-.13s0,.05,0,.05,0,0,0,.05l.2.11c.07.05.09.09,0,.15Zm.24,2.1a.27.27,0,0,1-.07.2l-.14.12q-.24,0-.24-.24a.18.18,0,0,1,.11-.23h.07a.24.24,0,0,1,.27.17Zm-.18,2.83q0,.18-.09.21a.24.24,0,0,0-.18.13h.08a.11.11,0,0,1,.11,0,.62.62,0,0,1,.21-.13.13.13,0,0,0,.09-.15v0s0,0,.05,0,0,0,0-.05a0,0,0,0,0,0,0h0l-.11.07s-.08,0-.16,0Zm-.24-1.68s0,.06,0,.08a.11.11,0,0,1,0,.08.21.21,0,0,1,.24,0l.18.14,0-.11a.09.09,0,0,1-.11-.11.4.4,0,0,1,.18-.34c-.05,0-.08,0-.08-.13a.4.4,0,0,0-.21.11.4.4,0,0,1-.21.11.21.21,0,0,0,0,.12.09.09,0,0,1,0,.09s0,0,0-.05,0,0,0,0Zm0-6.22s0,.05,0,.05,0,0,0,.05a.15.15,0,0,1,.11-.05s.06,0,.08-.08a.09.09,0,0,1-.11,0,.11.11,0,0,1-.14.07h0Zm0,1.47h.05s0,0,0,0,0,0,0,0,0,0,0,0,0,0-.05,0Zm0,3a.55.55,0,0,0,.21,0q0-.13-.07-.08a.32.32,0,0,1-.15.07Zm.05,2.89s0,0-.05-.08,0,.09,0,.09Zm-.05,4.28a.09.09,0,0,0,.08,0,0,0,0,0,0,0-.07c-.06.07-.08.1-.08.12Zm0,2.1c.07,0,.11,0,.11-.05a.15.15,0,0,0-.11.07Zm.08,1a.06.06,0,0,1,0,0,.05.05,0,0,0,0,0c.07,0,.11,0,.13-.05s-.11,0-.08-.08H4.4a0,0,0,0,0,0,.06h0Zm0-6.17c.09,0,.13-.07.13-.11s-.05,0-.05,0,0,0,0,0a0,0,0,0,1,0,.07.06.06,0,0,0,0,.08Zm.21-5.09a.18.18,0,0,1,0-.08.18.18,0,0,0,0-.08.18.18,0,0,0-.21,0l.09.05.09.09ZM4.5,43.14s0,0,.09,0,.08,0,.09,0,0,0,0-.05l-.13,0c-.05,0-.07,0,0,.08Zm.08-8.61s-.05,0-.05,0,0,0,0,0Zm0-6.48a.07.07,0,0,0,.09,0s0,0,0-.07,0,0-.05,0-.05,0,0,.05Zm0,6.74,0,0c0-.05,0-.07,0-.05Zm0,7.56c.05,0,.08,0,.08,0a.08.08,0,0,1,.05-.08l-.08-.05a.05.05,0,0,0-.07,0h0c.05,0,.08,0,.09,0s0,.07-.07.11Zm0-11.24H4.7s0-.05-.05-.05Zm0-1.55s0,0,0,0h0s0,0,0,0Zm0,12.85h.05S4.74,42.38,4.7,42.41ZM4.83,35l.05.12a.28.28,0,0,1,0,.18l.08,0s.05,0,.05,0-.11,0-.08-.13.08-.13.13-.13a.11.11,0,0,1,0-.09s0,0,0,0,0,.09,0,.11A.14.14,0,0,1,4.83,35Zm0,.89c0,.09,0,.1,0,0s0-.08,0,0Zm0-1.79s0,0,0,0,0,0,0,0ZM5,34.1s0,0,.08,0A.09.09,0,0,0,5,34s0,0,0-.08a.48.48,0,0,1,.13-.13s-.05-.07-.16-.11a.7.7,0,0,1,0,.22.23.23,0,0,0,0,.17Zm0,.34a.06.06,0,0,1,.07-.05l-.13-.05v.18A.12.12,0,0,0,5,34.44Zm0,1.44s.06,0,.07,0,0-.06,0,0,0,0,0,0,0,0,0,0Zm.11-2.34c0-.05,0-.08,0-.09a.14.14,0,0,0,.05-.07A.41.41,0,0,0,5,33.34a.14.14,0,0,1,0,.12s0,.08.09.09ZM5,33.68s0,0,.08-.05-.07,0-.07.06Zm.08.94s0,0,0,0,0,0,0,0,0,0-.08-.08,0,.06,0,.07,0,0,0,.07Zm0-2.34c.07,0,.11,0,.11.08s-.1,0-.1-.08Zm.13-.5s0,0-.05-.08,0,.1.06.08Zm.72,11.15a.1.1,0,0,0,0-.09s0-.06-.07,0a.15.15,0,0,1,0,.11s0,0,0,0Zm.73-12.87s0,0,0,0,0,0,0,0a0,0,0,0,0,0,.07S6.6,30.09,6.62,30.07Zm0,13.49a.07.07,0,0,0,.08-.08s-.05,0-.05,0a.08.08,0,0,1,0,0Zm.6-.25s0,0,.07,0,0-.05,0-.05,0,0,0,0S7.21,43.27,7.22,43.31ZM7.4,32.39a.07.07,0,0,0-.06-.08h0s0,.05,0,.05l.06,0Zm.08-.11a.11.11,0,0,0-.05-.11c-.07.07,0,.11.06.11Zm.08-1.44a0,0,0,0,1-.07,0s0,0,0,0,.11,0,.11,0Zm.11,1.1s0,0,0,0,0,0,0,0a0,0,0,0,0,0,0h0s0,0,.06,0Zm0-1.47.16.08a.34.34,0,0,1,.13.08c.05,0,.06-.07,0-.11s0-.08,0-.13a0,0,0,0,1-.05,0H8a0,0,0,0,0,0-.05h0c0,.11,0,.16-.07.16l-.17,0Zm0,1.81a.08.08,0,0,1,.07-.05s0,0,0-.05S7.68,32.27,7.69,32.29Zm.05-.18H7.8v-.05s0,0,0,0,0,0,0,0a.08.08,0,0,1,0,0ZM7.88,31v-.08s0,0-.05,0a.08.08,0,0,0,0,.08s0,0,.06,0ZM8,32.16s.07,0,.16,0c-.09-.08-.14-.08-.15,0Zm.5.08.12.05s.07,0,.07-.08a.15.15,0,0,0-.11,0c-.05,0-.08,0-.08,0Zm2.2,4.46a.06.06,0,0,1,.08,0,.2.2,0,0,0,.08.07.33.33,0,0,0-.11-.24s0,.06,0,.08a.09.09,0,0,0,0,.07Zm.18-.6s0,0,0,0,0,0,0,0Zm.55-7.87c0-.05,0-.08-.05-.08s0,.05,0,.05,0,0,0,0Zm.08,11s-.05,0-.05,0,0,0-.05,0a.06.06,0,0,0,0,.07.07.07,0,0,0,.07,0Zm0-10.89h.08s0-.05-.08-.05Zm.18,11.57a0,0,0,0,1,.05,0s0,0,0,0h0s0,0,0,0,0,0,0,0Zm0,1.07h.11c0-.07,0-.11-.05-.11s0,.05,0,.05,0,0,0,.06ZM13,40.92a0,0,0,0,0,0-.07s-.05,0-.05,0,0,0,0,0,0,0,.05,0Zm1.57-4.2s0-.06,0-.07a.14.14,0,0,0,.05-.07h-.08s0,.06,0,.08,0,0,0,.06Zm.18-.11c0,.09,0,.13.11.13s0-.15-.05-.18,0,0,0,0,0,0,0,0Zm.13-.65V36s0,0,0,0Zm.08-.84H15c0-.07,0-.11,0-.11a.15.15,0,0,0,0,.11Zm0,2a.22.22,0,0,0,.07.18.22.22,0,0,1,.07.18.08.08,0,0,0,.08-.05.54.54,0,0,0,0-.11.28.28,0,0,1,0-.09s.05,0,.11,0,.06,0,.08,0,0,0,.08,0,0,0,0,.07-.06.07-.13.07a.11.11,0,0,1,0,.11l-.05.11s.06,0,.07,0,0,0,.07,0a.3.3,0,0,1,.07-.25l.18-.22s0,0,0-.11,0-.11-.07-.05,0,.07,0,.09a.12.12,0,0,1-.14,0q-.08.18-.21.14L15,37.14Zm.2-.81c.05,0,.08,0,.08.13s0,.05,0,.05a.14.14,0,0,0-.09.05s.06,0,.07,0,0,0,.07,0,0-.1.11-.13l0-.08a.16.16,0,0,1,0-.11Q15.21,36.22,15.21,36.33Zm.08-.16a.18.18,0,0,0,.13-.05.48.48,0,0,0-.05-.13s-.05.06-.09.18ZM15.44,38c.07,0,.11,0,.11,0s0,.06.11,0l-.11-.13a.08.08,0,0,0-.11,0h0s0,0,0,.08Zm.11-1.18c-.07,0-.09,0-.05.13s.08,0,.08,0,0,.06.08,0,0-.08,0-.12-.05-.09,0-.14-.11,0-.12,0a.12.12,0,0,0-.07-.08c0,.05,0,.09,0,.11a.18.18,0,0,1,.08.08Zm-.05-.24h.13a.32.32,0,0,0,.05.13l.08.11a.48.48,0,0,0,0-.36.42.42,0,0,0-.21-.2.24.24,0,0,1,0,.32Zm.18,1.25c0,.06,0,.09.07.09s0-.06,0-.07,0,0,0-.07-.16,0-.11-.13h0l-.05.05a.09.09,0,0,1,0,.11Zm.18-.59s0,0,0,0,0,0-.06,0ZM16,28.51s0,0,0,0,0,0,0,0a.23.23,0,0,0,0-.11s0,0,.08,0,0-.15-.11-.08-.12.13-.11.18Zm.11.76a.24.24,0,0,1,0,.18s0,0,0,0,0,0,0,0a.1.1,0,0,1,0-.12l.05-.12a0,0,0,0,0-.07,0,.07.07,0,0,1-.09,0Zm.16-.16a.59.59,0,0,0,0-.29.2.2,0,0,0-.05.14.16.16,0,0,0,.05.14Z"/><path class="cls-1" d="M29.5,26.36q.63,0,1,0a5.35,5.35,0,0,1,.92.16c.07,0,.11,0,.11.05l.28.09.3.09a.16.16,0,0,1,.11,0,7.39,7.39,0,0,1,.7.34l.67.37.05,0,.05,0,.09.09.09.09s.05,0,.11.08a2.64,2.64,0,0,1,.92.72q.37.45.72.92c0,.05,0,.09,0,.11v.05a.45.45,0,0,1,.2.29.62.62,0,0,0,.18.31.07.07,0,0,0,0,.05v.05a0,0,0,0,0,0,0h0q.21.58.47,1.13a3.24,3.24,0,0,1,.29,1.28.53.53,0,0,0,0,.09.59.59,0,0,1,0,.09,3.71,3.71,0,0,1,.08.41,2.61,2.61,0,0,0,.08.38.2.2,0,0,0,0,.07.21.21,0,0,1,0,.07q.05.53.12,1.06a5.53,5.53,0,0,1,0,1.14q-.05.5-.12,1t-.12,1.05a.54.54,0,0,1,0,.09.54.54,0,0,0,0,.09A16.56,16.56,0,0,1,36.43,40a5.29,5.29,0,0,1-.67,1.35.15.15,0,0,0-.05.11l-.05.12-.05.12s0,0,0,0,0,0,0,0a.08.08,0,0,0,0,.05l-.2.25-.2.25-.05.05a.08.08,0,0,0,0,.05,3,3,0,0,0-.39.42,1.39,1.39,0,0,1-.42.37l-.09.08a3.32,3.32,0,0,1-.89.67q-.53.28-1,.56c0,.05,0,.08-.11.08a5.55,5.55,0,0,1-1.19.31,9.83,9.83,0,0,1-1.31.12,10.18,10.18,0,0,1-1.18,0,6.13,6.13,0,0,1-.85-.13,10.81,10.81,0,0,1-1.09-.38,6.56,6.56,0,0,1-1-.48,4.8,4.8,0,0,1-.93-.72q-.41-.41-.88-1a4.72,4.72,0,0,1-.48-.75l-.41-.77a5.4,5.4,0,0,1-.45-1.15q-.16-.6-.24-1.07t-.14-.72A6.62,6.62,0,0,1,22,37q0-.66-.07-1.34a3.51,3.51,0,0,1,.12-1.21v-.12a.18.18,0,0,1,0-.13.42.42,0,0,0,0-.21.11.11,0,0,1,0-.05.12.12,0,0,0,0-.05l.05-.26a1.48,1.48,0,0,0,0-.29v-.13q.08-.37.14-.72t.14-.67a.18.18,0,0,1,.05-.13.16.16,0,0,1,.11-.11s0-.07,0-.09a.16.16,0,0,0,0-.09v-.05a2,2,0,0,0,.21-.46q.08-.25.18-.51.31-.58.56-.94t.46-.63a5.46,5.46,0,0,1,.39-.45L24.8,28a8,8,0,0,1,.94-.67,6.1,6.1,0,0,1,1.07-.51,7,7,0,0,1,.68-.22,6,6,0,0,1,.72-.14h.11l.54-.07A5,5,0,0,1,29.5,26.36ZM22,35.78s.06,0,.07,0,0,0,.07,0a.32.32,0,0,1,.21-.18.42.42,0,0,0,.24-.18c-.09,0-.14,0-.16,0a.52.52,0,0,1-.2.2.77.77,0,0,0-.23.19Zm.34-.74a0,0,0,0,0,.05,0h0a0,0,0,0,0-.05.05Zm.13-2.6s0,0,0,0,0,0,0,0Zm.39-1.31q0,.16.11.16a.18.18,0,0,1,0-.12s0-.07,0-.07a.08.08,0,0,1-.06,0Zm0,.37s.05,0,.05,0,0,0,.05,0,0-.1,0-.09-.07,0-.07.06Zm.18,5.73c0-.07-.06-.11-.18-.11s.06.1.18.1ZM23,36.75s0,.05.08.11,0-.05,0-.05l.05,0c0-.09-.08-.09-.15,0Zm0-5.73h.16s0-.06,0-.07,0,0,0,0a.13.13,0,0,1-.12,0s-.05,0,0,.09Zm.34,5.61c-.07,0-.11,0-.11,0a0,0,0,0,0,0-.05h0a.08.08,0,0,0,0,.11.1.1,0,0,0,.12,0ZM23.3,30.9s0,0,0,0,0,0,0,0Zm0,8.48a0,0,0,0,0,.07,0,.06.06,0,0,0,0-.08s0,.05,0,.05,0,0,0,.05Zm.05-8.5a.08.08,0,0,0,.11,0,.16.16,0,0,0-.1,0Zm0,.63c.07,0,.11,0,.11-.08s-.1.06-.1.08Zm.13.68s.06,0,.07,0,0,0,.07,0v0s0,0,0,0,0,0,0,0,0,0-.05,0,0,0,0,.07Zm.08-1.44s0,0,.05,0a.05.05,0,0,0,.07,0h0a0,0,0,0,1,0-.07,0,0,0,0,0,0-.07s-.06,0-.07,0h-.07s0,.06-.05.07,0,0,0,.07Zm.16.65s-.05,0-.05,0,.06,0,.06,0ZM24,35.07c.07,0,.11,0,.11-.09a.26.26,0,0,1,.05-.14s-.05,0-.05,0,0,0-.05,0A.23.23,0,0,1,24,35a.08.08,0,0,0,0,.11h0Zm0,1.42.09,0s0,0,.07,0v-.08s-.05,0-.05,0,0,0-.05,0a.06.06,0,0,0,0,.07s0,0,0,.07Zm7.4,6.35a1.52,1.52,0,0,1,.55-.29A.18.18,0,0,0,32,42.5a4,4,0,0,0,.72-.55,5.6,5.6,0,0,0,.6-.68,5.3,5.3,0,0,0,.49-.75,7.34,7.34,0,0,0,.33-.72l.25-.76a8.15,8.15,0,0,0,.21-.8q.09-.43.16-.93t.09-1.15V36a.86.86,0,0,1-.09-.45,2.93,2.93,0,0,0,0-.47,1,1,0,0,0,0-.28,1,1,0,0,1,0-.28.87.87,0,0,1,0-.21.43.43,0,0,0,0-.21.51.51,0,0,0,0-.16.49.49,0,0,1,0-.16,1.13,1.13,0,0,1,0-.22v-.22a.32.32,0,0,1,0-.16.85.85,0,0,0,0-.13.59.59,0,0,0-.08-.18.37.37,0,0,1-.05-.21.33.33,0,0,0-.08-.16.33.33,0,0,1-.08-.16l-.09-.28a1.72,1.72,0,0,0-.09-.22.11.11,0,0,1,0-.08v-.08a.42.42,0,0,1-.05-.18L34,31.47,34,31.39a.21.21,0,0,1-.05-.16,2,2,0,0,0-.08-.34l-.11-.31a.21.21,0,0,0,0-.08.2.2,0,0,1,0-.08,4.43,4.43,0,0,0-.89-1.05,4.54,4.54,0,0,0-1-.66,4.35,4.35,0,0,0-1-.33,7.49,7.49,0,0,0-.81-.12h-.72a5.41,5.41,0,0,0-1,.13,4.68,4.68,0,0,0-1.09.39,3.82,3.82,0,0,0-1.05.8,5.45,5.45,0,0,0-1.05,1.56,7.28,7.28,0,0,0-.52,1.56q-.13.6-.21,1.1t-.13.92v.16a.45.45,0,0,1,0,.18v.16a2.64,2.64,0,0,0,0,1.11q.1.59.16,1.17v.11a.07.07,0,0,0,0,.05,1.39,1.39,0,0,1,.07.28,2.33,2.33,0,0,1,0,.25,1.33,1.33,0,0,0,.13.47,1.35,1.35,0,0,1,.13.47q0,.1,0,.12s0,0,0,.09a2.27,2.27,0,0,0,.12.33.86.86,0,0,1,.07.36l.09.08.09.08a1.62,1.62,0,0,0,.29.56,1.67,1.67,0,0,1,.29.54.07.07,0,0,0,0,.05.08.08,0,0,1,0,.05,1.07,1.07,0,0,1,.37.42l.13.07.08.07s0,0,0,.05l.07.05a.88.88,0,0,1,.33.22,1.29,1.29,0,0,0,.33.25.22.22,0,0,1,.13.08.35.35,0,0,0,.14.12q.12.07.14,0a.22.22,0,0,1,.16.05,2.74,2.74,0,0,0,.67.3,3.91,3.91,0,0,0,.77.16,3.8,3.8,0,0,0,.77,0,2.15,2.15,0,0,0,.67-.18h.13a.29.29,0,0,0,.13,0,0,0,0,0,1,0,0h0a0,0,0,0,0,0,0h0l.18-.14a.33.33,0,0,1,.25,0c.06,0,.09,0,.09-.05ZM24.19,30h.08s0,0,0,0,0,0-.05,0Zm1.6,12.28a.08.08,0,0,1,0-.05s0,0-.05-.05a.07.07,0,0,0,0,.1h0a.06.06,0,0,0,.1,0ZM25.95,28c0,.05,0,.07,0,.05S26,28,26,28Zm.94-.39c0-.05,0-.08,0-.08s0,.08,0,.08Zm0,.11s0-.05-.05-.05a0,0,0,0,0,0,.05h0Zm-.05.79s.05,0,.05,0,0,0,0,0Zm.42-.37a0,0,0,0,1,.05,0h0s0,0,.08,0a.24.24,0,0,1,.11-.07.23.23,0,0,0,.11-.07.15.15,0,0,1-.05-.11.15.15,0,0,0-.14.08.15.15,0,0,1-.14.08Zm.5.08-.05,0s0,0,0,0,.05,0,0-.05Zm.08-.45s0,0,0,0a0,0,0,0,1,0-.05s-.06,0,0,.05Zm.08.31V28a.08.08,0,0,0-.05.08,0,0,0,0,0,0,.06h0Zm.13-.55H28s0,.06,0,.07.06,0,.06,0ZM28,27.07c.05,0,.08,0,.08-.05s-.07,0-.07.05Zm.42.16s0-.05,0-.05-.07,0-.07,0Zm2.18.5a.11.11,0,0,0-.08,0c.06,0,.09,0,.09,0Zm1.76.34a0,0,0,0,0,0-.05h0a0,0,0,0,0,0,.05h0Zm.52.74s0,0,0,.07,0,0,0,0,0,0,.05,0,.05,0,.05,0l-.08-.05a.05.05,0,0,0-.07,0Zm.18.08a0,0,0,0,1,.05,0h0a0,0,0,0,0,0,.05h0c0-.05,0-.08,0-.09a.12.12,0,0,0,.07-.07.07.07,0,0,0-.09,0h0a.15.15,0,0,1-.09.05Zm.58,0a.18.18,0,0,1-.11,0,.07.07,0,0,0-.1,0h0a.18.18,0,0,1,.11,0,.07.07,0,0,0,.1,0v0Zm.16.18c.05,0,.08,0,.08-.08a0,0,0,0,1-.05,0h0a0,0,0,0,0,0-.05h0s0,.07,0,.09a.13.13,0,0,1,.05.09Zm-.05.21.09.08.09.08a.13.13,0,0,0-.07-.12l-.1,0Zm.08-.42s0,0,.05-.08a0,0,0,0,1,0,0h-.05a.15.15,0,0,0,0,.11Zm.34.47a.11.11,0,0,1,.08,0s0,0,.08,0,0-.08,0-.08a.15.15,0,0,1-.11-.05.15.15,0,0,0,0,.11Zm.16,2a.21.21,0,0,0,.11.14.2.2,0,0,1,.11.14.22.22,0,0,1,.13-.18.06.06,0,0,1,0-.08.11.11,0,0,0,0-.11c-.09,0-.14,0-.16,0s0,.05-.09,0Zm.29-1.23s.06,0,.07,0,0,0,.07,0,.07.1.05.13.05,0,.05,0,0,0,.05,0,0-.16.09-.18a.26.26,0,0,0,.18-.11l-.29.07a.43.43,0,0,0-.26.14Zm0,1.07a.21.21,0,0,1,0,.08.07.07,0,0,0,0,.05.47.47,0,0,1,.21.05s0-.05,0-.05-.06,0,0-.05,0-.08.05-.07h.11l.07-.12S35,31,35,31l-.2.11a.72.72,0,0,1-.21.08Zm.05-2.1s0,0,0,0,0,0,0,0Zm.11.21s0,0,0,0,0,0,0,0,0,0,0,0Zm.08,2.62s0-.05,0-.05,0,0,.05-.05-.06,0-.08,0a.08.08,0,0,0,0,.09Zm0-2.6s0,0,.08,0,.07,0,.05-.07a.21.21,0,0,0-.12,0Zm.52,1.5h-.16a.07.07,0,0,0-.08.08.15.15,0,0,1,.18.07.15.15,0,0,0,.2,0,.23.23,0,0,0,.07-.12s.06-.06.14,0a.21.21,0,0,1,0-.13.2.2,0,0,1-.14,0s-.08,0-.18,0a.12.12,0,0,0,0,.09s0,.05,0,.07Zm-.08-.52a.11.11,0,0,0,0-.08.11.11,0,0,0,0,.08ZM36,37.17,35.84,37a.14.14,0,0,0-.18,0,.55.55,0,0,1,.18.11.13.13,0,0,0,.18,0h0Zm-.18-3.28a.07.07,0,0,0-.06-.08h0a.07.07,0,0,0,.05.08h0Zm-.05-3.22a.08.08,0,0,0,.11,0,.15.15,0,0,0-.1,0Zm0,3.65h.05s0-.05-.05-.05Zm.05-.84v.05s.05,0,.05,0,0-.05,0-.05l0,0Zm0,.68s.05,0,.05,0,0-.06-.05,0Zm.13.05a.06.06,0,1,0,.05-.08s0,0,0,0,0,0,0,0Zm.18-.39h0s0-.06,0-.07-.05,0-.05,0h0a0,0,0,0,1,0,0Zm.05.24s0,0,0,0,0,0,0,0l-.07,0-.07,0a.21.21,0,0,1,0,.09.17.17,0,0,0,.07.06Zm-.08.52s0,0,0,.13.11,0,.11-.08-.11,0-.07-.07,0-.09,0-.09,0,.05,0,.05,0,0,0,.05Z"/><path class="cls-1" d="M49.15,26.91s.05,0,.05.07a.14.14,0,0,0,.05.09s0-.06,0-.08,0,0,0-.08a2.18,2.18,0,0,1,.72,0,2.55,2.55,0,0,0,.68,0,.29.29,0,0,1,.13,0,.29.29,0,0,0,.13,0,6.64,6.64,0,0,1,1.59.18,7,7,0,0,1,1.35.47,3.25,3.25,0,0,1,.67.41,6.34,6.34,0,0,1,.48.43,3.4,3.4,0,0,1,.48.6,3.51,3.51,0,0,1,.33.68,3.58,3.58,0,0,1,.24,1.19,3.83,3.83,0,0,1-.18,1.33v.05l0,.05a.21.21,0,0,0,0,.09.14.14,0,0,1-.05.09.05.05,0,0,1,0,0,.06.06,0,0,0,0,0,.06.06,0,0,1,0,0,.05.05,0,0,0,0,0v0l0,0q-.18.31-.37.6a2,2,0,0,1-.45.5,3.5,3.5,0,0,1-.59.47,5,5,0,0,1-.62.34l-.29.13-.31.13s0,0,0,0,0,0,0,0l.56.22.59.25.52.25a2,2,0,0,1,.39.25,3.53,3.53,0,0,1,.72.6,4.16,4.16,0,0,1,.55.72,1.71,1.71,0,0,1,.18.52,2.83,2.83,0,0,0,.16.55.3.3,0,0,0,0,.09.3.3,0,0,1,0,.09,3.1,3.1,0,0,0,.07.39l.09.34v.08a.3.3,0,0,1,0,.09.28.28,0,0,0,0,.09v.05l-.06.05.05.08c0,.05,0,.06-.07,0s0,0-.07,0,0,.08,0,.08h.05s0,0,0,0,0,0,0,0,0,.09,0,.11a.39.39,0,0,1,.05.16q-.05.29-.11.54t-.11.46a.43.43,0,0,0-.07.13l-.07.16a2.49,2.49,0,0,0-.37.68.18.18,0,0,1-.07.12s-.07.08-.07.09a.52.52,0,0,1-.18.13l-.05.08a1.82,1.82,0,0,1-.48.58,6.64,6.64,0,0,1-1.22.81,3.94,3.94,0,0,1-.83.38,8.33,8.33,0,0,1-1,.26q-.53.1-1.06.16a10.06,10.06,0,0,1-1,.05q-.55,0-1.29,0l-1.44-.07q-.72,0-1.31-.11l-.92-.12h-.42a7,7,0,0,1-.76.07,7.11,7.11,0,0,0-.76.07l-.38,0-.36,0-.36.07a1.57,1.57,0,0,1-.51,0,3.09,3.09,0,0,1-.45-.07L41,44.51a.76.76,0,0,1-.34-.37,2.16,2.16,0,0,1-.08-.45,1.83,1.83,0,0,1,.08-.42.59.59,0,0,1,.7-.39L42.6,43A2,2,0,0,0,43,43l.34-.11a1.29,1.29,0,0,0,.46-.52,2.33,2.33,0,0,0,.22-.72V30.16a2.3,2.3,0,0,0-.21-1,1.56,1.56,0,0,0-.31-.45,1.06,1.06,0,0,0-.64-.24l-.62,0a2.68,2.68,0,0,0-.47.08l-.42,0a.63.63,0,0,1-.52-.24,1.14,1.14,0,0,1-.18-.41,1.1,1.1,0,0,1,.05-.56.45.45,0,0,1,.18-.21A.46.46,0,0,0,41,27l.05,0s0,0,0,0,0,0,0,0a1.11,1.11,0,0,1,.43-.09h.59l.41,0a1.94,1.94,0,0,1,.38.07,4,4,0,0,0,.87.12q.45,0,.89,0l.91,0q.46,0,.93,0h.39A21.76,21.76,0,0,1,49.15,26.91ZM44.22,42.83a.12.12,0,0,0-.08-.13c0,.09,0,.13.08.13Zm.05-2.1s0,0,0,0a.06.06,0,0,1,.07,0v-.08h0l0,0Zm.24-10.31c.05,0,.07,0,.05-.05h0s0,0,0,0S44.51,30.41,44.51,30.42Zm0,2.2a.07.07,0,0,0,.08-.08q-.1.06-.08.08Zm.08,1.1s.05,0,.11,0l.05,0c-.05,0-.09,0-.11,0a.09.09,0,0,0-.08,0s0,.05,0,.05,0,0,0,.05Zm.05,9.16c-.05,0-.08,0-.08,0s.08,0,.08,0Zm-.05-2s0,0,0,0,0,0,0,0,0-.06,0-.07,0,0,0,0Zm.05-6.06c0-.05,0-.08,0-.08s0,.08,0,.08Zm0-3.13s0,0,0,0v.05a0,0,0,0,1,0,0Zm.16,2.3s0,.05,0,.05,0,0,0,.05a.09.09,0,0,0,.11,0,.24.24,0,0,0,0-.11s0-.05.11-.05a.18.18,0,0,1,.08.16.06.06,0,0,1,.07,0s0,0,.07,0V34a.12.12,0,0,1-.13,0,.32.32,0,0,1-.08-.13.2.2,0,0,1,0-.14.1.1,0,0,1,.11-.07c.14,0,.2.09.18.26s.09,0,.11,0a.11.11,0,0,1,.11-.05.25.25,0,0,1,0-.29c-.05,0-.08,0-.08,0s0,.06-.08,0l-.11-.12s-.07,0-.11,0,0,.07,0,.09a.41.41,0,0,1-.18,0,.23.23,0,0,0-.07.12.42.42,0,0,1-.07.14s0,0-.05,0,0,0-.08,0,0,.1.05.09l.08,0s0,0,0,0,0,0,0,0Zm0-.52s0,0,0,0,0,0,0,0Zm.21,2s-.05,0-.05,0,0,0-.05,0,0,.06,0,.07.06,0,.06,0Zm0,.2s0,.07.05.07,0-.12-.13-.16l0,.05c.07,0,.11,0,.11,0Zm0,5.47s0-.05-.08-.05S45,41.19,45,41.16ZM45,34.1c0,.07,0,.08,0,0s0-.06,0,0Zm.11,8.61a.12.12,0,0,1,.09,0s0,0,0,0h-.1Zm.05.6h0s0-.06,0-.07-.06,0,0,0a0,0,0,0,1,0,0h0Zm0-5.83s-.05,0-.05,0a.14.14,0,0,1,.05.09Zm0-5.9a.09.09,0,0,1,.09,0s0,0,0-.05a.08.08,0,0,1-.08,0s-.05,0-.05,0Zm0,.24s0,0,0,0,0,0,0,0ZM45.27,43a.15.15,0,0,0,.11,0c-.07,0-.11,0-.11,0Zm.18-11.26c0-.05,0-.08-.05-.08s0,.08.05.08Zm0,.34a.11.11,0,0,0,.05-.11.29.29,0,0,1,0-.13,0,0,0,0,1,0,0h0s0,0-.05,0a.1.1,0,0,0,0,.12.48.48,0,0,1,0,.17Zm.21,2a.07.07,0,0,0,.09,0s0,0,0-.07,0,0-.07,0S45.65,34,45.66,34Zm.11-.11a.09.09,0,0,0,0-.12.23.23,0,0,0-.09-.09s0,.07,0,.11a.14.14,0,0,1,.07.1Zm0-.52s.05,0,.05,0,0,0-.05,0Zm.45.55a.39.39,0,0,0,.18.18l.26.12a6.3,6.3,0,0,0,1.22.09q.62,0,1.22,0A11,11,0,0,0,51.62,34a3.22,3.22,0,0,0,1.52-.92l.26-.36a1.33,1.33,0,0,0,.21-.46,3.66,3.66,0,0,0,.09-1.52A2.16,2.16,0,0,0,52.43,29a3.88,3.88,0,0,0-1-.36,6.12,6.12,0,0,0-1-.12h-.93l-.7,0-.67,0-.83.11a2.62,2.62,0,0,0-.77.26.76.76,0,0,0-.25.28,1.12,1.12,0,0,0-.12.3,7.44,7.44,0,0,0-.11,1q0,.6,0,1.25T46,33a4.65,4.65,0,0,0,.15.92ZM46.77,36a1.3,1.3,0,0,0-.46.18.68.68,0,0,0-.2.3,1.38,1.38,0,0,0-.13.58v1.34q0,.42,0,.89t0,1q0,.5,0,1a1.42,1.42,0,0,0,0,.2,1.42,1.42,0,0,1,0,.2,3.87,3.87,0,0,0,.14.52.73.73,0,0,0,.3.39,2,2,0,0,0,.83.3L48,43a17.45,17.45,0,0,0,2,0,10.51,10.51,0,0,0,2-.25,3,3,0,0,0,2.6-2.68q0-.34,0-.84a3.72,3.72,0,0,0-.14-1,3,3,0,0,0-.5-1,2.65,2.65,0,0,0-1-.79l-.42-.14a4.74,4.74,0,0,0-.66-.2A5.94,5.94,0,0,0,50.78,36l-1.18-.05H48.28l-.84,0a5.24,5.24,0,0,0-.67.06Zm-.42-.45s0-.05,0-.05a0,0,0,0,0,.05,0h0a.15.15,0,0,1-.05-.18c0-.08,0-.13-.08-.14A1,1,0,0,0,46.34,35.59Zm.54-7.35a.15.15,0,0,0,.05-.11.28.28,0,0,1-.21-.08C46.71,28.15,46.77,28.21,46.88,28.25Zm0,15.53a0,0,0,0,1-.05,0s0,0,0,0,.07,0,.07,0Zm.42-15.45a.18.18,0,0,0,0-.08.18.18,0,0,1,0-.08h-.08s0,.09.09.16Zm0,6.53q.1.11.08,0t-.09,0ZM47.48,28s0,0,0,0,0,0,0,0,0,.05,0,.05,0,0,0,0Zm.42,6.67.11.08.11.08s0,.05-.05.05,0,0,0,.05a.33.33,0,0,0,.14,0,.2.2,0,0,1,.14.05c0-.11,0-.17-.11-.18a.23.23,0,0,1-.16-.16.07.07,0,0,1,0-.1h0c.05,0,.06,0,0-.08a.06.06,0,0,1-.08,0l-.08,0a.16.16,0,0,1,0,.09l-.06.09Zm.55-7.06s0,0,0,0,0,0,0,0Zm.26.16h0s0-.06,0-.07-.05,0-.05,0a0,0,0,0,1,0,0h0Zm.26-.05s.05,0,.05-.07,0-.07-.05-.07Zm.31-.5a2,2,0,0,1,.24.22,1.88,1.88,0,0,0,.24.22c0,.09,0,.13.09.13h.2a.61.61,0,0,0-.33-.38,1.55,1.55,0,0,1-.43-.28Zm.05,7.9h.11a.23.23,0,0,1,0-.11.08.08,0,0,0-.05-.08.09.09,0,0,1,0,.09.16.16,0,0,0,0,.09Zm.11.18c-.05,0-.05-.06,0-.08s.05,0,0-.08,0,0-.05.11,0,.09,0,.06Zm0-.5a.36.36,0,0,1,0-.08s0,0,0,0,0,.11,0,.11Zm.18.84s0-.05,0-.05,0,0,0-.08-.08-.07-.18-.11,0,.08,0,.13a.25.25,0,0,0,.13.11Zm-.13.08s0,0,0,0,0,0,0,0Zm.76-7.79a.29.29,0,0,0-.11-.13v.08s.05,0,.05,0,0,0,.05,0Zm0-.39s0,0,0,0,0,0,0,0Zm0,7a.31.31,0,0,1,.21.05s0-.06,0-.07,0,0,0-.07a.06.06,0,0,1-.07,0s0,0-.07,0,0,.06,0,.07a.14.14,0,0,0-.05.07Zm.21-7.43h.07s0,0,0,0a.09.09,0,0,0-.07,0,.05.05,0,0,0,0,.06Zm.24,7.4a.09.09,0,0,0-.08-.11h0s0,.07,0,.09a.09.09,0,0,0,.11,0Zm0,.55c0,.05,0,.06,0,0s0,0,0,0Zm.05-.39v0h.05s0-.05,0-.05a0,0,0,0,1,0,0h0Zm0,.26Zm0,.42h.08s0-.05-.08-.05Zm.21-.76a.42.42,0,0,0-.08-.11s0,.08.08.11Zm.08-.13c0,.05,0,.08,0,.08s0-.05,0-.05,0,0,0,0,0,0,0,0,0,0,0,0Zm.16-.13s0,0,.05,0,0,0,.05,0,0,0,0,0,0,0,0,0a.11.11,0,0,1-.08,0s0,0-.08,0a.14.14,0,0,0,.05.07.15.15,0,0,1,.05.07Zm.87,0h.11c0-.07,0-.11-.08-.11a.05.05,0,0,1,0,0,.1.1,0,0,0,0,.07Zm.21-6.08c0-.07,0-.11,0-.11a.15.15,0,0,0,0,.11Zm.08,5.9c.07,0,.11,0,.11-.08L52.38,34s0,.06,0,.07,0,0,0,.07Zm0,8.95c0,.07,0,.09,0,.07s0,0,0-.06Zm.39-14.64s0-.05,0-.05,0,0,0-.05-.06,0-.07,0,0,0-.07,0a.06.06,0,0,0,.05.07l.11,0Zm-.13.16c.05,0,.07,0,.05.08a.11.11,0,0,0,0,.11c.05,0,.08-.07.07-.09a.39.39,0,0,1,0-.12h-.08s0,0,0,0Zm.42,14.72-.13,0c-.09,0-.13,0-.13,0a.28.28,0,0,0,.14,0c.08,0,.12,0,.12,0Zm0-.76h-.24s0,.05.11.05.13,0,.13,0Zm-.18-14.8s.05,0,.05-.13h-.05Zm.05,6.8H53a.08.08,0,0,1,0-.11s0,0,0-.08,0,.06-.07.08a.1.1,0,0,0-.07.1Zm.37,8.23h.05a0,0,0,0,0,0-.05h0Zm.13.72c-.07,0-.11,0-.11,0h.07l.07,0a.27.27,0,0,0,0-.16.11.11,0,0,0,0-.08.28.28,0,0,0,0,.16Zm.05-9.42s0-.05,0-.05-.06,0,0,0,0,0,0,0,0,0,.05,0Zm.05,9.76s0,0,0,0,0,0-.05,0,0,.05,0,.05,0,0,0,0Zm.68-14.12a.21.21,0,0,1-.16-.05c0,.05,0,.09.07.12S54.22,29.81,54.22,29.74Zm.13.81a.07.07,0,0,0,0-.1h0a.11.11,0,0,0-.09-.05.21.21,0,0,1,0,.08s0,0,.06.08Zm0,10.76v.05s.05,0,.05,0a0,0,0,0,0,0-.05h0Zm.21,1.42c0,.09,0,.11-.07.08s-.08,0-.09,0,0,.09.07.07a.09.09,0,0,1,.12,0s0-.06,0-.08,0,0,0-.08.05,0,.05,0a.11.11,0,0,0-.08,0s0,0-.07,0Zm-.13-12,0,0s0-.05,0-.05Zm.11-.47s-.05,0-.05,0,.06,0,.06,0ZM54.95,29S55,29,55,29s0,0,.05,0,0-.08-.11-.08Zm.14.21.09-.05H55s0,.06.07,0Zm0,8.26,0-.05H55s.05,0,.05,0a0,0,0,0,0,0,0h0Zm0,1.76h-.05a0,0,0,0,1,0,0h0s0,0,0,0Zm.13.11c0-.07,0-.11-.08-.11s0,.06.08.1Zm-.08-1.91q.16,0,.18-.08a.16.16,0,0,0-.11,0l-.07,0Zm0,3.15c.07,0,.11,0,.12,0s0,.09.09.09v-.18a.14.14,0,0,1-.11,0,.11.11,0,0,0-.1,0ZM55.24,37c0,.07,0,.08,0,0s0-.07,0,0Zm.21,3.73s0,.05,0,.05,0,0,0,0,.09,0,.12,0,.08,0,.18,0V41s-.06,0-.07,0,0,0-.07,0,0,.05,0,.05,0,0,0,.05a.22.22,0,0,0,.21,0,.28.28,0,0,0-.08-.22.52.52,0,0,1-.13-.18c0,.11-.06.14-.16.11Zm.05-11.31c-.05,0-.08,0-.07-.05s0-.05,0-.05a.23.23,0,0,0,0,.12s.05,0,.07,0Zm0,11.07a.06.06,0,0,1,.07,0,.12.12,0,0,0,.07.07s0-.05,0-.05,0,0,0-.05a.15.15,0,0,0-.11-.05.08.08,0,0,0-.08,0Zm.42-.39a.1.1,0,0,0,0-.13.14.14,0,0,1,0-.13.15.15,0,0,0-.11,0c.05,0,.06.06,0,.12s0,.09.09.11Zm-.11.42h0s0-.05,0-.05ZM56,41.8c.05,0,.07,0,.05-.05h0s0,0,0,0,0,0,0,0Zm.08-.31q.05.18.21.13l-.05-.08s0,0,0-.08h-.16Zm.05.34a0,0,0,0,0,0,0h.05a0,0,0,0,0,0,0h0Zm.13-3.31s0,0,0,0,0,0,0,0Zm.47,1s0,0,0,0,0,0,0,0Zm.05-.08a.15.15,0,0,0,.11,0s-.06,0-.09,0Z"/><path class="cls-1" d="M66.31,36v.66l0,.05h-.05q0,.18.08.18a1.4,1.4,0,0,0,0,.34c0,.12,0,.2,0,.24s-.05,0-.05,0,0,0-.05,0,0,.08,0,.09l.09,0a.44.44,0,0,1,0,.11.23.23,0,0,0,0,.13q-.08-.13-.21,0a.24.24,0,0,0,.21.08.56.56,0,0,0,0,.34.21.21,0,0,0-.18,0c-.06,0-.08.1,0,.18s0,0,0-.07,0-.06,0-.09.18,0,.16.11a.78.78,0,0,0,0,.29s-.05,0-.05,0,0,0-.05,0,0,.08,0,.08.07,0,.07.08-.07.08-.11.07H66c0-.05,0-.08,0-.08s-.07,0,0,0,0,0,0,0-.07,0,0,0,0-.07,0-.07a.15.15,0,0,1-.05.11.06.06,0,0,1-.09,0l0,0c.05,0,.07-.07.05-.09s0,0,.11-.07a1.32,1.32,0,0,0-.11-.33.27.27,0,0,0-.26-.18c0-.05,0-.07.05-.07h.11s0,0-.05,0a.09.09,0,0,1-.11,0,.15.15,0,0,0-.07-.18.2.2,0,0,1-.12-.14q-.08.11.07.21a.18.18,0,0,1,.05.25v0a.22.22,0,0,1,0,.16.76.76,0,0,0,0,.13.27.27,0,0,1,.16,0c0,.05,0,.08,0,.09a.06.06,0,0,0,0,.07,1.09,1.09,0,0,1,.09.18.2.2,0,0,0,.14.12q-.05.24.13.26.05.18,0,.21s0,.06,0,.13-.05,0-.05,0,0,0-.05,0l.09.18a.41.41,0,0,1,0,.18s-.06,0-.07,0a.06.06,0,0,0-.07,0,.2.2,0,0,1,0,.18.14.14,0,0,0,0,.14.23.23,0,0,0,.24-.13.57.57,0,0,0-.16-.29.06.06,0,0,0,0-.08s0-.05.09-.05a.47.47,0,0,0-.08-.2.26.26,0,0,1-.05-.18q.13-.05.14,0a.13.13,0,0,0,.09.12.18.18,0,0,0,.05-.13,1.27,1.27,0,0,1,0,.68,1.25,1.25,0,0,0,0,.63s-.06,0-.08,0a.09.09,0,0,0-.08,0c0,.05.05.13.16.24a.36.36,0,0,0,0,.16v.29a3,3,0,0,0,.05.51q.05.3.11.51a.82.82,0,0,0,.3.42,1.27,1.27,0,0,0,.48.18l-.21.05s0,0,.05,0a.11.11,0,0,1,.11,0,.18.18,0,0,1,0,.13.52.52,0,0,0,0,.13s0,0,.05,0l.05-.11a.52.52,0,0,0-.05-.12s0-.07,0-.12a12,12,0,0,0,1.69,0,17.79,17.79,0,0,1,1.79,0c.07,0,.09,0,.08.05l.05,0,.05,0h.92a4.63,4.63,0,0,0,.94-.12,2.64,2.64,0,0,0,.79-.31,1.09,1.09,0,0,0,.47-.63s.06,0,.07,0,0,0,.07,0a.06.06,0,0,0,0-.07.06.06,0,0,1,0-.07,2.21,2.21,0,0,0,.13-.67q0-.41,0-.88t0-.94q0-.47-.05-.84a1.61,1.61,0,0,1,.21-.88.85.85,0,0,1,.81-.3,2.71,2.71,0,0,1,.46.09.5.5,0,0,1,.3.2s0,0,0,0-.07,0-.07,0a0,0,0,0,0,.07,0l.07,0a.3.3,0,0,1,.11.21v.08a1,1,0,0,1,.11.24,2.58,2.58,0,0,1,0,.56q0,.36-.11.79T76,40.3a7.69,7.69,0,0,0-.05.88q0,.45,0,.81t0,.76a3.15,3.15,0,0,1,0,.89,1.21,1.21,0,0,1-.34.74,1.14,1.14,0,0,1-.84.29l-.55-.05-.58,0-.72,0-.94-.05h-.6a1.26,1.26,0,0,1-.45-.08H70.9a2,2,0,0,1-.91.05,5.37,5.37,0,0,0-.91-.08l-1.19.07q-.59,0-1.19,0H64.61l-.84.05-.88.07-.85.07a1.94,1.94,0,0,1-.83-.09.92.92,0,0,1-.39-.29,1.07,1.07,0,0,1-.13-.5q0-1,1-.92.52.05,1,.13a1.1,1.1,0,0,0,.81-.16,1.15,1.15,0,0,0,.38-.41A2.26,2.26,0,0,0,64,42a2.35,2.35,0,0,0,.07-.42,4.1,4.1,0,0,1,0-.45l.13-.08a.17.17,0,0,0,0,.18l.12.09a.63.63,0,0,1,.2,0c.08,0,.1,0,.07-.08a.26.26,0,0,1-.28,0c-.11-.05-.13-.14,0-.26a.18.18,0,0,1,.13,0l.11,0A.14.14,0,0,1,64.6,41l.08-.07c0-.07-.11-.11-.26-.11a.36.36,0,0,0-.08.12.26.26,0,0,1-.11.12.16.16,0,0,1-.08-.09.36.36,0,0,0-.08-.12.27.27,0,0,1,.16,0s.05,0,.11-.13,0,0-.07,0-.06,0-.09,0a.2.2,0,0,1,0-.13s0,0,0,0,0,0,0,0a4,4,0,0,1,0-.58q0-.31,0-.66a.59.59,0,0,1,.36.07,3.15,3.15,0,0,1,.22.28c0,.05,0,.07,0,0a.13.13,0,0,0-.09,0,.05.05,0,0,0,0,.07h0l.08.05c0,.05,0,.08,0,.08s-.06,0,0,.05,0,0,0,0,0,0,0,0l.09-.11s.08,0,.14,0,0,0,0,0a0,0,0,0,1-.05,0,.1.1,0,0,1,.11-.08c.05,0,.07,0,.05-.11l.13,0c.05,0,.07,0,.05-.12s-.08,0-.08,0a.08.08,0,0,1-.05.08q-.11-.05-.13.08a.23.23,0,0,0-.12-.07.22.22,0,0,1-.12-.07s0-.06,0-.07,0,0,0-.07,0,0-.07,0a.06.06,0,0,1-.07,0,.24.24,0,0,1,.16-.26c0,.05,0,.08,0,.07s-.05,0-.05,0a.23.23,0,0,1,.16.08.08.08,0,0,0,0-.09.59.59,0,0,1,0-.12.18.18,0,0,1,.13,0,.23.23,0,0,0,.16,0,.36.36,0,0,1,0-.18.25.25,0,0,0,0-.14s0,0,.05,0,.05,0,.05,0l-.11-.07a.23.23,0,0,1-.08-.12l-.11.12a.46.46,0,0,0-.08.2c-.09,0-.13,0-.12-.11a.18.18,0,0,0,0-.16.08.08,0,0,0,0,.09s0,.06,0,0,.08.11.13.11-.14.09-.26.05l-.08.12a.38.38,0,0,1-.11.09c0,.07,0,.11,0,.12a.24.24,0,0,0-.11.07v-2a2.75,2.75,0,0,0,0-.3c0-.12,0-.15.12-.12a.15.15,0,0,1,0-.14s0-.08-.11-.12v-.21a0,0,0,0,1,0-.05h.06s0-.05,0-.05,0,0,0,0a.48.48,0,0,0,.05-.29c0-.07,0-.19-.08-.37s0,0,0,0,0,0,.07,0a.54.54,0,0,0-.07-.24.12.12,0,0,1,0-.16l0,0s0,0,0,0,0,0,0,0a.83.83,0,0,1,0-.22.27.27,0,0,0,0-.2.11.11,0,0,1,0-.08.15.15,0,0,1,0-.11V33.35q0-.31,0-.6c0-.19,0-.36,0-.47s.07-.11.11-.11a.67.67,0,0,1-.12-.41q0-.2,0-.51a.7.7,0,0,0,.18-.13.4.4,0,0,0,.11-.21.11.11,0,0,0-.11,0,.11.11,0,0,1-.11,0,.29.29,0,0,1,0-.21.09.09,0,0,0-.07,0s0,0-.07-.05a.11.11,0,0,1,0-.08l.05-.08a.25.25,0,0,1-.05-.18,4.63,4.63,0,0,0-.2-.88,1.35,1.35,0,0,0-.29-.5.93.93,0,0,0-.38-.24,1.4,1.4,0,0,0-.42-.07,2.43,2.43,0,0,0-.56.07,2.8,2.8,0,0,1-.64.07q-.94,0-.92-1.07a.89.89,0,0,1,.22-.45.69.69,0,0,1,.46-.23A2.7,2.7,0,0,1,62,27l.83.08,1.11.12q.67.06,1.25.09a8.82,8.82,0,0,0,1-.07l1.06-.12.88-.11.48-.05a1.12,1.12,0,0,1,.26,0,1.53,1.53,0,0,1,.31.12,1.1,1.1,0,0,1,.29.21.72.72,0,0,1,.18.34.91.91,0,0,1-.18.87.85.85,0,0,1-.66.24l-.75-.09a3.81,3.81,0,0,0-.83,0,.68.68,0,0,0-.39.18,3.1,3.1,0,0,0-.29.3,1.6,1.6,0,0,0-.25.77,4.8,4.8,0,0,0,0,.91v.74s-.06,0-.08,0a.2.2,0,0,0-.08-.07s0,0,0,.09,0,.06-.07,0,.06.08.08,0,.05-.06.11,0,0,0,.05,0ZM60.8,43.73q-.05.08,0,0c0-.06,0-.05,0,0Zm.39,0c-.07,0-.11,0-.13,0a.12.12,0,0,0-.11,0l.11-.18a.44.44,0,0,0,.05-.22.47.47,0,0,0-.13.13.27.27,0,0,1-.18.11q.16,0,.11.24s.05,0,.05,0,0,0,.05,0a.05.05,0,0,1,.07,0h0a.09.09,0,0,0,.1,0Zm-.39.11c.07,0,.1,0,.08-.05H60.8Zm.31.45s.05,0,.05,0,0,0,.05,0a.05.05,0,0,0,.05,0h.05a.06.06,0,0,1,0,.07s0,0,0,0a.17.17,0,0,1,0-.13h-.11a.06.06,0,0,1-.08,0s0-.05,0-.05,0,0,0-.05,0,0,0,0,0,0,0,0a.12.12,0,0,0,0,.09s0,.06,0,.09Zm.13-16v.05a.11.11,0,0,0,.08.07s0,0,0,.09l.12-.07h.14s-.06,0-.07,0h-.09q-.09-.16-.21-.1ZM64.19,31s0,0,0,.08,0,.1-.07.08-.06-.12,0-.16Zm-.05,8.59s0,0,.09,0a.14.14,0,0,0,.12,0s-.05,0-.05,0,0,0-.05,0,0,0-.07,0-.06,0,0,0Zm0,.52a.18.18,0,0,1,.16.14c0,.08.07.1.16.07s0-.06.05-.08.09-.06.05-.13h-.11c0,.07,0,.11-.05.11h-.08a.06.06,0,0,1,0-.08s0-.06,0-.13-.09,0-.11,0l-.08.09Zm.05.84s.05,0,.05,0,0,0,0,0Zm.05-.52a.24.24,0,0,0,.11.31c0-.07,0-.09,0-.08a.07.07,0,0,0,.09,0l-.07,0a.06.06,0,0,1,0-.07.41.41,0,0,0,.11-.16.14.14,0,0,0-.12.05s-.06,0-.12,0Zm0-2a.18.18,0,0,1,0-.11s0-.06,0-.08-.06.14,0,.18Zm0,.92s0,0,0,0,0,0,0,0Zm0,1.29s0,0,.05,0,0,0,0,.05h-.05a0,0,0,0,0,0,0h0Zm0-10c.07,0,.11-.05.11-.16h-.11a.1.1,0,0,1,0,.08.18.18,0,0,0,0,.07Zm.08,5.77s0-.07-.08-.11,0,.1.08.1Zm-.08,4.12h.05s0,0,0,0a0,0,0,0,0,0,0h0Zm.11-1.37s0,0,0,0,0,0,0,0,0,.05,0,.05-.07,0-.07.05,0-.06,0-.08.06,0,.06-.05Zm0-8a.07.07,0,0,1,.09,0s.06,0,.09,0a.18.18,0,0,1-.11,0s-.06,0-.08,0Zm.16,7.27s0,0,0-.07,0,0,0,0h-.08a.09.09,0,0,0,0,.12s.06,0,.08,0Zm-.08.16a0,0,0,0,0,0,0h.05a0,0,0,0,0,0,0h0Zm.05.21s0,0-.05-.08,0,.09.05.08Zm.18-.81c0,.14-.06.21-.18.21l.16.08.13.08.09-.14A.63.63,0,0,0,65,38a.14.14,0,0,1-.07-.05s0,0-.07,0a.21.21,0,0,1-.13,0Zm-.18,2.68v.05a0,0,0,0,0,.07,0s0-.05,0-.05l0,0Zm0-5.61h.08V35h-.08Zm.11,3.28c-.05,0-.08,0-.08,0a.11.11,0,0,0,.08,0Zm0-2.94a.09.09,0,0,1,.08,0h.08c0-.05,0-.06.08,0s.07,0,.05-.05-.11,0-.11-.05a.1.1,0,0,1-.13,0c-.05,0-.09,0-.11,0s.07.09.06.12Zm0,.21a.14.14,0,0,0,.05.07.14.14,0,0,1,.05.07s.07,0,.09,0a.13.13,0,0,0,.09,0,.39.39,0,0,0-.13-.34.13.13,0,0,1,0,.16s-.08,0-.16,0Zm.79,4.49a.23.23,0,0,1,0-.11.24.24,0,0,0,0-.11s-.06,0-.07,0a.06.06,0,0,0-.07,0s0,0-.07,0,0,0,0,0a0,0,0,0,1,.05,0h0c-.09.05-.15.07-.18.05a.48.48,0,0,0,0,.34.14.14,0,0,1-.07-.05.15.15,0,0,0-.07-.05s0,.05,0,.05,0,0,0,.05-.22,0-.24.08.1.07.09.11a.15.15,0,0,0,0,.11.4.4,0,0,0,.22.05.55.55,0,0,1,.25.05.34.34,0,0,0-.09-.11s0-.08,0-.13,0,0-.05,0,0,0-.05,0,.08,0,.08-.13h.08a.17.17,0,0,1,.11.13.47.47,0,0,0,.13-.13.1.1,0,0,1-.08,0s0,0-.08,0a.66.66,0,0,0,0-.26s.07,0,.09,0a0,0,0,0,0,.07,0Zm-.55-7.69q0-.1,0-.05s-.07,0-.09,0,0,0,.13,0Zm-.11,7.14c0,.07,0,.11.05.11l.05-.07s0,0,0-.07l-.07,0Zm.39-8.95s0,0-.05,0,0,0,0,0,0-.06,0-.07a0,0,0,0,0,0,0s0,0,0,0,0,0,0,0-.08.1-.18.08a.09.09,0,0,0,.09.05s.06,0,0,.08a.16.16,0,0,1-.12.05.09.09,0,0,0-.09.05.07.07,0,0,1,.09,0,.13.13,0,0,0,.09,0c0-.05,0-.09.11-.11l.08,0Zm-.26,7.06a0,0,0,0,1,0,0s0,0-.07,0a.08.08,0,0,0,.05.08s.06,0,.06,0Zm0-.34s0,.05,0,.05,0,0,0-.06ZM65,35.15c0-.05,0-.08-.11-.08s0,.07.11.07Zm-.11,6.4c.11,0,.15,0,.13-.05s-.11,0-.13,0ZM65,38.3c0,.07,0,.09,0,.07S65,38.31,65,38.3ZM65,39.55s0-.06,0-.07a0,0,0,0,0,0,0h0s-.05,0-.05,0,0,.07.05.07Zm0-1.37c.05,0,.08.07.08.11s0,0,0,0,0,0,0,0,.08.09.08.11a.15.15,0,0,0-.08.13.12.12,0,0,1,.09,0,.06.06,0,0,0,.07,0,.12.12,0,0,1,0-.12.18.18,0,0,0,0-.12s0,.05-.08.05v-.11a.15.15,0,0,1-.11,0,.08.08,0,0,0-.08,0Zm.05.45s.05,0,.05,0a0,0,0,0,0,0,0h0v-.11a.13.13,0,0,0-.08.09Zm.05.24s.05,0,.05.08h.12a.07.07,0,0,1,0-.09s0,0,0-.07,0,.07-.05,0a.09.09,0,0,0-.08,0s0,0,0,.09Zm0,.26c.05,0,.08,0,.08.08a.08.08,0,0,1-.05.08c.07,0,.11,0,.13-.07a.35.35,0,0,1,.08-.12.14.14,0,0,0-.13,0,.13.13,0,0,0-.11.08Zm.08,1c.07,0,.09,0,.05.11h-.08a.15.15,0,0,1,0-.1Zm.05.6s.07,0,.09,0,.07,0,.14,0a.16.16,0,0,0-.22,0Zm.13-2.1c0-.05,0-.08-.08-.08a.07.07,0,0,0,0,.09h0Zm0,1s.05,0,.05,0,0-.06.08,0a.06.06,0,0,0-.05-.07.08.08,0,0,0-.08,0s0,.06,0,.07,0,0,0,.08Zm.11-4.12a.17.17,0,0,0,0-.09s0,0-.08,0,.05,0,.05.07,0,0,.05,0Zm-.08-5s0,0,0,0,0,0,0,0Zm.08,6.85a.26.26,0,0,1,.11.13.32.32,0,0,0,.08.13s0-.06,0-.08a.09.09,0,0,1,0-.08.14.14,0,0,1,.05-.07l.05,0v-.12a.1.1,0,0,0-.14,0Zm0-7a.14.14,0,0,0,.09.05l.14,0-.09-.09-.09-.09s0,.05,0,.05,0,0,0,.06Zm0,9.66s0,0,0,0,0,0,0,0Zm0,.63a.18.18,0,0,0,.11,0s0-.06,0-.09a.14.14,0,0,1-.05.07.14.14,0,0,0-.05.06Zm0-7.24s.06,0,.08,0a.11.11,0,0,1-.08,0ZM65.58,41c.12,0,.18,0,.18-.08s-.12,0-.11-.11h-.08q0,.13,0,.18Zm0-2.83c.05,0,.07,0,.05.09s0,.09.05.09-.06.06-.07,0,0-.07-.07-.07,0-.06,0-.07,0,0,0-.06Zm0,1.76s0,.06,0,.08,0,0,0,.08l.08-.16q-.08-.05-.13,0Zm.11-6c-.05,0-.08.07-.07.11a.25.25,0,0,1,0,.13.15.15,0,0,1,.11,0h.16c0-.07,0-.11.05-.11s0,0,.08.05,0,.05,0,.05,0,0,0,.05a.49.49,0,0,0,.09-.13.5.5,0,0,1,.09-.13s-.06,0-.07,0,0,0-.07,0,0,0,0,.05,0,0,0,.05A.26.26,0,0,0,66,34s0,0,0-.07h-.1c0,.05,0,.08,0,.08a.08.08,0,0,1-.08-.05Zm0-2.94s0,0,0,0,0,0,0,0a.09.09,0,0,0,0,.08.09.09,0,0,1,0,.08c.07,0,.11,0,.13,0a.49.49,0,0,1,0,.13,1,1,0,0,0,0,.16.08.08,0,0,0,.09.08h0a.3.3,0,0,1,.05-.21q-.08-.08,0-.18a.3.3,0,0,0,.09-.18.23.23,0,0,1-.18-.11.34.34,0,0,0-.12-.13c0,.11,0,.16-.08.16s-.05,0-.05-.05,0,0-.05,0-.05.06-.05.08.06,0,.07,0h.07a.05.05,0,0,1,0,.07h0a.08.08,0,0,1-.08,0Zm-.08,9.76c0,.07,0,.1.05.08s0-.06,0-.08,0,0,0-.08,0,.06,0,.07,0,0,0,0Zm.11-3.7a.34.34,0,0,1,.07-.09.34.34,0,0,0,.07-.09s-.05,0-.05,0,0,0-.05,0a.41.41,0,0,0-.08.11s0,.07,0,.1Zm0-3.6a.08.08,0,0,1,0-.05s0,0,0,0,0,0,0,0S65.73,33.45,65.76,33.47ZM66,38.21c-.09-.05-.11-.11-.08-.16s0,0-.07,0a.06.06,0,0,1-.07,0,.14.14,0,0,0,0,.18.13.13,0,0,0,.17,0Zm-.08,2.39s0,0,0,0,0,0,0,0Zm.05-1.6a.09.09,0,0,1,0,.11h-.05s0-.05,0-.05,0,0,0,0ZM66,33.52a.09.09,0,0,0,0-.12h0a.09.09,0,0,1,0-.13h0a.06.06,0,0,1-.07,0s0,0-.07,0a.32.32,0,0,0,.07.14s0,.09,0,.17Zm0,3.2s.06,0,.08-.07a.07.07,0,0,0,0-.09c0,.05,0,.08,0,.09s0,0,0,.07Zm0-2.41H66s0,0-.08,0ZM66,37.53a.21.21,0,0,1,0,.09s0,0,.05.07,0-.06,0-.08,0,0,0-.08v0s0,0,0,0,0,0,0,0ZM66,41s.07,0,.09,0,0-.1,0-.12A.62.62,0,0,1,66,41Zm.11-8.84h-.05s0,.05,0,.05a0,0,0,0,0,.05,0h0Zm.08,4.41s0-.05,0-.05,0,0,0-.05l-.05,0s0,0-.05,0,0,0,0,0a.06.06,0,0,0,0,.09h0Zm0-5.25s-.05,0-.05,0,0,0,.05,0Zm0,7.79h.08s0,.05-.05.05-.06,0,0,0Zm0-1.52a0,0,0,0,0,0,0h0l0,0Zm0,1.23c.07,0,.09,0,.08.11s-.08,0-.08-.09Zm.08-10.36s0,0,0,0,0,0,0,0,0,0,0,.05,0,0,0,0Zm.16,14.59a.5.5,0,0,1,.13-.09.18.18,0,0,0,.08-.18.08.08,0,0,1-.08-.05s0,0-.08.05.08,0,.08,0a.21.21,0,0,1-.13,0,1.75,1.75,0,0,1,0-.29c0-.12,0-.25,0-.37a.54.54,0,0,0-.05.46l.13.42Zm0-14.59a.13.13,0,0,1,.09,0,.07.07,0,0,0,.09,0c0-.09-.06-.15-.18-.18s0,.06,0,.07a.1.1,0,0,0,0,.07Zm.16,14.85s-.06,0-.08,0a.18.18,0,0,1,0,.12.08.08,0,0,0,0,.09.29.29,0,0,0,0-.25.28.28,0,0,0-.18-.18.1.1,0,0,0,.07.11.16.16,0,0,1,.1.12Zm0-15.17s0-.05-.11-.05,0,.06.11.06Zm0-.52v-.11h-.05s0,.06,0,.08,0,0,0,0Zm0,15.43a.15.15,0,0,1,.11,0V43a.09.09,0,0,0-.1,0Zm.05.58h.05s0-.05,0-.05a0,0,0,0,0-.05,0h0Zm.11-.5a.33.33,0,0,1,0,.16c0,.05,0,.09,0,.11a.11.11,0,0,1,.08,0s.05,0,.05-.08-.12,0-.09-.07a.2.2,0,0,1,.14-.12c-.05,0-.08,0-.07,0s0-.06-.07,0,0,.08-.09.12Zm.05-15.43s0,0,.08-.08a.07.07,0,0,0-.08.09Zm.13-.08c0-.05,0-.08-.05-.08s0,.09.06.09Zm.13.24q-.05-.13-.16-.13c0,.13,0,.18.16.14Zm-.12,15.78H67c0-.05,0-.08.07-.07l.12,0s0-.06,0-.07,0,0,0-.07,0,0,0,0,0,0,0,0,0-.06,0-.07,0,0,0-.09-.08,0-.07-.05,0-.08,0-.08A.59.59,0,0,1,66.92,43.65Zm0-15.4a.12.12,0,0,0,.09.07s.06,0,0-.09-.13,0-.13,0Zm.42.05c0-.05,0-.08,0-.08s0,.08,0,.08Zm0,15s0,0,0,0a0,0,0,0,0,.05,0,.09.09,0,0,0-.09,0s0,0,0,.05Zm.05-.21a.15.15,0,0,0,.18,0,.13.13,0,0,0-.07-.12.12.12,0,0,0-.12,0s0,0,0,.05a.08.08,0,0,1,0,.05Zm.26-14.59s.05,0,.05,0,0,0,.05,0,0-.08,0-.09,0,0,0-.09a.1.1,0,0,0-.13,0q-.08,0,0,.17ZM68,43.28s0,0,.05,0,0,0,.05,0-.08,0-.09,0,0,0-.07,0,0,.05.05.1Zm.24-15.22h.08c0-.09,0-.13-.08-.13a.18.18,0,0,0,0,.13Zm.11,15s0,0,0,0,0,0-.05,0a0,0,0,0,0,0,.07,0,0,0,0,0,0,0Zm0,.26c.05,0,.08,0,.08-.05s-.08,0-.08.06Zm.16-.24s0,0,.05,0,0,0,.05,0,0-.09-.05-.08-.09,0-.05.08Zm.08-.16c0,.05,0,.06,0,0s0,0,0,0Zm.26-14.35c.05,0,.1,0,.13-.11s-.06,0-.08,0l-.05-.13q-.08.05-.12,0a.22.22,0,0,0-.12,0,.25.25,0,0,0,.14.11c.06,0,.09.07.09.16Zm0-.52a.09.09,0,0,0,.08,0,0,0,0,0,0,0-.07s0,.05-.07.05,0,0,0,.06Zm.05.26s.09,0,.18,0-.07-.12-.11-.11,0,.05,0,.05,0,0-.06.06Zm.05.08s0,0,0,0,0,0,0,0ZM69,27.14a.13.13,0,0,0,0,.09.11.11,0,0,1,0,.12.06.06,0,0,0,.07,0l0-.09c0-.1-.08-.13-.16-.08Zm.52,1.1s0,0,0,0,0,0,0,0a.06.06,0,0,0-.08,0s0,0,0,0Zm.13-.39c0-.05,0-.09,0-.11s0,.06,0,.07,0,0,0,0Zm2.62,15.61q.13.05.12,0a.25.25,0,0,0-.07-.14.32.32,0,0,1-.05.19Zm2.41-2.18c0-.05,0-.08-.05-.08s0,.08.05.08ZM75,39.95s0,0,.08-.05-.08,0-.08.05ZM75,41.81c.05,0,.08,0,.09,0s0,0-.09,0Zm.08-.21c.05,0,.08,0,.08-.05h-.05s0,0,0,0,0,0,0,0Zm.18-.76s.06,0,.07,0,0-.07,0-.07,0,.05,0,.05,0,0,0,.06Zm.21-2.26c0,.05,0,.1.11.13a.11.11,0,0,0,.11-.05.17.17,0,0,1,.08-.08.08.08,0,0,0-.11,0h0a.15.15,0,0,1-.16,0Zm.39.24a.17.17,0,0,0,0-.07.06.06,0,0,0,0-.07s0,.06,0,.08,0,0,0,.06Zm0-.45a.09.09,0,0,1,0-.12h0q.08,0,0-.09a.15.15,0,0,1-.05.11.06.06,0,0,0,0,.09l0,0Zm.05-.37a.08.08,0,0,1,.07-.09.08.08,0,0,0,.07-.09H76a.11.11,0,0,1-.05.09s0,.06,0,.09Z"/><path class="cls-1" d="M93.92,34.39a1.17,1.17,0,0,1-.72-.08.93.93,0,0,1-.34-.5,4.52,4.52,0,0,1-.24-1.34,12.46,12.46,0,0,1,0-1.42,1.81,1.81,0,0,0,0-.36.62.62,0,0,1,0-.3,2.08,2.08,0,0,0-.08-.31.56.56,0,0,1,0-.29.08.08,0,0,0,0-.05.09.09,0,0,1-.05-.09.16.16,0,0,0-.05-.12,3.87,3.87,0,0,0-.3-.38,1.22,1.22,0,0,0-.46-.2,2.15,2.15,0,0,0-.48-.09l-.48-.07-.81,0q-.53,0-1.13,0H87.52l-1.15,0a1.47,1.47,0,0,0-.7.18,1.52,1.52,0,0,0-.43.42.28.28,0,0,0-.08.21,2.09,2.09,0,0,0,0,.34.85.85,0,0,1-.05.31.37.37,0,0,1,0,.08.36.36,0,0,0,0,.08,2.13,2.13,0,0,0,0,.39.4.4,0,0,1-.07.34s0,.06,0,.08a.85.85,0,0,1,.05.31,2,2,0,0,0,0,.34.52.52,0,0,0,0,.09.54.54,0,0,1,0,.09q0,.39,0,.83a1.25,1.25,0,0,0,.14.7c0,.05,0,.08,0,.07s-.07,0-.07,0,.07,0,.09,0h.09c0,.07,0,.11.08.11a.35.35,0,0,0,.18.26l.21.08.31.07.31,0q.26,0,.72,0a3.78,3.78,0,0,0,.58,0,1.26,1.26,0,0,0,.74-.3,2,2,0,0,0,.26-.43,1.56,1.56,0,0,1,0-.18,1.41,1.41,0,0,0,0-.2,1.17,1.17,0,0,0,0-.18,1.3,1.3,0,0,1,0-.21q0-.29-.08-.72a5.88,5.88,0,0,1-.05-.59q.05-1,1-1a.71.71,0,0,1,.6.21.73.73,0,0,1,.25.41,1.54,1.54,0,0,1,0,.67,7.53,7.53,0,0,0-.09.81,4.36,4.36,0,0,1,0,.47.28.28,0,0,1,0,.11l0,.08a7.81,7.81,0,0,0-.11.88q0,.43-.08.88a3.29,3.29,0,0,0,0,.8,3.36,3.36,0,0,1,0,.8v.05a.07.07,0,0,0,0,.05.2.2,0,0,1,0,.18.46.46,0,0,0,0,.2v.11a.29.29,0,0,0,0,.13s0,.06,0,.07,0,0,0,.07,0,.36.08.56.06.4.08.59,0,.37,0,.52a2,2,0,0,1,0,.37.75.75,0,0,1-.31.38,1.88,1.88,0,0,1-.55.14.79.79,0,0,1-.94-.68,3.07,3.07,0,0,1,0-.81q.05-.52.11-.79a2.93,2.93,0,0,0,0-.8,1,1,0,0,0-.64-.72L87.63,36h-.24a3.08,3.08,0,0,1-.63-.07.89.89,0,0,0-.55,0,.18.18,0,0,1-.09,0H86l-.09,0-.09,0-.28.11a.44.44,0,0,1-.33,0s-.08,0-.13,0a.86.86,0,0,0-.12.2,1.13,1.13,0,0,0-.09.2c0,.07,0,.11.05.13a.08.08,0,0,1,.05.08.16.16,0,0,1,0,.09L84.9,37v.13a.91.91,0,0,1,0,.43,1,1,0,0,0,0,.46.28.28,0,0,1,0,.16.21.21,0,0,0,0,.13q.05.53.05,1.13t-.05,1.15l.05.09a.17.17,0,0,1,0,.09,2.43,2.43,0,0,0,0,.59c0,.13.06.31.09.54a1.11,1.11,0,0,0,.41.77,1.34,1.34,0,0,0,.75.2h1.17a10.74,10.74,0,0,1,1.22.09c.05,0,.08,0,.09,0a.06.06,0,0,1,.07-.05H89.9a10,10,0,0,0,1.17,0,4.65,4.65,0,0,0,1-.2,1.34,1.34,0,0,0,.68-.46,1.84,1.84,0,0,0,.29-.72q.05-.34.08-.79a3.56,3.56,0,0,1,0-.62,5.87,5.87,0,0,0,0-.64c0-.25,0-.54,0-.85a2.53,2.53,0,0,1,.05-.77.72.72,0,0,1,.41-.54,1.58,1.58,0,0,1,.48-.09.83.83,0,0,1,.72.26,1.58,1.58,0,0,1,.25.79q.08,1.25.05,2.57t-.08,2.68a2,2,0,0,1-.18.72.86.86,0,0,1-.54.43,3.13,3.13,0,0,1-1,0,9.13,9.13,0,0,0-1.06-.07h-1l-1.73,0-1.89,0H86a5.52,5.52,0,0,1-1.06-.11,2.3,2.3,0,0,0-1,0l-.14,0h-.14a5.9,5.9,0,0,0-1.63.12,5.15,5.15,0,0,1-1.6.09,1.51,1.51,0,0,1-.87-.29,1,1,0,0,1-.2-.5,1,1,0,0,1,.22-.76.74.74,0,0,1,.61-.25,4.22,4.22,0,0,1,.74.09,2.6,2.6,0,0,0,1,0,1,1,0,0,0,.47-.31,3.86,3.86,0,0,0,.29-.5,2,2,0,0,0,.12-.62q0-.46.05-1.06t0-1.3q0-.69,0-1.34t0-1.17v-.79a7.11,7.11,0,0,0,.08-1.1q0-.6-.05-1.15v0s0-.05,0-.05,0,0,.11,0,0-.08-.05-.07a.06.06,0,0,1-.08,0c0-.05,0-.08,0-.08a0,0,0,0,0,.05,0h0s0,0,0,0-.06,0,0,0q0-.73,0-1.44t0-1.39a5,5,0,0,0-.11-.8,1.64,1.64,0,0,0-.37-.7,1.08,1.08,0,0,0-.41-.28,2.2,2.2,0,0,0-.48-.09l-.75.12a2,2,0,0,1-.7,0,.75.75,0,0,1-.43-.25,1,1,0,0,1-.22-.48,1.07,1.07,0,0,1,.11-.56A.82.82,0,0,1,79.9,27a1.55,1.55,0,0,1,.8-.07,6.12,6.12,0,0,0,.8.07,15.47,15.47,0,0,0,2.11.18q1.06,0,2.11-.07t2,0l2,0q.52,0,1.17,0l1.25-.08q.62,0,1.1,0a2.37,2.37,0,0,1,.7.09,0,0,0,0,0,0,0h0s0,0,0,0,0,0,0,0a3.29,3.29,0,0,1,.29.34l0,0v0l.05.13a.11.11,0,0,1,0,.11s0,.05,0,.05a.57.57,0,0,1,.08.47.89.89,0,0,0,0,.5v.08a.39.39,0,0,0,0,.25.73.73,0,0,1,0,.28q0,.26,0,.54a2.46,2.46,0,0,0,0,.56v.18a4.65,4.65,0,0,0,0,.62q0,.33,0,.64a5.54,5.54,0,0,0,0,.58c0,.18,0,.31,0,.39a1.48,1.48,0,0,1,0,.29v.26a1.38,1.38,0,0,1-.16.7A.67.67,0,0,1,93.92,34.39ZM82.08,28.1c.05,0,.08,0,.08,0S82.07,28.07,82.08,28.1Zm.55,1a0,0,0,0,1,.05,0h0a.11.11,0,0,0,.08,0s0,0,.08,0,0-.07-.08-.07l-.13,0Zm.58,12.67s0,0,0,0a0,0,0,0,1-.05,0s0,0,0,0a0,0,0,0,1,.05,0Zm0-13.25a.11.11,0,0,0,0-.08s0,.07,0,.07Zm.16,14a.11.11,0,0,0-.05-.09.09.09,0,0,0-.11,0,.09.09,0,0,1,.08.05.08.08,0,0,0,.08,0Zm-.11-13.7v.05h.05a.11.11,0,0,0,0-.08,0,0,0,0,1,0,0h0Zm.08,2.1a.15.15,0,0,0-.05-.11q-.05.1.05.1Zm0-2.81v.09a.14.14,0,0,1-.05.09.08.08,0,1,0,.16,0l0,0s0-.06.12,0,0-.11-.05-.11,0,0-.07,0l-.09,0Zm0,3.1c0,.07,0,.08,0,0s0-.07,0,0Zm.11-2.57a.11.11,0,0,1,0-.07.05.05,0,0,0,0,0s0,0,0,0,0,0-.05,0a.18.18,0,0,1,0,.11s0,0,0,0Zm-.05,3.57c0,.05,0,.08.11.08a.21.21,0,0,1,0-.13h-.07Zm.05-3.39q.13,0,.11.08a.16.16,0,0,0,0,.16c-.05,0-.08,0-.09.08a.23.23,0,0,1-.07.11.39.39,0,0,0,.16.05.28.28,0,0,0,.05-.16.18.18,0,0,1,.05-.13c-.05,0-.08,0-.08-.05s0-.09,0-.11a.2.2,0,0,0,.07-.08.29.29,0,0,0-.12-.11c-.06,0-.08,0-.07,0s.06.06,0,.08a.18.18,0,0,0-.08.08Zm0,3s.05,0,.05-.05,0-.08-.05-.08a.18.18,0,0,1,0,.13Zm.05.87c.07,0,.1,0,.08-.05H83.5Zm.08-3.13a.09.09,0,0,1,0,.07.09.09,0,0,0,0,.07.14.14,0,0,1,.13,0s.05,0,.05-.07-.05,0-.05,0,0,0-.05,0-.1-.08,0-.13.05,0,.05,0,0,0,0,0a0,0,0,0,1,0,0h0s0,0-.05,0,0,0,0,0A.07.07,0,0,0,83.58,29.53Zm0,2.62a.14.14,0,0,0,.11-.07s0-.07,0-.09a.2.2,0,0,1-.07.08.09.09,0,0,0,0,.08Zm0-3.62a.12.12,0,0,0,.07-.07l0-.09c-.07,0-.11,0-.11.16Zm0,13.64h.11a.11.11,0,0,0,0-.08s0,0,0,0,0,0,0,0Zm.08-9.52s-.05,0-.05,0,.05,0,.05,0Zm-.05.42c0,.07.06.09.13.07a.14.14,0,0,1,.16,0c0-.09,0-.12-.08-.11a.44.44,0,0,1-.21,0ZM83.9,38c0-.09.09-.13.16-.13a.28.28,0,0,0-.13-.31c-.05,0-.09,0-.11.11a.23.23,0,0,0,0,.16s0,0,.05,0a.06.06,0,0,1,.05.07.09.09,0,0,1-.08.11h0l-.11-.08c0,.07,0,.11,0,.12h.11l.09,0Zm0-5.75s0,0,0,0,0,0,0,0l-.08-.05a.11.11,0,0,0-.08,0,.12.12,0,0,0,.09.14h0Zm-.11,9.63s0,0,0,0a0,0,0,0,1,0-.05h-.05Zm0,.13s0,0,0,0,0,0,0,0Zm.05.37a.1.1,0,0,0,0-.09.06.06,0,0,0-.07-.07.22.22,0,0,1,0,.09.09.09,0,0,0,0,.07Zm0-7.53s0,0,0,0,0,0,0,0Zm0-2.28s0,0,0,0,0,0,0,0,0,0,0,0,0,0,0,0,0,0,0-.05l-.05,0-.05,0Zm.18-.21H84a.06.06,0,0,0-.07,0q.11.06.14,0Zm-.11,1.31a.09.09,0,0,1,0-.09s0,0,0,0a.21.21,0,0,0,0,.14ZM84,38.34,84,38.28s0,0-.07,0a.08.08,0,0,1,.08.05s0,0,.06,0Zm-.13,3.44s0,0,0,0a0,0,0,0,1,0-.05h-.05Zm0-10.63c.07,0,.11,0,.11,0s-.1,0-.1,0Zm.15.87a.11.11,0,0,1,0,.08s0,0,0,0,0-.05,0-.05a.18.18,0,0,0-.08-.08s0-.06,0-.13a.14.14,0,0,1,.16-.11.28.28,0,0,0,.21-.08.16.16,0,0,1-.14,0,.25.25,0,0,0-.14,0,.12.12,0,0,1,0-.12.13.13,0,0,0,0-.12.39.39,0,0,0-.09.31A.32.32,0,0,0,84.1,32ZM84,34.76c0,.07,0,.09,0,.07s0-.06,0-.07Zm.05.31S84,35,84,35a0,0,0,0,0,0,0H84l.06.08Zm0,.05c0,.05,0,.06,0,0s0-.05,0,0Zm0-6.69.09.12a.33.33,0,0,0,.14.12.24.24,0,0,1,0-.11.09.09,0,0,0,0-.11s0,.05-.08.05a.06.06,0,0,1,0-.08.06.06,0,0,0,0-.08l-.05,0s0,0,0,0Zm.11,5.25s0-.05-.11-.05,0,0,.11,0ZM84.1,29.8a.14.14,0,0,1,.09-.05.14.14,0,0,0,.09-.05s-.06,0-.07,0,0,0,0,0a0,0,0,0,1,0,.05h0s0,0,0,0Zm.18-1.55-.05-.05a.12.12,0,0,1-.07.07l-.07,0s.07,0,.09,0,.06,0,.09,0l.08-.05s.05,0,.11,0a.16.16,0,0,1,0-.16s-.06,0-.07,0,0,0-.07,0a.12.12,0,0,1-.07.12ZM84.1,33h.09a.12.12,0,0,1,.09,0c0-.07,0-.09-.08-.07L84.1,33Zm0,.21s.06,0,.08,0,0,0,.05,0h-.08s0,0,0,0Zm.05-1.89c-.05.07-.06.08,0,0s.05-.06,0,0Zm0-1.76a0,0,0,0,0,0,0h0s.05,0,.05,0-.07-.06-.07,0Zm0,1.68a0,0,0,0,0,0,0h0a0,0,0,0,0,0,0h0Zm.08,2.7a.15.15,0,0,0,.13-.08.18.18,0,0,1-.11,0,.07.07,0,0,0-.1,0h0c.06,0,.09,0,.09.1Zm0-.55s0-.05,0-.05l-.05.05s0,0,.07,0Zm0-4.49a0,0,0,0,1,.07,0s0,0,.07,0,0,0-.08-.05,0,0,0,0,0,0,0,0Zm.13.74c-.05-.05-.1-.05-.13,0h.07a.06.06,0,0,0,.07,0Zm-.13,1.55.09,0a.16.16,0,0,0,.09,0,0,0,0,0,1,0-.05h0s0,0,0-.05-.06.08-.12,0-.1,0-.11,0Zm.16.94a.15.15,0,0,1-.05-.11c-.07,0-.11,0-.11,0a.11.11,0,0,1,.09.05s.05,0,.07,0Zm0,.24q-.08-.08-.08,0s0,0,0,0,.06,0,0-.06Zm0-2.07a.06.06,0,0,0,0-.08s0,0-.07,0,0,0,0,0,0,0,0,0Zm.08-1.1s0-.05,0-.05-.07,0-.07,0Zm-.08.16s.06,0,.12,0,.06-.06,0-.09,0,0-.05,0-.05,0-.05,0Zm.11-.39a0,0,0,0,1,0,0h0s0-.05-.11-.05,0,.05,0,.05l.06,0Zm-.05.52v0s.05,0,.05,0,0-.05,0-.05l0,0Zm0,4.17s.05,0,.05,0,0,0,0,0,0-.05,0-.05,0,0,0-.05-.05,0-.05,0,0,0-.05,0,0,.08,0,.09a.06.06,0,0,0-.05.06Zm.24-5.33a.15.15,0,0,1,0-.11s-.06,0-.07,0H84.6s0,.09.11.12Zm.18-.16s.05,0,.05,0,0,0,.05,0a.18.18,0,0,1,0-.08.22.22,0,0,0,0-.08.1.1,0,0,0-.09.07Zm.08.21a.54.54,0,0,1,.29,0,.41.41,0,0,0,.29-.05c0-.05,0-.07-.11-.07a.41.41,0,0,1-.18,0s0,0,0,.05,0,0,0,.05-.11,0-.12,0a.12.12,0,0,0-.07-.08c0,.05,0,.08,0,.09s-.06,0-.06.06Zm.87,6.59h.08s0-.05-.08-.05Zm.87-6.67s-.05,0-.05,0S86.67,28.31,86.7,28.28Zm.21,6.4s0,0,0,0,0,0,0,0,0,0-.05,0,0,0,0,0Zm.13.16a.11.11,0,0,0,0-.08c0,.05,0,.08,0,.08Zm.34.29s0,0,0,0,0,0,0,0Zm.13-7.37s0,0,0,0,.06,0,0,0,0,0,0,0,0,0,0,0,0,0,0,0,0,0,0,0Zm.6,15.61s0,.06,0,.07,0,0,0,.07a.23.23,0,0,1,.12-.07.23.23,0,0,0,.12-.07s-.07,0-.11,0-.08,0-.13,0Zm.31-8.87s0,0,.05,0a.42.42,0,0,0-.08-.11.11.11,0,0,0,0,.08,0,0,0,0,0,0,.05h0Zm0,.26s.08,0,.14,0a.24.24,0,0,0,.12-.13.15.15,0,0,1-.11,0,.11.11,0,0,0-.08,0q.09.1-.08.18Zm.08-.42v0s0,0,0,0,0,.05,0,.05Zm.27,4.14H89c0-.09,0-.12-.11-.09A.43.43,0,0,0,88.75,38.48Zm.34-3.22s0-.06,0-.08a.09.09,0,0,1,0-.08,2.64,2.64,0,0,1,.26-.24c-.09,0-.14,0-.16.05S89.08,35,89,35s0,.05-.08.11a.18.18,0,0,1,.08.08A.4.4,0,0,0,89.09,35.25Zm0,1.65a.47.47,0,0,0,.08.29,1,1,0,0,0-.24.18.13.13,0,0,0,.11.09c.05,0,.08,0,.08.12a.12.12,0,0,0,.11,0l.08-.09a.08.08,0,0,0-.08-.05s0,0,0-.05a.18.18,0,0,1,.08-.08.18.18,0,0,0,.08-.08.66.66,0,0,0-.16-.29ZM89,33.11a1.46,1.46,0,0,0,.34.11.16.16,0,0,0-.09-.11.16.16,0,0,1-.09-.11C89,33,88.94,33,89,33.11Zm0,1.1c.07,0,.11,0,.13-.05s-.13,0-.13,0Zm0,2.62v.08c.09,0,.13,0,.13-.11s-.06,0-.07,0,0,0-.06,0Zm0-4.51a.3.3,0,0,0,.05.29.21.21,0,0,1,.18-.12.29.29,0,0,1,.2,0,.12.12,0,0,0,0-.11.12.12,0,0,1,0-.11.36.36,0,0,1,.07-.09.13.13,0,0,0,0-.09.27.27,0,0,0-.2.18q-.07.13-.26,0Zm.11,6s.05,0,.05,0,0,0,.05,0a.12.12,0,0,0,.07-.07s0,0,.09,0,0-.16-.13-.16,0-.1-.07-.09A.28.28,0,0,1,89,38a.36.36,0,0,0,.09.14s0,.09,0,.16Zm0-4.15a0,0,0,0,1,0,0,0,0,0,0,0,0,0c0-.05,0-.08,0-.08s0,0,0,0S89.11,34.16,89.11,34.18Zm.05.16h.05q0-.08-.05-.05Zm0-3.25h.11s.05,0,.05,0a.11.11,0,0,0-.15,0Zm.21,3q-.11-.05-.05-.12l.08-.12q-.1,0-.14.14c0,.1,0,.12.13.09Zm-.08-1.25s0,0,0,0,0,0,0,0H89.3s0,0,0,0Zm0-1.52s0,0,.08-.05,0,0-.07,0Zm.11,3.52.11,0s.05,0,.05-.09h-.16a.1.1,0,0,0,0,.07s0,0,0,.05Zm.37,3.36.11-.08L90,38c0-.05-.07-.07-.11,0a.18.18,0,0,1-.11,0,.84.84,0,0,1,0-.21.65.65,0,0,0-.05-.24l-.13,0-.05.08s0,.05,0,.11.08,0,.09,0l0,.09a.16.16,0,0,1,0,.09.16.16,0,0,0,0,.09.22.22,0,0,0,.18,0,.24.24,0,0,1,0,.15Zm-.13.16h-.11c0,.07,0,.09,0,.07s.08-.06.08-.08Zm-.11-3.91c0,.07,0,.08,0,0s0-.07,0,0Zm0,2.65s.06,0,.07,0a.14.14,0,0,1,.07-.05c0-.09-.09-.13-.16-.13a.38.38,0,0,0,0,.13.18.18,0,0,1,0,.07Zm.08-5.75s0,0,0,0a0,0,0,0,1,0,0h0Zm0,.87s0,0,.08.05a.07.07,0,0,1,0-.1h0s0-.07,0-.11a.19.19,0,0,1,0,.15Zm.08,3.91a.21.21,0,0,0,0,.09.09.09,0,0,1,0,.07.15.15,0,0,0,.14,0s.07,0,.12,0,0-.16-.11-.16a.15.15,0,0,1-.1,0Zm0-4.17s0,0,0,0,0,0,0,0Zm0,2.76a.23.23,0,0,0,.24-.18.38.38,0,0,0-.23.17Zm.05-1c0,.05,0,.08.05.08s0-.06,0-.07a.14.14,0,0,0,.05-.07s-.06,0-.07,0l0,0Zm.11-2.15s0,0,.08,0,.05,0,.05,0-.16-.05-.13-.16-.11,0-.11.05l.08,0s.05,0,0,.08Zm-.11.29c0,.05,0,.06,0,0s0-.06,0,0Zm.13.42s-.05,0-.05,0a.08.08,0,0,0,.06,0ZM90,39.31l.11-.05a.13.13,0,0,1,.13,0,.14.14,0,0,0-.05-.12L90,39.08a.16.16,0,0,0-.05.12.27.27,0,0,1,0,.1Zm.05-.87a.24.24,0,0,0,.21.05c0-.09,0-.13-.08-.12a.24.24,0,0,0-.12.05Zm0,1.13h.08s.05,0,.05,0-.12,0-.12,0Zm.13-6.67s0-.05,0-.05a.09.09,0,0,1-.07,0s0,.06.12.06Zm.13-4.36a.06.06,0,0,0,.08,0s0,0,0,0Zm.34-.39v-.08l-.05.05s.06,0,.06,0Zm0,.26c.07,0,.11-.06.11-.08l-.08,0s0,0,0,0Zm.52.13a.07.07,0,0,1,.08.08s0,0,0,0,0,0,.05,0,0-.05,0-.05,0,0,0-.05a.09.09,0,0,1,.07,0,.09.09,0,0,0,.07,0v-.08h-.13a.13.13,0,0,1,0,.09Zm.64,15.18a.07.07,0,0,1,0-.05.08.08,0,0,0,0-.05.12.12,0,0,0,0,.09S91.76,43.75,91.79,43.73Zm.52-15.48a.21.21,0,0,0,0-.13.23.23,0,0,1,0,.11S92.26,28.27,92.32,28.25Zm.05.42h.16s.06,0,.08.11a.12.12,0,0,0,0-.12.59.59,0,0,1,0-.12l-.08,0s0,0-.08,0a.09.09,0,0,1,0,.08l-.06.05Zm.11-.45h-.05a0,0,0,0,0,0,0h0s0,0,0,0S92.49,28.24,92.47,28.22Zm.13.79c0-.05,0-.08,0-.08h-.12q0,.13.16.08Zm-.05-.87a.09.09,0,0,0,0-.08s0,0,0,0a0,0,0,0,1,0,0h0s0,0,.05,0Zm.11.26a.05.05,0,0,1,0,0,.1.1,0,0,0,0-.07l-.07,0s0,0,0,0,0,0,0,.07,0,0,0,0ZM93,32.84c.05,0,.1,0,.13.05a.61.61,0,0,0-.11.16c0,.07-.08.07-.13,0q-.13.13.05.21a.26.26,0,0,1,.32-.18h0a.58.58,0,0,0,.11-.24c-.07,0-.11,0-.12.05a.12.12,0,0,1-.09.08s0,0,0,0,0,0,0,0a.09.09,0,0,1,0-.11c-.05,0-.08,0-.09,0s0,0-.09,0Zm-.16,10.58c.05,0,.07.08,0,.12s0,.07.07.07,0-.08,0-.09,0,0,0-.07a.62.62,0,0,1,.21-.13l.13-.05a.29.29,0,0,0-.24,0l-.18.11ZM92.92,33s0-.05,0-.05,0,.05,0,.05Zm.24-4.07c.05,0,.08,0,.08.05l-.08.08c-.05,0-.09,0-.11,0A.05.05,0,0,0,93,29h0a.06.06,0,0,0,.05.07s0,0,0,.07a.2.2,0,0,1-.05.08.21.21,0,0,1,0,.09s0,0,.05.07,0-.18.12-.2.15.06.12.2a.12.12,0,0,1-.09,0,.06.06,0,0,0-.07,0,0,0,0,0,1,0,0h0s0,0,.05,0a.2.2,0,0,1,.07-.08.2.2,0,0,0,.07-.08q-.05-.18-.11-.21a.3.3,0,0,0,0-.31s0,.05,0,.05,0,0-.05.05Zm-.13,0c.07,0,.11,0,.11-.05a.12.12,0,0,1-.09,0s0,0,0,0Zm.08,4.91s.06,0,.08,0,0,0,.08,0a.12.12,0,0,0,0-.13.12.12,0,0,1,0-.13.14.14,0,0,1-.12,0,.21.21,0,0,0-.12,0,.92.92,0,0,0,0,.26Zm.13-3.62s-.05,0-.05,0,.05,0,.05,0Zm.05-.16c0-.07,0-.09-.05-.08s0,0,.05.08Zm0-.39s0,0,0,0,0,0,0,0Zm.13.6,0-.05h-.11s0,.06.08.06Zm-.05,3.36s0,0,0,0,0,0,.05,0v-.08c-.05,0-.08,0-.08.06Zm.05-.89a0,0,0,0,1,0,0h.05c0-.05,0-.08,0-.08Zm0-2.62a.16.16,0,0,1,.16,0s0-.05,0-.05l.05,0s0,0,0-.05a.25.25,0,0,0-.21.11Zm.24-1.79c-.07,0-.1,0-.08,0s0,0,.08,0Zm-.08.58s0,0,0,0,0,0,0,0Zm.08,4.07a.11.11,0,0,0,0-.08.11.11,0,0,0,0,.09Zm.11-4.41c.09,0,.11-.05.05-.05s-.07,0-.05.06Zm.08,4.75,0,0a.05.05,0,0,1,0,0,.05.05,0,0,0,0,0h-.05Zm.11-.63s0,0,0,0,0,0-.05,0a0,0,0,0,0,0,.07s0,0,0,0Zm0-4.43a0,0,0,0,0,0-.05h0a0,0,0,0,0,0,.06h0Zm.11,4.41s0,0,0,0,0,0,0,0Zm.24,9.63s0,.06,0,.07l.08.07a.09.09,0,0,0,0-.11s0-.07,0-.11-.06,0-.07,0a.14.14,0,0,1-.07.06Z"/></g></g></g></g></svg>