<svg xmlns="http://www.w3.org/2000/svg" viewBox="0 0 95 61"><defs><style>.cls-1{fill:#405c89;}.cls-2{fill:#998675;}</style></defs><title>NID_Logo_Mobile</title><g id="Layer_2" data-name="Layer 2"><g id="Layer_1-2" data-name="Layer 1"><g id="Layer_2-2" data-name="Layer 2"><g id="Layer_1-2-2" data-name="Layer 1-2"><path class="cls-1" d="M19.11,23.21a12.29,12.29,0,0,1-3.91,2.08,20,20,0,0,0,4.18-4.15c.72-1,3.4-3,5.49-4.62.47-.37.93-.72,1.4-1.08a12.58,12.58,0,0,0,2.77-3.52,9.28,9.28,0,0,1,1.23-1.6.7.7,0,0,1,.7-.18c.33.12,1,1,1.3,1.38a7.19,7.19,0,0,0,2.51,1.9,17.86,17.86,0,0,1,4.53,1.82l-2.42,2.39c-.8-1.71-2.43-.56-3.45-2.56a6.19,6.19,0,0,1-.81,2,4.44,4.44,0,0,0-.34-1.22,6,6,0,0,1-1.13,2.34c-.15-1,.11-2.43-.45-3-.42,1.77-2.57,2.53-2.64,4-.56-.49-.36-1.53.27-2.85-.94,1.08-2.42,1.95-2.81,3.26a1.57,1.57,0,0,1-.24-.75,4.92,4.92,0,0,0-.93,1.9,3.55,3.55,0,0,1-.27-1.49,6,6,0,0,0-1.3,2.33,2.42,2.42,0,0,1-.24-.85,5.63,5.63,0,0,0-1.1,1.63,4.79,4.79,0,0,0-2.33,1.8A2.06,2.06,0,0,1,19.11,23.21Z"/><path class="cls-1" d="M34.23,20.67c-1.66.8-3.27,2.43-5,2.85,1.63-.93,2.45-2.54,3.67-3.81l-1.47.51c1.91-1.49,4-2.13,5.67-3.58a10.57,10.57,0,0,0,2.41-3,20.15,20.15,0,0,1,2-3.69A18.25,18.25,0,0,0,43.38,8.1c.63-.79,4.54-5.89,6-7.55.25-.28.54-.72,1-.46a4.24,4.24,0,0,1,.8,1c.67,1,1.23,1.6,1.94,2.48a7.62,7.62,0,0,1,.73,1.08,3.17,3.17,0,0,0,1.21,1.44,11.94,11.94,0,0,1,2.17,2.44c.54.79,1,1.64,1.51,2.44a25.89,25.89,0,0,0,3.43,4.11,8,8,0,0,0,1.9,1.64c1,.51,1,.24,1.87,1.2C67.18,19.31,68,21.1,70,23c-2.1-.9-3.59-2.89-6.31-2.69a3.92,3.92,0,0,1,1.82-.61A4.74,4.74,0,0,0,63,18.78,7.72,7.72,0,0,0,58.51,16a3.69,3.69,0,0,1,1.3-.54c-.89-.63-2.18-.89-2.71-1.9a1.93,1.93,0,0,0,1.13,0,20.69,20.69,0,0,0-2.86-4.44c-.28.28,0,1.31-.28,1.59-1.09-2.15-2.1-.6-1,1.22a.65.65,0,0,0-.51,0c-.55.33-.13,2,.51,2.3a4.32,4.32,0,0,0,.69,2.52,1.37,1.37,0,0,1-.55-.24,15.9,15.9,0,0,0,.23,1.58c-1-1.8-1.43-4.28-3-5.73a1.67,1.67,0,0,1,.38,0,1.91,1.91,0,0,0-.67-.66,1.75,1.75,0,0,1,1,.26c.08-.9-1.18-4.15-1.47-.92-.21-.4-.57,0-.58.58-.18-.83-.55-.88-.94-.63a4.79,4.79,0,0,0-1.56,4.61,4.41,4.41,0,0,0-2,3.19,8.51,8.51,0,0,0-1.92,1.63c1-1.71,1.29-3.13,2.16-4.55a4.84,4.84,0,0,1-.86.31c1-1.23,1.37-2.2,1.1-2.82.29-.74,0-.68-.36-.41.54-1.28-.18-1.35-.51-.75.11-.37-.23-.54-.54-.41s-.53.69-.77,1c-.62.75-1.49,1.3-1.73,2.48a3.15,3.15,0,0,1,0-1.53c-.73,1.57-2.72,2.88-2.64,4.55a9.41,9.41,0,0,0-5.69,3.09A1.87,1.87,0,0,1,34.23,20.67Z"/><path class="cls-1" d="M62.28,15.9l-1.89-2a14.28,14.28,0,0,1,2.19-2.32c.83-.68.57-.58,1.12-1.38a4.07,4.07,0,0,1,2.1-1.57c.66-.08.74.4,1,.85A6.11,6.11,0,0,0,68.16,11,23.12,23.12,0,0,1,71,13.93a14.69,14.69,0,0,0,2.49,2.71c1.13,1,2.86,1.73,3.65,2.83,2.21,3.13,1.46,3,5.78,5.82-.93-.33-1.83-.62-2.3-.38-1.16-1.22-2-1.59-2.68-1.36a3.57,3.57,0,0,0-2.29-2.27,2.78,2.78,0,0,1,0,1.15,8,8,0,0,0-4.88-4.25,8.19,8.19,0,0,1,2.16.21c-.38-.74-1.49-1-2.23-1.49a3.69,3.69,0,0,0,.69,0,9.64,9.64,0,0,0-2.29-2.27,4.64,4.64,0,0,0,0,1.32,6.3,6.3,0,0,1-1.63-1.62,7.59,7.59,0,0,1,0,3.21,17.55,17.55,0,0,0-1.6-3.9,3.61,3.61,0,0,1-.27,1.08,3.34,3.34,0,0,0-.76-.48,9,9,0,0,1,0,1.67,11.8,11.8,0,0,0-1-1.86A7.64,7.64,0,0,0,62.28,15.9Z"/><path class="cls-1" d="M7,55H7.8v4.43H7Z"/><path class="cls-1" d="M12.11,55h.82v4.43h-.8l-2.26-3v3H9V55h.8L12.11,58Z"/><path class="cls-1" d="M13.67,55h3.59v.75H15.89v3.67H15V55.71H13.67Z"/><path class="cls-1" d="M18,55h3.22v.74H18.86v1.09H21v.74H18.86v1.11h2.46v.74H18Z"/><path class="cls-1" d="M25.09,59.39l-.75-1.31H23.18v1.3h-.84V55h1.84a2,2,0,0,1,1.32.4A1.4,1.4,0,0,1,26,56.48a1.67,1.67,0,0,1-.22.89,1.37,1.37,0,0,1-.65.55l1,1.47Zm-1.91-2h1a1.12,1.12,0,0,0,.73-.21.76.76,0,0,0,.25-.62.73.73,0,0,0-.25-.61,1.14,1.14,0,0,0-.73-.2h-1Z"/><path class="cls-1" d="M27,55h.84v4.43H27Z"/><path class="cls-1" d="M32.31,55.2a2.27,2.27,0,0,1,.87,3.08l0,0a2.25,2.25,0,0,1-.85.83,2.49,2.49,0,0,1-2.38,0,2.26,2.26,0,0,1-.08-3.9l.08,0A2.54,2.54,0,0,1,32.31,55.2Zm-1.93.66a1.52,1.52,0,0,0,0,2.62,1.44,1.44,0,0,0,.75.2,1.41,1.41,0,0,0,.74-.2,1.48,1.48,0,0,0,.54-.55,1.56,1.56,0,0,0,0-1.53,1.46,1.46,0,0,0-.54-.54,1.43,1.43,0,0,0-.74-.2,1.47,1.47,0,0,0-.76.2Z"/><path class="cls-1" d="M37.12,59.39l-.76-1.31H35.2v1.3h-.85V55H36.2a2,2,0,0,1,1.32.4A1.4,1.4,0,0,1,38,56.48a1.67,1.67,0,0,1-.22.89,1.37,1.37,0,0,1-.65.55l1,1.47Zm-1.91-2h1a1.12,1.12,0,0,0,.73-.21.76.76,0,0,0,.25-.62.73.73,0,0,0-.25-.61,1.14,1.14,0,0,0-.73-.2h-1Z"/><path class="cls-1" d="M41.14,55.78a2.09,2.09,0,0,0-.63-.11.88.88,0,0,0-.48.11.36.36,0,0,0-.18.32.42.42,0,0,0,.12.31,1,1,0,0,0,.31.2,4.81,4.81,0,0,0,.51.18,5.58,5.58,0,0,1,.73.27,1.31,1.31,0,0,1,.49.39,1.08,1.08,0,0,1,.2.68,1.17,1.17,0,0,1-.22.71,1.36,1.36,0,0,1-.6.46,2.25,2.25,0,0,1-.87.16,2.73,2.73,0,0,1-1-.19,2.86,2.86,0,0,1-.86-.51L39,58a2.58,2.58,0,0,0,.75.49,2,2,0,0,0,.77.18,1,1,0,0,0,.55-.14.45.45,0,0,0,.13-.62l-.05-.06a.91.91,0,0,0-.31-.2l-.52-.17a6,6,0,0,1-.73-.26,1.27,1.27,0,0,1-.48-.38,1.06,1.06,0,0,1-.2-.67,1.13,1.13,0,0,1,.2-.67,1.31,1.31,0,0,1,.59-.46,2.2,2.2,0,0,1,.86-.16,2.9,2.9,0,0,1,.85.13,2.86,2.86,0,0,1,.75.34l-.34.74A3.2,3.2,0,0,0,41.14,55.78Z"/><path class="cls-1" d="M66.25,55.24a2.06,2.06,0,0,1,.82.79,2.23,2.23,0,0,1,.3,1.14,2.19,2.19,0,0,1-.3,1.14,2.1,2.1,0,0,1-.83.79,2.49,2.49,0,0,1-1.2.28h-1.8V55h1.83A2.45,2.45,0,0,1,66.25,55.24Zm-.44,3.21a1.32,1.32,0,0,0,.51-.52,1.64,1.64,0,0,0,0-1.52,1.34,1.34,0,0,0-.52-.53,1.48,1.48,0,0,0-.74-.18h-1v2.93h1A1.43,1.43,0,0,0,65.82,58.45Z"/><path class="cls-1" d="M68.26,55h3.22v.74H69.1v1.09h2.14v.74H69.1v1.11h2.46v.74h-3.3Z"/><path class="cls-1" d="M74.65,55.78a2.09,2.09,0,0,0-.63-.11.88.88,0,0,0-.48.11.36.36,0,0,0-.18.32.42.42,0,0,0,.12.31,1,1,0,0,0,.31.2,4.81,4.81,0,0,0,.51.18A5.58,5.58,0,0,1,75,57a1.31,1.31,0,0,1,.49.39,1.08,1.08,0,0,1,.2.68,1.17,1.17,0,0,1-.21.7,1.36,1.36,0,0,1-.6.46,2.25,2.25,0,0,1-.87.16,2.73,2.73,0,0,1-1-.19,2.86,2.86,0,0,1-.86-.51l.36-.72a2.58,2.58,0,0,0,.75.49,2,2,0,0,0,.77.18,1,1,0,0,0,.55-.14.45.45,0,0,0,.13-.62l-.05-.06a.91.91,0,0,0-.31-.2l-.52-.17a6,6,0,0,1-.73-.26,1.27,1.27,0,0,1-.49-.39,1.06,1.06,0,0,1-.2-.67,1.13,1.13,0,0,1,.2-.67,1.31,1.31,0,0,1,.58-.45,2.2,2.2,0,0,1,.86-.16,2.9,2.9,0,0,1,.85.13,2.86,2.86,0,0,1,.75.34l-.34.74A3.2,3.2,0,0,0,74.65,55.78Z"/><path class="cls-1" d="M76.68,55h.84v4.43h-.84Z"/><path class="cls-1" d="M81.75,57.19h.74v1.68a3,3,0,0,1-.82.42,2.85,2.85,0,0,1-.93.16,2.34,2.34,0,0,1-1.18-.3,2.26,2.26,0,0,1-.84-.83,2.22,2.22,0,0,1-.31-1.15A2.16,2.16,0,0,1,78.73,56a2.27,2.27,0,0,1,.86-.81,2.45,2.45,0,0,1,1.2-.3,2.66,2.66,0,0,1,.93.17,2.47,2.47,0,0,1,.79.47l-.48.63a1.81,1.81,0,0,0-.58-.37,1.77,1.77,0,0,0-.66-.13A1.51,1.51,0,0,0,80,58.48a1.49,1.49,0,0,0,.77.2,1.68,1.68,0,0,0,.47-.07,2.09,2.09,0,0,0,.48-.21Z"/><path class="cls-1" d="M86.69,55h.81v4.43h-.8l-2.26-3v3h-.82V55h.8L86.68,58Z"/><path class="cls-1" d="M51.6,56a1.9,1.9,0,0,0,.79-.6,1.46,1.46,0,0,0,.25-.86,1.23,1.23,0,0,0-.28-.84,1,1,0,0,0-.76-.31.92.92,0,0,0-.7.3,1,1,0,0,0-.28.74,1.4,1.4,0,0,0,.22.74A4,4,0,0,0,51.6,56Z"/><path class="cls-1" d="M50.41,57.24a1.42,1.42,0,0,0-.2.74,1.71,1.71,0,0,0,.44,1.2,1.45,1.45,0,0,0,1.11.47,1.89,1.89,0,0,0,.77-.16,2.47,2.47,0,0,0,.7-.48L51,56.61A2.08,2.08,0,0,0,50.41,57.24Z"/><path class="cls-1" d="M58.62,55.8l-1.72-1.44V51.13a.24.24,0,0,0-.23-.25H55.13a.24.24,0,0,0-.25.23s0,0,0,0v1.54L53,51.06a1,1,0,0,0-1.2,0L46.11,55.8A.23.23,0,0,0,46,56a.26.26,0,0,0,.06.18l.49.58a.27.27,0,0,0,.16.09.29.29,0,0,0,.19-.06l.91-.76v4.5a.51.51,0,0,0,.5.51h8.05a.51.51,0,0,0,.5-.51V56l.91.77a.24.24,0,0,0,.16.06h0a.27.27,0,0,0,.16-.09l.49-.58A.26.26,0,0,0,58.7,56,.23.23,0,0,0,58.62,55.8Zm-2.72,4.37H54v-.25l-.47-.54a4.27,4.27,0,0,1-1,.69,2.49,2.49,0,0,1-1,.23,2.26,2.26,0,0,1-1.61-.6,2,2,0,0,1-.64-1.5,1.83,1.83,0,0,1,.35-1.11,2.55,2.55,0,0,1,1-.79,3.66,3.66,0,0,1-.66-.84,1.67,1.67,0,0,1,.35-2,1.94,1.94,0,0,1,1.37-.51,1.89,1.89,0,0,1,1.31.45,1.46,1.46,0,0,1,.5,1.14,1.6,1.6,0,0,1-.36,1,3.38,3.38,0,0,1-1.18.82l1.81,2a4.69,4.69,0,0,0,.4-.67,2.41,2.41,0,0,0,.2-.58l-.19-.2-.58-.08V56.4h2.15v.42l-.76.1a6.11,6.11,0,0,1-.37,1,5.29,5.29,0,0,1-.51.84l.82,1,1,.05Z"/><path class="cls-2" d="M4.29,31.9c0-.05,0-.08-.07-.08a.16.16,0,0,1-.12-.05.2.2,0,0,0,0,.08.2.2,0,0,1,0,.08L4,31.88s0,0-.08,0L3.85,32l-.05.11s0,0,0,0,0-.05,0-.05a.18.18,0,0,1,.13.21q-.11,0-.13,0l-.08-.08a.16.16,0,0,0,.07.21h.06l.31.09q0,.21-.16.24t-.15.21A.49.49,0,0,1,3.8,33a.5.5,0,0,0-.13.09.28.28,0,0,1,.18.2,3,3,0,0,1,.07.3c-.09,0-.14,0-.16,0l-.13.08a1.1,1.1,0,0,1,.09.18.23.23,0,0,1,0,.2l.12-.11s.1,0,.18,0,0-.06,0-.08,0,0,0-.08a.11.11,0,0,0,.11,0,.18.18,0,0,1,.13,0q.08-.13,0-.18t-.05-.21a.19.19,0,0,1,.27,0l0,0a1.13,1.13,0,0,0,.45-.18,1.19,1.19,0,0,1,.39-.18c.07,0,.11.08.11.12a.41.41,0,0,1-.05.18v.08a1.41,1.41,0,0,1,.08.29.21.21,0,0,1-.11.24s0,0,.05,0,.05,0,.05,0,0,.27,0,.38a1.2,1.2,0,0,0,0,.38A.18.18,0,0,1,5.4,35v.05a.16.16,0,0,1,0,.11v.05a.08.08,0,0,0,0,.05q0,.45,0,.72v3.27q0,.63,0,1.16t0,.79a3.37,3.37,0,0,0,.16,1.2,1.28,1.28,0,0,0,.47.59l.09.07.09,0a1.07,1.07,0,0,0,.46.09H7.1a2.94,2.94,0,0,0,.51,0,2,2,0,0,1,.51,0,.8.8,0,0,1,.64.29,1.08,1.08,0,0,1,.07.86.72.72,0,0,1-.51.5,1.71,1.71,0,0,1-.77.08q-.92-.11-1.69-.22a8.63,8.63,0,0,0-1.59-.09,6.35,6.35,0,0,0-.79.05l-.79.08-.84.12a3.74,3.74,0,0,1-1.14,0,1.05,1.05,0,0,1-.46-.22A.79.79,0,0,1,0,44.09a.76.76,0,0,1,.2-.72,1,1,0,0,1,.54-.22,1.6,1.6,0,0,1,.41,0l.41.05a8.49,8.49,0,0,0,.89,0,1.07,1.07,0,0,0,.65-.33,2.19,2.19,0,0,0,.14-.29,3.25,3.25,0,0,0,.12-.34,2.23,2.23,0,0,0,.05-.37q0-.18,0-1t0-1.86V30.85q0-.26,0-.49c0-.15,0-.26,0-.33A2.28,2.28,0,0,0,3,29a1,1,0,0,0-1-.37l-.54.08a2.77,2.77,0,0,1-.52.05,1.51,1.51,0,0,1-.46-.07.64.64,0,0,1-.34-.25c0-.05,0-.09,0-.11a.2.2,0,0,0,.07-.11s-.05,0-.05,0,0,0-.05,0a.57.57,0,0,0,0-.28.52.52,0,0,1,0-.31.08.08,0,0,1,0-.05l.05-.05a1.8,1.8,0,0,0,.18-.25,1.79,1.79,0,0,1,.18-.25.11.11,0,0,0,.08,0H.68A2.46,2.46,0,0,1,1.4,27l.7.07.7.09a2.37,2.37,0,0,0,.72,0h.13a.42.42,0,0,0,.28,0,.42.42,0,0,1,.28,0,.21.21,0,0,0,.13,0l.24-.05.24,0h0l.07,0,.07,0a.13.13,0,0,1,.09,0h.22a.15.15,0,0,0,.11,0A3.33,3.33,0,0,1,6,27a1.37,1.37,0,0,1,.67.16,1,1,0,0,1,.31.4q.1.24.2.49l.18.49a1.2,1.2,0,0,0,.28.42s0,0,0,0,0,0,0,0a.07.07,0,0,0,0,.05l.05.13.05.11a.18.18,0,0,0,.05.13l.05.09.05.09.55,1.15.92,1.93L10.55,35q.59,1.21,1.1,2.31l.91,1.93.55,1.15c.07.16.16.36.28.58s.23.46.36.7.24.47.34.7l.26.58h0c0-.14,0-.31,0-.51a1.48,1.48,0,0,1,0-.41V42a0,0,0,0,1,0,0h0q0-.29,0-.61a1.88,1.88,0,0,0,0-.55v-.08l.08-.16v-.11a1.27,1.27,0,0,1,0-.45.71.71,0,0,0-.05-.4.07.07,0,0,1,0-.05v0a6.13,6.13,0,0,0,0-1.26,7.72,7.72,0,0,1,0-1.28c0-.07,0-.1.05-.08a.85.85,0,0,1-.05-.21V33.75q0-.95,0-1.89t0-1.57a2.17,2.17,0,0,0-.23-1,1.08,1.08,0,0,0-.84-.63,2,2,0,0,0-.52,0l-.5.08a1.15,1.15,0,0,1-.26,0h-.31a.93.93,0,0,1-.54-.29.76.76,0,0,1-.2-.61.87.87,0,0,1,.33-.72,1.25,1.25,0,0,1,.8-.18,4.17,4.17,0,0,1,.87.08,8.1,8.1,0,0,0,1,.13h.31l.46,0h.91a4.35,4.35,0,0,0,.63,0l.66-.07.75-.13a2.56,2.56,0,0,1,.83,0,2.6,2.6,0,0,1,.54.16q.25.11.36.63t-.22.72a1.63,1.63,0,0,1-.56.25,3,3,0,0,1-.46,0h-.52a1.24,1.24,0,0,0-.87.29,1.84,1.84,0,0,0-.29.74,8.89,8.89,0,0,0-.05,1v1.21l0,.05-.05.13a.59.59,0,0,0,0,.18.08.08,0,0,1-.05.08.08.08,0,0,0-.05.08c0,.05,0,.07,0,0s0,0,.07,0a3.45,3.45,0,0,1,.05.55,4.65,4.65,0,0,0,0,.58.09.09,0,0,1,0,.08.19.19,0,0,0-.07.08V34q.08.77.12,1.6a10.26,10.26,0,0,1,0,1.57v.13a3.89,3.89,0,0,1,0,1.06,2.39,2.39,0,0,0,0,1v.11l.05,1a4.14,4.14,0,0,1-.05.94v1.35a3.67,3.67,0,0,1-.13,1,3.26,3.26,0,0,1-.28.71,1.32,1.32,0,0,1-.75.59,2,2,0,0,1-.74.11,1.62,1.62,0,0,1-.56-.15,2,2,0,0,1-.45-.29l-.36-.33a4.19,4.19,0,0,1-.41-.58,7.11,7.11,0,0,1-.38-.72l-.51-1.08-.88-1.82L9.84,38.09,8.82,36,8,34.29l-.42-.86a.48.48,0,0,0-.07-.15.08.08,0,0,1,0-.11h0l0-.05-.05,0-.05,0a1.39,1.39,0,0,1,0-.32s0,0,0,0a.06.06,0,0,1-.07,0,0,0,0,0,1-.05,0h0a.54.54,0,0,0-.2-.36.38.38,0,0,1-.14-.36v-.05c-.05-.12-.14-.3-.26-.54s-.25-.49-.37-.75-.25-.51-.37-.75a5.52,5.52,0,0,1-.26-.57,1.39,1.39,0,0,1-.08-.18A.36.36,0,0,0,5.44,29s0,0,0,0,0,0,0,0,0,.19,0,.36a1.67,1.67,0,0,1,0,.38.11.11,0,0,0,0,.08,1.75,1.75,0,0,0,0,.29.71.71,0,0,1-.05.26s0,0,0,.08q0,.32.09.7a2.28,2.28,0,0,1,0,.8s0,.05.05.11,0,0,0,0,0,0,0,0a.34.34,0,0,0,0,.32v.08a.42.42,0,0,0,0,.33.35.35,0,0,1,0,.3A.17.17,0,0,1,5.24,33a.33.33,0,0,0-.08-.13c.09-.12.11-.22.07-.3a.4.4,0,0,1,0-.33s-.05,0-.05,0a.11.11,0,0,1,0,.08l-.22,0a.23.23,0,0,0-.18.05l.08,0s0,0,0,.11,0,0,0,0,0,0-.05,0-.08,0,0-.13-.12,0-.16,0a.09.09,0,0,1-.1,0c-.05,0-.07,0-.05,0a.13.13,0,0,0,0-.07.31.31,0,0,1-.13-.05.21.21,0,0,0-.13,0,.41.41,0,0,0-.11-.12.1.1,0,0,1,0-.14h0a.13.13,0,0,1,.11-.07A.14.14,0,0,1,4.29,31.9ZM.43,28.16s0,0-.07,0l-.09,0a.12.12,0,0,1,0,.13.06.06,0,0,0,0,.09l0,0c.07,0,.1,0,.08-.07a.14.14,0,0,1,0-.12.2.2,0,0,0,.13,0c.05-.09,0-.15,0-.18s0,0,0,0S.44,28.13.43,28.16Zm1.34.05a.06.06,0,0,0,.07,0s0,0,.09,0a.28.28,0,0,0,0-.16H1.79A.55.55,0,0,1,1.77,28.21Zm.39,16.25s0,0,0,0a0,0,0,0,0,0-.05h0s0,.05,0,.05Zm1.42-2.9s.05,0,.05,0H3.58Zm.05.34s.05,0,.05,0,0,0,.05,0,0,0,0-.13-.06,0-.07,0l-.06.08Zm.05-5.76q.16.05.16-.16a.11.11,0,0,0-.16,0A.11.11,0,0,0,3.68,36.14Zm.08-1.37a.12.12,0,0,1,.11,0l.08.09A.2.2,0,0,1,4,34.83l.09-.08-.18-.05a.13.13,0,0,0-.16.08h0Zm.13,7.28s-.06,0-.07,0H3.76a0,0,0,0,0,0,.05h0a.11.11,0,0,0,.08,0Zm-.08,1.26v.05s.05,0,.05,0,0-.05,0-.05a0,0,0,0,1,0,0,0,0,0,0,1,0,0h0Zm.05-6.46.07-.08s0,0,.07,0,0,.11.05.12a.11.11,0,0,0,.11,0c-.05,0-.08,0-.08-.08a.24.24,0,0,0,0-.11l-.16.08a.08.08,0,0,0,0,.15Zm0,4.35a.07.07,0,0,1,.09,0s0,0,0,0,0,0,0,0a.06.06,0,0,0,0-.07s0,.05,0,.05,0,0,0,.07Zm0,.95a.46.46,0,0,0,.12.16.59.59,0,0,1,.12.13.11.11,0,0,1,.12,0,.07.07,0,0,0,.09,0q0-.08,0-.08s0,0-.05-.08a.11.11,0,0,0-.08,0s0,0-.08,0A.18.18,0,0,0,4,42.25s0-.05,0-.11a.15.15,0,0,0,.11,0c-.05,0-.09,0-.12,0a.16.16,0,0,1-.12.06Zm0-6.33a.3.3,0,0,1,0,.21.15.15,0,0,0,.11,0,.48.48,0,0,1,0-.26.15.15,0,0,0-.11,0ZM4,37.3a.33.33,0,0,0,.16-.08l.11-.11H4.17a.06.06,0,0,1-.07,0V37S4,37,4,36.94s-.06,0-.09,0a.17.17,0,0,1,.08.15Zm0-3.17H4a0,0,0,0,1,0,0s0,0,0,0Zm0-2.88c.07,0,.11,0,.11-.08s-.11,0-.11.1Zm.05,9.4s.05,0,.05,0a0,0,0,0,0,0-.05h0s0,0,0,0S4.08,40.63,4.1,40.66Zm.16-4.3a.11.11,0,0,1-.11.05c-.05,0-.07,0-.05.11q.05-.13.14-.08a.25.25,0,0,0,.22,0,.22.22,0,0,1,0,.13.81.81,0,0,0,0,.13.42.42,0,0,1,.18.05.39.39,0,0,0,.16.05.11.11,0,0,1,0-.11.23.23,0,0,0,0-.11,1.89,1.89,0,0,1-.39-.26,1.74,1.74,0,0,0-.34-.24,2.72,2.72,0,0,1,.16.27Zm-.16.29a.06.06,0,0,1,.07,0,.12.12,0,0,0,.07.07,0,0,0,0,1,0,0h0a.14.14,0,0,1,0-.13c0-.05,0-.08-.07-.08s0,.08-.05.14Zm0,2.24a.12.12,0,0,0,.11,0l.05-.09q-.16,0-.16.14Zm0-4.68s0,0,.08,0-.08,0-.08,0Zm0,6.94c0,.07,0,.08,0,0s0-.05,0,0ZM4.52,30.6s-.05,0-.05,0a.09.09,0,0,0,0-.07.09.09,0,0,0,0,.12h0a.09.09,0,0,1,0,.12h0a.53.53,0,0,1,.29,0l-.11-.15a.23.23,0,0,1,0-.2.2.2,0,0,1-.18-.08.48.48,0,0,0-.13-.13s0,.05,0,.05,0,0,0,.05l.2.11c.07.05.09.1,0,.15Zm.24,2.11a.27.27,0,0,1-.07.2L4.55,33q-.24,0-.24-.24a.18.18,0,0,1,.11-.23h.07a.24.24,0,0,1,.27.17Zm-.18,2.85q0,.18-.09.21a.24.24,0,0,0-.18.13h.08a.11.11,0,0,1,.11,0,.62.62,0,0,1,.21-.13.13.13,0,0,0,.09-.15v0s0,0,.05,0,0,0,0-.05a0,0,0,0,0,0,0h0l-.11.07s-.08,0-.16,0Zm-.24-1.69s0,.06,0,.08a.11.11,0,0,1,0,.08.21.21,0,0,1,.24,0l.18.15,0-.11A.09.09,0,0,1,4.7,34a.41.41,0,0,1,.18-.34c-.05,0-.08,0-.08-.13a.4.4,0,0,0-.21.11.4.4,0,0,1-.21.11.21.21,0,0,0,0,.12.09.09,0,0,1,0,.09s0,0,0-.05,0,0,0,0Zm0-6.25s0,.05,0,.05,0,0,0,.05a.15.15,0,0,1,.11-.05s.06,0,.08-.08a.09.09,0,0,1-.11,0,.11.11,0,0,1-.14.07h0Zm0,1.48h.05s0,0,0,0,0,0,0,0,0,0,0,0,0,0-.05,0Zm0,3a.54.54,0,0,0,.21,0q0-.13-.07-.08a.32.32,0,0,1-.15.07ZM4.42,35s0,0-.05-.08,0,.09,0,.09Zm-.05,4.3a.09.09,0,0,0,.08,0,0,0,0,0,0,0-.07c-.06.07-.08.1-.08.12Zm0,2.11c.07,0,.11,0,.11-.05a.15.15,0,0,0-.11.07Zm.08,1a.06.06,0,0,1,0,0,.05.05,0,0,0,0,0c.07,0,.11,0,.13-.05s-.11,0-.08-.08H4.4a0,0,0,0,0,0,.06h0Zm0-6.2c.09,0,.13-.07.13-.11s-.05,0-.05,0,0,0,0,0a0,0,0,0,1,0,.07.06.06,0,0,0,0,.08Zm.21-5.12a.18.18,0,0,1,0-.08.18.18,0,0,0,0-.08.18.18,0,0,0-.21,0l.09.05.09.09ZM4.5,43.37s0,0,.09,0,.08,0,.09,0,0,0,0-.05l-.13,0c-.05,0-.07,0,0,.08Zm.08-8.65s-.05,0-.05,0,0,0,0,0Zm0-6.52a.07.07,0,0,0,.09,0s0,0,0-.07,0,0-.05,0-.05,0,0,.05Zm0,6.78,0,0c0-.05,0-.07,0-.05Zm0,7.6c.05,0,.08,0,.08,0a.08.08,0,0,1,.05-.08l-.08-.05a.05.05,0,0,0-.07,0h0c.05,0,.08,0,.09,0s0,.07-.07.11Zm0-11.3H4.7s0-.05-.05-.05Zm0-1.56s0,0,0,0h0s0,0,0,0Zm0,12.92h.05S4.74,42.61,4.7,42.64Zm.13-7.41.05.12a.29.29,0,0,1,0,.18l.08,0s.05,0,.05,0-.11,0-.08-.13.08-.13.13-.13a.12.12,0,0,1,0-.09s0,0,0,0,0,.09,0,.11A.14.14,0,0,1,4.83,35.23Zm0,.9c0,.09,0,.1,0,0s0-.08,0,0Zm0-1.8s0,0,0,0,0,0,0,0ZM5,34.28s0,0,.08,0A.09.09,0,0,0,5,34.2s0,0,0-.08A.48.48,0,0,1,5.09,34s-.05-.07-.16-.11a.7.7,0,0,1,0,.22.24.24,0,0,0,0,.17Zm0,.34a.06.06,0,0,1,.07-.05l-.13-.05v.18A.12.12,0,0,0,5,34.62Zm0,1.45s.06,0,.07,0S5,36,5,36s0,0,0,0,0,0,0,0Zm.11-2.35c0-.05,0-.08,0-.09a.15.15,0,0,0,.05-.07A.4.4,0,0,0,5,33.51a.14.14,0,0,1,0,.12s0,.08.09.09ZM5,33.85s0,0,.08-.05-.07,0-.07.06Zm.08.95s0,0,0,0,0,0,0,0,0,0-.08-.08,0,.06,0,.07,0,0,0,.07Zm0-2.35c.07,0,.11,0,.11.08s-.1,0-.1-.08Zm.13-.5s0,0-.05-.08,0,.1.06.08Zm.72,11.21a.1.1,0,0,0,0-.09s0-.06-.07,0a.15.15,0,0,1,0,.11s0,0,0,0Zm.73-12.94s0,0,0,0,0,0,0,0a0,0,0,0,0,0,.07S6.6,30.25,6.62,30.22Zm0,13.56a.07.07,0,0,0,.08-.08s-.05,0-.05,0a.08.08,0,0,1,0,0Zm.6-.25s0,0,.07,0,0-.05,0-.05,0,0,0,0S7.21,43.5,7.22,43.54Zm.18-11a.07.07,0,0,0-.06-.08h0s0,.05,0,.05l.06,0Zm.08-.11a.11.11,0,0,0-.05-.11c-.07.07,0,.11.06.11ZM7.56,31a0,0,0,0,1-.07,0s0,0,0,0,.11,0,.11,0Zm.11,1.11s0,0,0,0,0,0,0,0a0,0,0,0,0,0,0h0s0,0,.06,0Zm0-1.48.16.08A.34.34,0,0,1,8,30.8c.05,0,.06-.07,0-.11s0-.08,0-.13a0,0,0,0,1-.05,0H8a0,0,0,0,0,0-.05h0c0,.11,0,.16-.07.16l-.17,0Zm0,1.82a.08.08,0,0,1,.07-.05s0,0,0-.05S7.68,32.44,7.69,32.46Zm.05-.18H7.8v-.05s0,0,0,0,0,0,0,0a.08.08,0,0,1,0,0Zm.13-1.16V31s0,0-.05,0a.08.08,0,0,0,0,.08s0,0,.06,0ZM8,32.33s.07,0,.16,0c-.09-.08-.14-.08-.15,0Zm.5.08.12.05s.07,0,.07-.08a.15.15,0,0,0-.11,0c-.05,0-.08,0-.08,0Zm2.2,4.48a.06.06,0,0,1,.08,0,.2.2,0,0,0,.08.07.33.33,0,0,0-.11-.24s0,.06,0,.08a.09.09,0,0,0,0,.07Zm.18-.61s0,0,0,0,0,0,0,0Zm.55-7.91c0-.05,0-.08-.05-.08s0,.05,0,.05,0,0,0,0Zm.08,11.08s-.05,0-.05,0,0,0-.05,0a.06.06,0,0,0,0,.07.07.07,0,0,0,.07,0Zm0-11h.08s0-.05-.08-.05Zm.18,11.63a0,0,0,0,1,.05,0s0,0,0,0h0s0,0,0,0,0,0,0,0Zm0,1.08h.11c0-.07,0-.11-.05-.11s0,.05,0,.05,0,0,0,.06ZM13,41.14a0,0,0,0,0,0-.07s-.05,0-.05,0,0,0,0,0,0,0,.05,0Zm1.57-4.22s0-.06,0-.07a.14.14,0,0,0,.05-.07h-.08s0,.06,0,.08,0,0,0,.06Zm.18-.11c0,.09,0,.13.11.13s0-.15-.05-.18,0,0,0,0,0,0,0,0Zm.13-.66v.05s0,0,0,0Zm.08-.84H15c0-.07,0-.11,0-.11a.15.15,0,0,0,0,.11Zm0,2a.23.23,0,0,0,.07.18.23.23,0,0,1,.07.18.08.08,0,0,0,.08-.05.54.54,0,0,0,0-.11.28.28,0,0,1,0-.09s.05,0,.11,0,.06,0,.08,0,0,0,.08,0,0,0,0,.07-.06.07-.13.07a.11.11,0,0,1,0,.11l-.05.11s.06,0,.07,0,0,0,.07,0a.3.3,0,0,1,.07-.25l.18-.22s0,0,0-.11,0-.11-.07-.05,0,.07,0,.09a.12.12,0,0,1-.14,0q-.08.18-.21.15L15,37.34Zm.2-.82c.05,0,.08,0,.08.13s0,.05,0,.05a.14.14,0,0,0-.09.05s.06,0,.07,0,0,0,.07,0,0-.1.11-.13l0-.08a.16.16,0,0,1,0-.11Q15.21,36.42,15.21,36.52Zm.08-.16a.18.18,0,0,0,.13-.05.48.48,0,0,0-.05-.13s-.05.06-.09.19Zm.16,1.82c.07,0,.11,0,.11,0s0,.06.11,0l-.11-.13a.08.08,0,0,0-.11,0h0s0,0,0,.08ZM15.55,37c-.07,0-.09,0-.05.13s.08,0,.08,0,0,.06.08,0,0-.08,0-.12-.05-.09,0-.15-.11,0-.12,0a.12.12,0,0,0-.07-.08c0,.05,0,.09,0,.11a.18.18,0,0,1,.08.08Zm-.05-.24h.13a.32.32,0,0,0,.05.13l.08.11a.49.49,0,0,0,0-.36.42.42,0,0,0-.21-.2.24.24,0,0,1,0,.32ZM15.68,38c0,.06,0,.09.07.09s0-.06,0-.07,0,0,0-.07-.16,0-.11-.13h0l-.05.05a.1.1,0,0,1,0,.12Zm.18-.59s0,0,0,0,0,0-.06,0ZM16,28.66s0,0,0,0,0,0,0,0a.23.23,0,0,0,0-.11s0,0,.08,0,0-.15-.11-.08-.12.13-.11.18Zm.11.76a.24.24,0,0,1,0,.18s0,0,0,0,0,0,0,0a.1.1,0,0,1,0-.12l.05-.12a0,0,0,0,0-.07,0,.07.07,0,0,1-.09,0Zm.16-.16a.59.59,0,0,0,0-.29.2.2,0,0,0-.05.15.17.17,0,0,0,.05.14Z"/><path class="cls-2" d="M29.5,26.5q.63,0,1,0a5.32,5.32,0,0,1,.92.16c.07,0,.11,0,.11.05l.28.09.3.09a.16.16,0,0,1,.11,0,7.37,7.37,0,0,1,.7.34l.67.37.05,0,.05,0,.09.09.09.09s.05,0,.11.08a2.65,2.65,0,0,1,.92.72q.37.45.72.92c0,.05,0,.09,0,.11v.05a.45.45,0,0,1,.2.29.62.62,0,0,0,.18.32.07.07,0,0,0,0,.05v.05a0,0,0,0,0,0,0h0q.21.58.47,1.14a3.27,3.27,0,0,1,.29,1.29.53.53,0,0,0,0,.09.6.6,0,0,1,0,.09,3.75,3.75,0,0,1,.08.41,2.64,2.64,0,0,0,.08.38A.21.21,0,0,0,37,34,.22.22,0,0,1,37,34q.05.53.12,1.07a5.59,5.59,0,0,1,0,1.15q-.05.5-.12,1t-.12,1.06a.54.54,0,0,1,0,.09.54.54,0,0,0,0,.09,16.72,16.72,0,0,1-.46,1.73,5.33,5.33,0,0,1-.67,1.36.15.15,0,0,0-.05.11l-.05.12L35.6,42s0,0,0,0,0,0,0,0a.08.08,0,0,0,0,.05l-.2.25-.2.25-.05.05a.08.08,0,0,0,0,.05,3,3,0,0,0-.39.42,1.39,1.39,0,0,1-.42.37l-.09.08a3.32,3.32,0,0,1-.89.67q-.53.28-1,.57c0,.05,0,.08-.11.08a5.52,5.52,0,0,1-1.19.32,9.78,9.78,0,0,1-1.31.12,10.13,10.13,0,0,1-1.18,0,6.1,6.1,0,0,1-.85-.13,10.77,10.77,0,0,1-1.09-.38,6.55,6.55,0,0,1-1-.49,4.8,4.8,0,0,1-.93-.72q-.41-.41-.88-1a4.75,4.75,0,0,1-.48-.75L22.92,41a5.44,5.44,0,0,1-.45-1.16q-.16-.61-.24-1.08t-.14-.72a6.69,6.69,0,0,1-.09-.86q0-.66-.07-1.35a3.54,3.54,0,0,1,.12-1.21v-.12a.18.18,0,0,1,0-.13.43.43,0,0,0,0-.21.12.12,0,0,1,0-.05.12.12,0,0,0,0-.05l.05-.26a1.5,1.5,0,0,0,0-.29v-.13q.08-.37.14-.72t.14-.67a.18.18,0,0,1,.05-.13.16.16,0,0,1,.11-.11s0-.07,0-.09a.16.16,0,0,0,0-.09v-.05a2,2,0,0,0,.21-.46q.08-.25.18-.51.31-.58.56-.95T24,29a5.48,5.48,0,0,1,.39-.45l.39-.37a8,8,0,0,1,.94-.67A6.09,6.09,0,0,1,26.82,27a7,7,0,0,1,.68-.22,6,6,0,0,1,.72-.15h.11l.54-.07A4.93,4.93,0,0,1,29.5,26.5ZM22,36s.06,0,.07,0,0,0,.07,0a.32.32,0,0,1,.21-.18.42.42,0,0,0,.24-.18c-.09,0-.14,0-.16,0a.52.52,0,0,1-.2.2A.78.78,0,0,0,22,36Zm.34-.74a0,0,0,0,0,.05,0h0a0,0,0,0,0-.05.05Zm.13-2.61s0,0,0,0,0,0,0,0Zm.39-1.32q0,.16.11.16a.18.18,0,0,1,0-.12s0-.07,0-.07a.08.08,0,0,1-.06,0Zm0,.37s.05,0,.05,0,0,0,.05,0,0-.1,0-.09-.07,0-.07.06Zm.18,5.76c0-.07-.06-.11-.18-.11s.06.1.18.1ZM23,36.95s0,.05.08.11,0-.05,0-.05l.05,0c0-.09-.08-.09-.15,0Zm0-5.76h.16s0-.06,0-.07,0,0,0,0a.12.12,0,0,1-.12,0s-.05,0,0,.1Zm.34,5.64c-.07,0-.11,0-.11,0a0,0,0,0,0,0-.05h0a.08.08,0,0,0,0,.11.1.1,0,0,0,.12,0Zm-.11-5.78s0,0,0,0,0,0,0,0Zm0,8.52a0,0,0,0,0,.07,0,.06.06,0,0,0,0-.08s0,.05,0,.05,0,0,0,.05ZM23.38,31a.08.08,0,0,0,.11,0,.16.16,0,0,0-.1,0Zm0,.63c.07,0,.11,0,.11-.08s-.1.06-.1.08Zm.13.69s.06,0,.07,0,0,0,.07,0v0s0,0,0,0,0,0,0,0,0,0-.05,0,0,0,0,.07Zm.08-1.45s0,0,.05,0a.05.05,0,0,0,.07,0h0a0,0,0,0,1,0-.07,0,0,0,0,0,0-.07s-.06,0-.07,0h-.07s0,.06-.05.07,0,0,0,.07Zm.16.66s-.05,0-.05,0,.06,0,.06,0ZM24,35.25c.07,0,.11,0,.11-.09a.27.27,0,0,1,.05-.15s-.05,0-.05,0,0,0-.05,0a.23.23,0,0,1-.05.15.08.08,0,0,0,0,.11h0Zm0,1.42.09,0s0,0,.07,0V36.6s-.05,0-.05,0,0,0-.05,0a.06.06,0,0,0,0,.07s0,0,0,.07Zm7.4,6.38a1.51,1.51,0,0,1,.55-.29.18.18,0,0,0,.13-.05,4,4,0,0,0,.72-.55,5.62,5.62,0,0,0,.6-.69,5.33,5.33,0,0,0,.49-.75,7.39,7.39,0,0,0,.33-.72l.25-.76a8.23,8.23,0,0,0,.21-.8q.09-.44.16-.94t.09-1.16v-.13a.87.87,0,0,1-.09-.45,3,3,0,0,0,0-.47,1.05,1.05,0,0,0,0-.28,1.05,1.05,0,0,1,0-.28.88.88,0,0,1,0-.21.43.43,0,0,0,0-.21.51.51,0,0,0,0-.16.49.49,0,0,1,0-.16,1.15,1.15,0,0,1,0-.22v-.22a.33.33,0,0,1,0-.16.86.86,0,0,0,0-.13.59.59,0,0,0-.08-.18.37.37,0,0,1-.05-.21.34.34,0,0,0-.08-.16.33.33,0,0,1-.08-.16l-.09-.28a1.74,1.74,0,0,0-.09-.22.11.11,0,0,1,0-.08v-.08a.42.42,0,0,1-.05-.18L34,31.63,34,31.56a.21.21,0,0,1-.05-.16,2,2,0,0,0-.08-.34l-.11-.32a.22.22,0,0,0,0-.08.2.2,0,0,1,0-.08,4.44,4.44,0,0,0-.89-1.06,4.54,4.54,0,0,0-1-.66,4.34,4.34,0,0,0-1-.33,7.45,7.45,0,0,0-.81-.12h-.72a5.39,5.39,0,0,0-1,.13,4.66,4.66,0,0,0-1.09.4,3.82,3.82,0,0,0-1.05.8,5.48,5.48,0,0,0-1.05,1.57,7.35,7.35,0,0,0-.52,1.57q-.13.61-.21,1.11t-.13.92v.16a.46.46,0,0,1,0,.18v.16a2.67,2.67,0,0,0,0,1.12q.1.59.16,1.17v.11a.07.07,0,0,0,0,.05,1.41,1.41,0,0,1,.07.28,2.35,2.35,0,0,1,0,.25,1.35,1.35,0,0,0,.13.47,1.37,1.37,0,0,1,.13.47q0,.11,0,.12s0,0,0,.09a2.29,2.29,0,0,0,.12.33.87.87,0,0,1,.07.36l.09.08.09.08a1.63,1.63,0,0,0,.29.57,1.68,1.68,0,0,1,.29.54.07.07,0,0,0,0,.05.08.08,0,0,1,0,.05,1.08,1.08,0,0,1,.37.42l.13.07.08.07s0,0,0,.05l.07.05a.88.88,0,0,1,.33.22,1.29,1.29,0,0,0,.33.25.22.22,0,0,1,.13.08.35.35,0,0,0,.14.12q.12.07.14,0a.22.22,0,0,1,.16.05,2.74,2.74,0,0,0,.67.3,3.89,3.89,0,0,0,.77.16,3.78,3.78,0,0,0,.77,0,2.14,2.14,0,0,0,.67-.18h.13a.29.29,0,0,0,.13,0,0,0,0,0,1,0,0h0a0,0,0,0,0,0,0h0l.18-.15a.32.32,0,0,1,.25,0c.06,0,.09,0,.09-.05ZM24.19,30.14h.08s0,0,0,0,0,0-.05,0Zm1.6,12.35a.08.08,0,0,1,0-.05s0,0-.05-.05a.07.07,0,0,0,0,.1h0s.06,0,.1,0Zm.16-14.32c0,.05,0,.07,0,.05s.05,0,0-.05Zm.94-.4c0-.05,0-.08,0-.08s0,.08,0,.08Zm0,.11s0-.05-.05-.05a0,0,0,0,0,0,.05h0Zm-.05.79s.05,0,.05,0,0,0,0,0Zm.42-.37a0,0,0,0,1,.05,0h0s0,0,.08,0a.24.24,0,0,1,.11-.07.23.23,0,0,0,.11-.07.15.15,0,0,1-.05-.11.15.15,0,0,0-.14.08.15.15,0,0,1-.14.08Zm.5.08-.05,0s0,0,0,0,.05,0,0-.05Zm.08-.45s0,0,0,0a0,0,0,0,1,0-.05s-.06,0,0,.05Zm.08.32v-.13a.08.08,0,0,0-.05.08,0,0,0,0,0,0,.06h0Zm.13-.55H28s0,.06,0,.07a0,0,0,0,0,.06,0ZM28,27.21c.05,0,.08,0,.08-.05s-.07,0-.07.05Zm.42.16s0-.05,0-.05-.07,0-.07,0Zm2.18.5a.11.11,0,0,0-.08,0c.06,0,.09,0,.09,0Zm1.76.34a0,0,0,0,0,0-.05h0a0,0,0,0,0,0,.05h0Zm.52.74s0,0,0,.07,0,0,0,0,0,0,.05,0S33,29,33,29l-.08-.05a.05.05,0,0,0-.07,0ZM33,29a0,0,0,0,1,.05,0h0a0,0,0,0,0,0,.05h0c0-.05,0-.08,0-.09a.12.12,0,0,0,.07-.07.07.07,0,0,0-.09,0h0A.15.15,0,0,1,33,29Zm.58,0a.18.18,0,0,1-.11,0,.07.07,0,0,0-.1,0h0a.18.18,0,0,1,.11,0,.07.07,0,0,0,.1,0v0Zm.16.18c.05,0,.08,0,.08-.08a0,0,0,0,1-.05,0h0a0,0,0,0,0,0-.05h0s0,.07,0,.09a.13.13,0,0,1,.05.09Zm-.05.21.09.08.09.08a.13.13,0,0,0-.07-.12l-.1,0Zm.08-.42s0,0,.05-.08a0,0,0,0,1,0,0h-.05a.15.15,0,0,0,0,.11Zm.34.47a.11.11,0,0,1,.08,0s0,0,.08,0,0-.08,0-.08a.15.15,0,0,1-.11-.05.16.16,0,0,0,0,.11Zm.16,2.06a.21.21,0,0,0,.11.15.2.2,0,0,1,.11.15.22.22,0,0,1,.13-.18.06.06,0,0,1,0-.08.11.11,0,0,0,0-.11c-.09,0-.14,0-.16,0s0,.05-.09,0Zm.29-1.24s.06,0,.07,0,0,0,.07,0,.07.1.05.13.05,0,.05,0,0,0,.05,0,0-.17.09-.18a.26.26,0,0,0,.18-.11l-.29.07a.43.43,0,0,0-.26.14Zm0,1.08a.21.21,0,0,1,0,.08.07.07,0,0,0,0,.05.47.47,0,0,1,.21.05s0-.05,0-.05-.06,0,0-.05,0-.08.05-.07h.11l.07-.12s0-.07,0-.09l-.2.11a.71.71,0,0,1-.21.08Zm.05-2.11s0,0,0,0,0,0,0,0Zm.11.21s0,0,0,0,0,0,0,0,0,0,0,0Zm.08,2.64s0-.05,0-.05,0,0,.05-.05-.06,0-.08,0a.08.08,0,0,0,0,.1Zm0-2.61s0,0,.08,0,.07,0,.05-.07a.21.21,0,0,0-.12,0Zm.52,1.5h-.16a.07.07,0,0,0-.08.08.15.15,0,0,1,.18.07.15.15,0,0,0,.2,0,.23.23,0,0,0,.07-.12s.06-.06.14,0a.21.21,0,0,1,0-.13.2.2,0,0,1-.14,0s-.08,0-.18,0a.12.12,0,0,0,0,.09s0,.05,0,.07Zm-.08-.53a.11.11,0,0,0,0-.08.11.11,0,0,0,0,.08ZM36,37.36l-.18-.12a.14.14,0,0,0-.18,0,.55.55,0,0,1,.18.11.13.13,0,0,0,.18,0h0Zm-.18-3.3a.07.07,0,0,0-.06-.08h0a.07.07,0,0,0,.05.08h0Zm-.05-3.24a.08.08,0,0,0,.11,0,.15.15,0,0,0-.1,0Zm0,3.67h.05s0-.05-.05-.05Zm.05-.84v.05s.05,0,.05,0,0-.05,0-.05l0,0Zm0,.69s.05,0,.05,0,0-.06-.05,0Zm.13.05a.15.15,0,0,0,.11,0,.15.15,0,0,0-.05-.11s0,0,0,0,0,0,0,0Zm.18-.4h0s0-.06,0-.07-.05,0-.05,0h0a0,0,0,0,1,0,0Zm.05.24s0,0,0,0,0,0,0,0l-.07,0-.07,0a.21.21,0,0,1,0,.09.17.17,0,0,0,.07.06Zm-.08.53s0,0,0,.13.11,0,.11-.08-.11,0-.07-.07,0-.09,0-.09,0,.05,0,.05,0,0,0,.05Z"/><path class="cls-2" d="M49.15,27.05s.05,0,.05.07a.14.14,0,0,0,.05.09s0-.06,0-.08,0,0,0-.08A2.17,2.17,0,0,1,50,27a2.54,2.54,0,0,0,.68,0,.29.29,0,0,1,.13,0,.29.29,0,0,0,.13,0,6.61,6.61,0,0,1,1.59.18,7,7,0,0,1,1.35.47,3.25,3.25,0,0,1,.67.41,6.35,6.35,0,0,1,.48.44,3.41,3.41,0,0,1,.48.61,3.54,3.54,0,0,1,.33.69,3.61,3.61,0,0,1,.24,1.2,3.87,3.87,0,0,1-.18,1.33v.05l0,.05a.21.21,0,0,0,0,.09.15.15,0,0,1-.05.09.05.05,0,0,1,0,0,.06.06,0,0,0,0,0,.06.06,0,0,1,0,0,.05.05,0,0,0,0,0v0l0,0q-.18.32-.37.61a2,2,0,0,1-.45.5,3.5,3.5,0,0,1-.59.47,5,5,0,0,1-.62.34l-.29.13-.31.13s0,0,0,0,0,0,0,0l.56.22.59.25.52.25a2,2,0,0,1,.39.25,3.53,3.53,0,0,1,.72.61,4.18,4.18,0,0,1,.55.72,1.73,1.73,0,0,1,.18.53,2.86,2.86,0,0,0,.16.55.3.3,0,0,0,0,.09.31.31,0,0,1,0,.09,3.13,3.13,0,0,0,.07.4l.09.34v.08a.3.3,0,0,1,0,.09.28.28,0,0,0,0,.09v.05l-.06.05.05.08c0,.05,0,.06-.07,0s0,0-.07,0,0,.08,0,.08h.05s0,0,0,0,0,0,0,0,0,.09,0,.11a.4.4,0,0,1,.05.16q-.05.29-.11.54t-.11.46a.44.44,0,0,0-.07.13l-.07.16a2.5,2.5,0,0,0-.37.69.18.18,0,0,1-.07.12s-.07.08-.07.09a.52.52,0,0,1-.18.13l-.05.08a1.83,1.83,0,0,1-.48.58,6.64,6.64,0,0,1-1.22.82,3.93,3.93,0,0,1-.83.38,8.29,8.29,0,0,1-1,.26q-.53.1-1.06.16a10,10,0,0,1-1,.05q-.55,0-1.29,0l-1.44-.07q-.72,0-1.31-.11l-.92-.12h-.42a7,7,0,0,1-.76.07,7.08,7.08,0,0,0-.76.07l-.38,0-.36,0-.36.07a1.56,1.56,0,0,1-.51,0,3.07,3.07,0,0,1-.45-.07L41,44.75a.76.76,0,0,1-.34-.37,2.19,2.19,0,0,1-.08-.45,1.85,1.85,0,0,1,.08-.42.59.59,0,0,1,.7-.4l1.25.13a2,2,0,0,0,.37,0l.34-.11a1.29,1.29,0,0,0,.46-.53,2.35,2.35,0,0,0,.22-.72V30.32a2.33,2.33,0,0,0-.21-1,1.57,1.57,0,0,0-.31-.45,1.06,1.06,0,0,0-.64-.24l-.62,0a2.67,2.67,0,0,0-.47.08l-.42,0a.62.62,0,0,1-.52-.24,1.15,1.15,0,0,1-.18-.41,1.11,1.11,0,0,1,.05-.57.45.45,0,0,1,.18-.21.46.46,0,0,0,.18-.18l.05,0s0,0,0,0,0,0,0,0a1.1,1.1,0,0,1,.43-.09h.59l.41,0a1.93,1.93,0,0,1,.38.07,4,4,0,0,0,.87.12q.45,0,.89,0l.91,0q.46,0,.93,0h.39A21.65,21.65,0,0,1,49.15,27.05Zm-4.93,16a.12.12,0,0,0-.08-.13c0,.09,0,.13.08.13ZM44.27,41s0,0,0,0a.06.06,0,0,1,.07,0v-.08h0l0,0Zm.24-10.37c.05,0,.07,0,.05-.05h0s0,0,0,0S44.51,30.57,44.51,30.58Zm0,2.22a.07.07,0,0,0,.08-.08q-.1.06-.08.08Zm.08,1.11s.05,0,.11,0l.05,0c-.05,0-.09,0-.11,0a.09.09,0,0,0-.08,0s0,.05,0,.05,0,0,0,.05Zm.05,9.21c-.05,0-.08,0-.08,0s.08,0,.08,0Zm-.05-2s0,0,0,0,0,0,0,0,0-.06,0-.07,0,0,0,0ZM44.67,35c0-.05,0-.08,0-.08s0,.08,0,.08Zm0-3.15s0,0,0,0v.05a0,0,0,0,1,0,0Zm.16,2.31s0,.05,0,.05,0,0,0,.05a.09.09,0,0,0,.11,0,.24.24,0,0,0,0-.11s0-.05.11-.05a.18.18,0,0,1,.08.16.06.06,0,0,1,.07,0s0,0,.07,0v-.18a.12.12,0,0,1-.13,0A.32.32,0,0,1,45,34a.2.2,0,0,1,0-.15.1.1,0,0,1,.11-.07c.14,0,.2.09.18.26s.09,0,.11,0a.11.11,0,0,1,.11-.05.26.26,0,0,1,0-.29c-.05,0-.08,0-.08,0s0,.06-.08,0l-.11-.12s-.07,0-.11,0,0,.07,0,.09a.41.41,0,0,1-.18,0,.23.23,0,0,0-.07.12.42.42,0,0,1-.07.15s0,0-.05,0,0,0-.08,0,0,.1.05.09l.08,0s0,0,0,0,0,0,0,0Zm0-.53s0,0,0,0,0,0,0,0ZM45,35.68s-.05,0-.05,0,0,0-.05,0,0,.06,0,.07.06,0,.06,0Zm0,.2s0,.07.05.07,0-.12-.13-.16l0,.05c.07,0,.11,0,.11,0Zm0,5.5s0-.05-.08-.05S45,41.41,45,41.38ZM45,34.28c0,.07,0,.08,0,0s0-.06,0,0Zm.11,8.65a.12.12,0,0,1,.09,0s0,0,0,0h-.1Zm.05.61h0s0-.06,0-.07-.06,0,0,0a0,0,0,0,1,0,0h0Zm0-5.86s-.05,0-.05,0a.15.15,0,0,1,.05.09Zm0-5.94a.09.09,0,0,1,.09,0s0,0,0-.05a.08.08,0,0,1-.08,0s-.05,0-.05,0Zm0,.24s0,0,0,0,0,0,0,0Zm.08,11.21a.15.15,0,0,0,.11,0c-.07,0-.11,0-.11,0Zm.18-11.32c0-.05,0-.08-.05-.08s0,.08.05.08Zm0,.34a.11.11,0,0,0,.05-.11.29.29,0,0,1,0-.13,0,0,0,0,1,0,0h0s0,0-.05,0a.1.1,0,0,0,0,.12.48.48,0,0,1,0,.17Zm.21,2a.07.07,0,0,0,.09,0s0,0,0-.07,0,0-.07,0S45.65,34.14,45.66,34.18Zm.11-.11a.09.09,0,0,0,0-.12.23.23,0,0,0-.09-.09s0,.07,0,.11a.15.15,0,0,1,.07.1Zm0-.53s.05,0,.05,0,0,0-.05,0Zm.45.55a.39.39,0,0,0,.18.18l.26.12a6.26,6.26,0,0,0,1.22.09q.62,0,1.22,0a10.92,10.92,0,0,0,2.55-.32,3.22,3.22,0,0,0,1.52-.92l.26-.36a1.34,1.34,0,0,0,.21-.46,3.7,3.7,0,0,0,.09-1.53,2.17,2.17,0,0,0-1.28-1.76,3.87,3.87,0,0,0-1-.36,6.09,6.09,0,0,0-1-.12h-.93l-.7,0-.67,0-.83.11a2.62,2.62,0,0,0-.77.26.76.76,0,0,0-.25.28,1.13,1.13,0,0,0-.12.3,7.52,7.52,0,0,0-.11,1q0,.61,0,1.26T46,33.17a4.7,4.7,0,0,0,.15.92Zm.58,2.14a1.29,1.29,0,0,0-.46.18.68.68,0,0,0-.2.3,1.4,1.4,0,0,0-.13.58v1.35q0,.42,0,.9t0,1q0,.5,0,1a1.44,1.44,0,0,0,0,.2,1.44,1.44,0,0,1,0,.2,3.91,3.91,0,0,0,.14.53.73.73,0,0,0,.3.4,2,2,0,0,0,.83.3l.67.09a17.35,17.35,0,0,0,2,0A10.46,10.46,0,0,0,52,43a3.05,3.05,0,0,0,2.6-2.7q0-.34,0-.84a3.76,3.76,0,0,0-.14-1,3,3,0,0,0-.5-1,2.65,2.65,0,0,0-1-.79l-.42-.15a4.72,4.72,0,0,0-.66-.2,5.91,5.91,0,0,0-1.07-.16l-1.18-.05H48.28l-.84,0a5.21,5.21,0,0,0-.67.06Zm-.42-.46s0-.05,0-.05a0,0,0,0,0,.05,0h0a.15.15,0,0,1-.05-.18c0-.08,0-.13-.08-.15A1,1,0,0,0,46.34,35.78Zm.54-7.39a.15.15,0,0,0,.05-.11.28.28,0,0,1-.21-.08C46.71,28.3,46.77,28.36,46.88,28.4Zm0,15.62a0,0,0,0,1-.05,0s0,0,0,0,.07,0,.07,0Zm.42-15.54a.18.18,0,0,0,0-.08.18.18,0,0,1,0-.08h-.08s0,.09.09.16Zm0,6.57q.1.11.08,0t-.09,0Zm.18-6.88s0,0,0,0,0,0,0,0,0,.05,0,.05,0,0,0,0Zm.42,6.7.11.08.11.08s0,.05-.05.05,0,0,0,.05a.33.33,0,0,0,.14,0,.2.2,0,0,1,.14.05c0-.11,0-.17-.11-.18a.24.24,0,0,1-.16-.16.07.07,0,0,1,0-.1h0c.05,0,.06,0,0-.08a.06.06,0,0,1-.08,0l-.08,0a.17.17,0,0,1,0,.09l-.06.09Zm.55-7.1s0,0,0,0,0,0,0,0Zm.26.16h0s0-.06,0-.07-.05,0-.05,0a0,0,0,0,1,0,0h0Zm.26-.05s.05,0,.05-.07,0-.07-.05-.07Zm.31-.5a2,2,0,0,1,.24.22,1.88,1.88,0,0,0,.24.22c0,.09,0,.13.09.13h.2a.61.61,0,0,0-.33-.38,1.55,1.55,0,0,1-.43-.28Zm.05,7.94h.11a.23.23,0,0,1,0-.11.08.08,0,0,0-.05-.08.09.09,0,0,1,0,.09.16.16,0,0,0,0,.09Zm.11.18c-.05,0-.05-.06,0-.08s.05,0,0-.08,0,0-.05.11,0,.09,0,.06Zm0-.5a.36.36,0,0,1,0-.08s0,0,0,0,0,.11,0,.11Zm.18.84s0-.05,0-.05,0,0,0-.08-.08-.07-.18-.11,0,.08,0,.13a.25.25,0,0,0,.13.11Zm-.13.08s0,0,0,0,0,0,0,0Zm.76-7.83a.29.29,0,0,0-.11-.13V28s.05,0,.05,0,0,0,.05,0Zm0-.4s0,0,0,0,0,0,0,0Zm0,7a.3.3,0,0,1,.21.05s0-.06,0-.07,0,0,0-.07a.06.06,0,0,1-.07,0s0,0-.07,0,0,.06,0,.07a.14.14,0,0,0-.05.07Zm.21-7.46h.07s0,0,0,0a.09.09,0,0,0-.07,0,.05.05,0,0,0,0,.06Zm.24,7.44a.09.09,0,0,0-.08-.11h0s0,.07,0,.09a.09.09,0,0,0,.11,0Zm0,.55c0,.05,0,.06,0,0s0,0,0,0Zm.05-.4v0h.05s0-.05,0-.05a0,0,0,0,1,0,0h0Zm0,.26Zm0,.42h.08s0-.05-.08-.05Zm.21-.76a.42.42,0,0,0-.08-.11s0,.08.08.11Zm.08-.13c0,.05,0,.08,0,.08s0-.05,0-.05,0,0,0,0,0,0,0,0,0,0,0,0Zm.16-.13s0,0,.05,0,0,0,.05,0,0,0,0,0,0,0,0,0a.11.11,0,0,1-.08,0s0,0-.08,0a.14.14,0,0,0,.05.07.15.15,0,0,1,.05.07Zm.87,0h.11c0-.07,0-.11-.08-.11a.05.05,0,0,1,0,0,.1.1,0,0,0,0,.07Zm.21-6.12c0-.07,0-.11,0-.11a.15.15,0,0,0,0,.11Zm.08,5.94c.07,0,.11,0,.11-.08l-.13-.05s0,.06,0,.07,0,0,0,.07Zm0,9c0,.07,0,.09,0,.07s0,0,0-.06Zm.39-14.72s0-.05,0-.05,0,0,0-.05-.06,0-.07,0,0,0-.07,0a.06.06,0,0,0,.05.07l.11,0Zm-.13.16c.05,0,.07,0,.05.08a.11.11,0,0,0,0,.11c.05,0,.08-.07.07-.09a.4.4,0,0,1,0-.12h-.08s0,0,0,0Zm.42,14.8-.13,0c-.09,0-.13,0-.13,0a.28.28,0,0,0,.14,0c.08,0,.12,0,.12,0Zm0-.76h-.24s0,.05.11.05.13,0,.13,0Zm-.18-14.88s.05,0,.05-.13h-.05Zm.05,6.84H53a.09.09,0,0,1,0-.11s0,0,0-.08,0,.06-.07.08a.1.1,0,0,0-.07.1ZM53.3,43h.05a0,0,0,0,0,0-.05h0Zm.13.72c-.07,0-.11,0-.11,0h.07l.07,0a.28.28,0,0,0,0-.16.11.11,0,0,0,0-.08.28.28,0,0,0,0,.16Zm.05-9.47s0-.05,0-.05-.06,0,0,0,0,0,0,0,0,0,.05,0Zm.05,9.81s0,0,0,0,0,0-.05,0,0,.05,0,.05,0,0,0,0Zm.68-14.19a.21.21,0,0,1-.16-.05c0,.05,0,.09.07.12S54.22,30,54.22,29.9Zm.13.82a.07.07,0,0,0,0-.1h0a.11.11,0,0,0-.09-.05.21.21,0,0,1,0,.08s0,0,.06.08Zm0,10.81v.05s.05,0,.05,0a0,0,0,0,0,0-.05h0ZM54.58,43c0,.09,0,.12-.07.08s-.08,0-.09,0,0,.09.07.07a.09.09,0,0,1,.12,0s0-.06,0-.08,0,0,0-.08.05,0,.05,0a.11.11,0,0,0-.08,0s0,0-.07,0Zm-.13-12.05,0,0s0-.05,0-.05Zm.11-.47s-.05,0-.05,0,.06,0,.06,0Zm.39-1.26s.05,0,.05,0,0,0,.05,0,0-.08-.11-.08Zm.14.21.09-.05H55s0,.06.07,0Zm0,8.31,0-.05H55s.05,0,.05,0a0,0,0,0,0,0,0h0Zm0,1.77h-.05a0,0,0,0,1,0,0h0s0,0,0,0Zm.13.11c0-.07,0-.11-.08-.11s0,.06.08.1Zm-.08-1.92q.16,0,.18-.08a.16.16,0,0,0-.11,0l-.07,0Zm0,3.17c.07,0,.11,0,.12,0s0,.09.09.09v-.18a.14.14,0,0,1-.11,0,.11.11,0,0,0-.1,0Zm.05-3.56c0,.07,0,.08,0,0s0-.07,0,0ZM55.45,41s0,.05,0,.05,0,0,0,0,.09,0,.12,0,.08,0,.18,0v.13s-.06,0-.07,0,0,0-.07,0,0,.05,0,.05,0,0,0,.05a.22.22,0,0,0,.21,0,.28.28,0,0,0-.08-.22.52.52,0,0,1-.13-.18c0,.11-.06.14-.16.11Zm.05-11.37c-.05,0-.08,0-.07-.05s0-.05,0-.05a.23.23,0,0,0,0,.12s.05,0,.07,0Zm0,11.13a.06.06,0,0,1,.07,0,.12.12,0,0,0,.07.07s0-.05,0-.05,0,0,0-.05a.15.15,0,0,0-.11-.05.08.08,0,0,0-.08,0Zm.42-.4a.1.1,0,0,0,0-.13.15.15,0,0,1,0-.13.15.15,0,0,0-.11,0c.05,0,.06.06,0,.12s0,.09.09.11Zm-.11.42h0s0-.05,0-.05ZM56,42c.05,0,.07,0,.05-.05h0s0,0,0,0,0,0,0,0Zm.08-.32q.05.18.21.13l-.05-.08s0,0,0-.08h-.16Zm.05.34a0,0,0,0,0,0,0h.05a0,0,0,0,0,0,0h0Zm.13-3.32s0,0,0,0,0,0,0,0Zm.47,1s0,0,0,0,0,0,0,0Zm.05-.08a.15.15,0,0,0,.11,0s-.06,0-.09,0Z"/><path class="cls-2" d="M66.31,36.18v.66l0,.05h-.05q0,.18.08.18a1.41,1.41,0,0,0,0,.34c0,.12,0,.2,0,.24s-.05,0-.05,0,0,0-.05,0,0,.08,0,.09l.09,0a.45.45,0,0,1,0,.11.23.23,0,0,0,0,.13q-.08-.13-.21,0a.24.24,0,0,0,.21.08.57.57,0,0,0,0,.34.21.21,0,0,0-.18,0c-.06,0-.08.1,0,.18s0,0,0-.07,0-.06,0-.09.18,0,.16.11a.79.79,0,0,0,0,.29s-.05,0-.05,0,0,0-.05,0,0,.08,0,.08.07,0,.07.08-.07.08-.11.07H66c0-.05,0-.08,0-.08s-.07,0,0,0,0,0,0,0-.07,0,0,0,0-.07,0-.07a.15.15,0,0,1-.05.11.06.06,0,0,1-.09,0l0,0c.05,0,.07-.07.05-.09s0,0,.11-.07a1.33,1.33,0,0,0-.11-.33.27.27,0,0,0-.26-.18c0-.05,0-.07.05-.07h.11s0,0-.05,0a.09.09,0,0,1-.11,0,.15.15,0,0,0-.07-.18.2.2,0,0,1-.12-.15q-.08.11.07.21a.18.18,0,0,1,.05.25v0a.22.22,0,0,1,0,.16.77.77,0,0,0,0,.13.27.27,0,0,1,.16,0c0,.05,0,.08,0,.09a.06.06,0,0,0,0,.07,1.1,1.1,0,0,1,.09.18.2.2,0,0,0,.14.12q-.05.24.13.26.05.18,0,.21s0,.06,0,.13-.05,0-.05,0,0,0-.05,0l.09.18a.41.41,0,0,1,0,.18s-.06,0-.07,0a.06.06,0,0,0-.07,0,.2.2,0,0,1,0,.18.14.14,0,0,0,0,.15.23.23,0,0,0,.24-.13.57.57,0,0,0-.16-.29.06.06,0,0,0,0-.08s0-.05.09-.05a.47.47,0,0,0-.08-.2.27.27,0,0,1-.05-.18q.13-.05.14,0a.13.13,0,0,0,.09.12.18.18,0,0,0,.05-.13,1.28,1.28,0,0,1,0,.69,1.27,1.27,0,0,0,0,.63s-.06,0-.08,0a.09.09,0,0,0-.08,0c0,.05.05.13.16.24a.36.36,0,0,0,0,.16v.29a3.06,3.06,0,0,0,.05.51q.05.3.11.51a.82.82,0,0,0,.3.42,1.27,1.27,0,0,0,.48.18l-.21.05s0,0,.05,0a.11.11,0,0,1,.11,0,.18.18,0,0,1,0,.13.53.53,0,0,0,0,.13s0,0,.05,0l.05-.11a.52.52,0,0,0-.05-.12s0-.07,0-.12a12,12,0,0,0,1.69,0,17.7,17.7,0,0,1,1.79,0c.07,0,.09,0,.08.05l.05,0,.05,0h.92a4.6,4.6,0,0,0,.94-.12,2.63,2.63,0,0,0,.79-.32A1.1,1.1,0,0,0,74.1,42s.06,0,.07,0,0,0,.07,0a.06.06,0,0,0,0-.07.06.06,0,0,1,0-.07,2.23,2.23,0,0,0,.13-.67q0-.41,0-.88t0-.95q0-.47-.05-.84a1.63,1.63,0,0,1,.21-.88.85.85,0,0,1,.81-.3,2.69,2.69,0,0,1,.46.09.5.5,0,0,1,.3.2s0,0,0,0-.07,0-.07,0a0,0,0,0,0,.07,0l.07,0a.31.31,0,0,1,.11.21V38a1,1,0,0,1,.11.24,2.6,2.6,0,0,1,0,.57q0,.36-.11.79t-.12.9a7.77,7.77,0,0,0-.05.88q0,.45,0,.82T76,43a3.18,3.18,0,0,1,0,.9,1.22,1.22,0,0,1-.34.74,1.13,1.13,0,0,1-.84.29l-.55-.05-.58,0-.72,0-.94-.05h-.6a1.26,1.26,0,0,1-.45-.08H70.9a2,2,0,0,1-.91.05,5.34,5.34,0,0,0-.91-.08l-1.19.07q-.59,0-1.19,0H64.61l-.84.05-.88.07-.85.07a1.93,1.93,0,0,1-.83-.09.92.92,0,0,1-.39-.29,1.08,1.08,0,0,1-.13-.5q0-1.05,1-.92.52.05,1,.13a1.1,1.1,0,0,0,.81-.16,1.15,1.15,0,0,0,.38-.41,2.28,2.28,0,0,0,.14-.41,2.37,2.37,0,0,0,.07-.42,4.15,4.15,0,0,1,0-.45l.13-.08a.18.18,0,0,0,0,.18l.12.09a.63.63,0,0,1,.2,0c.08,0,.1,0,.07-.08a.26.26,0,0,1-.28,0c-.11-.05-.13-.14,0-.26a.18.18,0,0,1,.13,0l.11,0a.14.14,0,0,1,.05-.07l.08-.07c0-.07-.11-.11-.26-.11a.36.36,0,0,0-.08.12.26.26,0,0,1-.11.12.16.16,0,0,1-.08-.09.36.36,0,0,0-.08-.12.27.27,0,0,1,.16,0s.05,0,.11-.13,0,0-.07,0-.06,0-.09,0a.21.21,0,0,1,0-.13s0,0,0,0,0,0,0,0a4.07,4.07,0,0,1,0-.58q0-.32,0-.66a.58.58,0,0,1,.36.07,3.17,3.17,0,0,1,.22.28c0,.05,0,.07,0,0a.13.13,0,0,0-.09,0,.05.05,0,0,0,0,.07h0l.08.05c0,.05,0,.08,0,.08s-.06,0,0,.05,0,0,0,0,0,0,0,0l.09-.11s.08,0,.14,0,0,0,0,0a0,0,0,0,1-.05,0,.1.1,0,0,1,.11-.08C65,40,65,40,65,39.9l.13,0c.05,0,.07,0,.05-.12s-.08,0-.08,0a.08.08,0,0,1-.05.08q-.11-.05-.13.08a.23.23,0,0,0-.12-.07.22.22,0,0,1-.12-.07s0-.06,0-.07,0,0,0-.07,0,0-.07,0a.06.06,0,0,1-.07,0,.24.24,0,0,1,.16-.26c0,.05,0,.08,0,.07s-.05,0-.05,0a.23.23,0,0,1,.16.08.08.08,0,0,0,0-.09.6.6,0,0,1,0-.12.18.18,0,0,1,.13,0,.23.23,0,0,0,.16,0,.36.36,0,0,1,0-.18.25.25,0,0,0,0-.15s0,0,.05,0,.05,0,.05,0l-.11-.07a.24.24,0,0,1-.08-.12l-.11.12a.46.46,0,0,0-.08.2c-.09,0-.13,0-.12-.11a.18.18,0,0,0,0-.16.08.08,0,0,0,0,.09s0,.06,0,0,.08.11.13.11-.14.09-.26.05l-.08.12a.38.38,0,0,1-.11.09c0,.07,0,.11,0,.12a.24.24,0,0,0-.11.07v-2a2.78,2.78,0,0,0,0-.3c0-.12,0-.15.12-.12a.15.15,0,0,1,0-.15s0-.08-.11-.12v-.21a0,0,0,0,1,0-.05h.06s0-.05,0-.05,0,0,0,0a.49.49,0,0,0,.05-.29c0-.07,0-.19-.08-.37s0,0,0,0,0,0,.07,0a.54.54,0,0,0-.07-.24.12.12,0,0,1,0-.16l0,0s0,0,0,0,0,0,0,0a.84.84,0,0,1,0-.22.27.27,0,0,0,0-.2.11.11,0,0,1,0-.08.15.15,0,0,1,0-.11V33.52q0-.32,0-.61c0-.19,0-.36,0-.47s.07-.11.11-.11a.68.68,0,0,1-.12-.41q0-.2,0-.51a.7.7,0,0,0,.18-.13.4.4,0,0,0,.11-.21.11.11,0,0,0-.11,0,.11.11,0,0,1-.11,0,.3.3,0,0,1,0-.21.09.09,0,0,0-.07,0s0,0-.07-.05a.11.11,0,0,1,0-.08l.05-.08a.26.26,0,0,1-.05-.18,4.68,4.68,0,0,0-.2-.88,1.35,1.35,0,0,0-.29-.5.93.93,0,0,0-.38-.24,1.4,1.4,0,0,0-.42-.07,2.41,2.41,0,0,0-.56.07,2.78,2.78,0,0,1-.64.07q-.94,0-.92-1.08a.9.9,0,0,1,.22-.45.68.68,0,0,1,.46-.23,2.69,2.69,0,0,1,.64,0l.83.08L64,27.3q.67.06,1.25.09a8.78,8.78,0,0,0,1-.07l1.06-.12.88-.11.48-.05a1.11,1.11,0,0,1,.26,0,1.53,1.53,0,0,1,.31.12,1.1,1.1,0,0,1,.29.21.72.72,0,0,1,.18.34.92.92,0,0,1-.18.87.85.85,0,0,1-.66.24l-.75-.09a3.79,3.79,0,0,0-.83,0,.67.67,0,0,0-.39.18,3.11,3.11,0,0,0-.29.3,1.61,1.61,0,0,0-.25.78,4.85,4.85,0,0,0,0,.91v.74s-.06,0-.08,0a.2.2,0,0,0-.08-.07s0,0,0,.09,0,.06-.07,0,.06.08.08,0,.05-.06.11,0,0,0,.05,0ZM60.8,44q-.05.08,0,0c0-.06,0-.05,0,0Zm.39,0c-.07,0-.11,0-.13,0a.12.12,0,0,0-.11,0l.11-.18a.45.45,0,0,0,.05-.22.47.47,0,0,0-.13.13.27.27,0,0,1-.18.11q.16,0,.11.24S61,44,61,44s0,0,.05,0a.05.05,0,0,1,.07,0h0a.09.09,0,0,0,.1,0Zm-.39.11c.07,0,.1,0,.08-.05H60.8Zm.31.45s.05,0,.05,0,0,0,.05,0a.05.05,0,0,0,.05,0h.05a.06.06,0,0,1,0,.07s0,0,0,0a.17.17,0,0,1,0-.13h-.11a.06.06,0,0,1-.08,0s0-.05,0-.05,0,0,0-.05,0,0,0,0,0,0,0,0a.12.12,0,0,0,0,.09s0,.06,0,.09Zm.13-16.09v.05a.11.11,0,0,0,.08.07s0,0,0,.09l.12-.07h.14s-.06,0-.07,0h-.09q-.09-.16-.21-.1Zm2.94,2.72s0,0,0,.08,0,.1-.07.08-.06-.12,0-.16Zm-.05,8.63s0,0,.09,0a.14.14,0,0,0,.12,0s-.05,0-.05,0,0,0-.05,0,0,0-.07,0-.06,0,0,0Zm0,.53a.18.18,0,0,1,.16.15c0,.08.07.1.16.07s0-.06.05-.08.09-.06.05-.13h-.11c0,.07,0,.11-.05.11h-.08a.06.06,0,0,1,0-.08s0-.06,0-.13-.09,0-.11,0l-.08.09Zm.05.84s.05,0,.05,0,0,0,0,0Zm.05-.53a.24.24,0,0,0,.11.32c0-.07,0-.1,0-.08a.07.07,0,0,0,.09,0l-.07,0a.06.06,0,0,1,0-.07.41.41,0,0,0,.11-.16.14.14,0,0,0-.12.05s-.06,0-.12,0Zm0-2a.18.18,0,0,1,0-.11s0-.06,0-.08-.06.14,0,.18Zm0,.92s0,0,0,0,0,0,0,0Zm0,1.29s0,0,.05,0,0,0,0,.05h-.05a0,0,0,0,0,0,0h0Zm0-10c.07,0,.11-.05.11-.16h-.11a.1.1,0,0,1,0,.08.18.18,0,0,0,0,.07Zm.08,5.8s0-.07-.08-.11,0,.1.08.1Zm-.08,4.14h.05s0,0,0,0a0,0,0,0,0,0,0h0Zm.11-1.37s0,0,0,0,0,0,0,0,0,.05,0,.05-.07,0-.07.05,0-.06,0-.08.06,0,.06-.05Zm0-8a.07.07,0,0,1,.09,0s.06,0,.09,0a.18.18,0,0,1-.11,0s-.06,0-.08,0Zm.16,7.31s0,0,0-.07,0,0,0,0h-.08a.1.1,0,0,0,0,.12s.06,0,.08,0Zm-.08.16a0,0,0,0,0,0,0h.05a0,0,0,0,0,0,0h0Zm.05.21s0,0-.05-.08,0,.09.05.08Zm.18-.82c0,.14-.06.21-.18.21l.16.08.13.08.09-.15A.63.63,0,0,0,65,38.2a.14.14,0,0,1-.07-.05s0,0-.07,0a.21.21,0,0,1-.13,0Zm-.18,2.7v.05a0,0,0,0,0,.07,0s0-.05,0-.05l0,0Zm0-5.64h.08v-.05h-.08Zm.11,3.3c-.05,0-.08,0-.08,0a.11.11,0,0,0,.08,0Zm0-3a.09.09,0,0,1,.08,0h.08c0-.05,0-.06.08,0s.07,0,.05-.05-.11,0-.11-.05a.1.1,0,0,1-.13,0c-.05,0-.09,0-.11,0s.07.09.06.12Zm0,.21a.14.14,0,0,0,.05.07.15.15,0,0,1,.05.07s.07,0,.09,0a.12.12,0,0,0,.09,0,.4.4,0,0,0-.13-.34.13.13,0,0,1,0,.16s-.08,0-.16,0Zm.79,4.51a.23.23,0,0,1,0-.11.24.24,0,0,0,0-.11s-.06,0-.07,0a.06.06,0,0,0-.07,0s0,0-.07,0,0,0,0,0a0,0,0,0,1,.05,0h0c-.09.05-.15.07-.18.05a.48.48,0,0,0,0,.34.14.14,0,0,1-.07-.05.15.15,0,0,0-.07-.05s0,.05,0,.05,0,0,0,.05-.22,0-.24.08.1.07.09.11a.15.15,0,0,0,0,.11.4.4,0,0,0,.22.05.55.55,0,0,1,.25.05.34.34,0,0,0-.09-.11s0-.08,0-.13,0,0-.05,0,0,0-.05,0,.08,0,.08-.13h.08a.17.17,0,0,1,.11.13.47.47,0,0,0,.13-.13.1.1,0,0,1-.08,0s0,0-.08,0a.66.66,0,0,0,0-.26s.07,0,.09,0a0,0,0,0,0,.07,0Zm-.55-7.73q0-.1,0-.05s-.07,0-.09,0,0,0,.13,0Zm-.11,7.18c0,.07,0,.11.05.11l.05-.07s0,0,0-.07a.11.11,0,0,1-.07,0Zm.39-9s0,0-.05,0,0,0,0,0,0-.06,0-.07a0,0,0,0,0,0,0s0,0,0,0,0,0,0,0-.08.1-.18.08a.09.09,0,0,0,.09.05s.06,0,0,.08a.16.16,0,0,1-.12.05.09.09,0,0,0-.09.05.07.07,0,0,1,.09,0,.13.13,0,0,0,.09,0c0-.05,0-.09.11-.11l.08,0Zm-.26,7.1a0,0,0,0,1,0,0s0,0-.07,0a.08.08,0,0,0,.05.08s.06,0,.06,0Zm0-.34s0,.05,0,.05,0,0,0-.06ZM65,35.34c0-.05,0-.08-.11-.08s0,.07.11.07Zm-.11,6.44c.11,0,.15,0,.13-.05s-.11,0-.13,0ZM65,38.5c0,.07,0,.09,0,.07S65,38.52,65,38.5ZM65,39.76s0-.06,0-.07a0,0,0,0,0,0,0h0s-.05,0-.05,0,0,.07.05.07Zm0-1.37c.05,0,.08.07.08.11s0,0,0,0,0,0,0,0,.08.09.08.11a.15.15,0,0,0-.08.13.12.12,0,0,1,.09,0,.06.06,0,0,0,.07,0,.12.12,0,0,1,0-.12.18.18,0,0,0,0-.12s0,.05-.08.05v-.11a.15.15,0,0,1-.11,0,.08.08,0,0,0-.08,0Zm.05.45s.05,0,.05,0a0,0,0,0,0,0,0h0v-.11a.13.13,0,0,0-.08.09Zm.05.24s.05,0,.05.08h.12a.07.07,0,0,1,0-.09s0,0,0-.07,0,.07-.05,0a.09.09,0,0,0-.08,0s0,0,0,.09Zm0,.26c.05,0,.08,0,.08.08a.08.08,0,0,1-.05.08c.07,0,.11,0,.13-.07a.35.35,0,0,1,.08-.12.14.14,0,0,0-.13,0,.13.13,0,0,0-.11.08Zm.08,1c.07,0,.09,0,.05.11h-.08a.15.15,0,0,1,0-.1Zm.05.61s.07,0,.09,0,.07,0,.14,0a.16.16,0,0,0-.22,0Zm.13-2.11c0-.05,0-.08-.08-.08a.07.07,0,0,0,0,.09h0Zm0,1s.05,0,.05,0,0-.06.08,0a.06.06,0,0,0-.05-.07.08.08,0,0,0-.08,0s0,.06,0,.07,0,0,0,.08Zm.11-4.14a.17.17,0,0,0,0-.09s0,0-.08,0,.05,0,.05.07,0,0,.05,0Zm-.08-5s0,0,0,0,0,0,0,0Zm.08,6.88a.26.26,0,0,1,.11.13.32.32,0,0,0,.08.13s0-.06,0-.08a.09.09,0,0,1,0-.08.14.14,0,0,1,.05-.07l.05,0v-.12a.1.1,0,0,0-.14,0Zm0-7a.14.14,0,0,0,.09.05l.14,0-.09-.09-.09-.09s0,.05,0,.05,0,0,0,.06Zm0,9.71s0,0,0,0,0,0,0,0Zm0,.63a.18.18,0,0,0,.11,0s0-.06,0-.09a.14.14,0,0,1-.05.07.14.14,0,0,0-.05.06Zm0-7.28s.06,0,.08,0a.11.11,0,0,1-.08,0Zm.05,7.6c.12,0,.18,0,.18-.08s-.12,0-.11-.11h-.08q0,.13,0,.18Zm0-2.85c.05,0,.07,0,.05.09s0,.09.05.09-.06.06-.07,0,0-.07-.07-.07,0-.06,0-.07,0,0,0-.06Zm0,1.77s0,.06,0,.08,0,0,0,.08l.08-.16q-.08-.05-.13,0Zm.11-6c-.05,0-.08.07-.07.11a.25.25,0,0,1,0,.13.15.15,0,0,1,.11,0h.16c0-.07,0-.11.05-.11s0,0,.08.05,0,.05,0,.05,0,0,0,.05a.5.5,0,0,0,.09-.13.5.5,0,0,1,.09-.13s-.06,0-.07,0,0,0-.07,0,0,0,0,.05,0,0,0,.05a.26.26,0,0,0-.09-.07s0,0,0-.07h-.1c0,.05,0,.08,0,.08a.08.08,0,0,1-.08-.05Zm0-3s0,0,0,0,0,0,0,0a.09.09,0,0,0,0,.08.09.09,0,0,1,0,.08c.07,0,.11,0,.13,0a.5.5,0,0,1,0,.13,1,1,0,0,0,0,.16.08.08,0,0,0,.09.08h0a.31.31,0,0,1,.05-.21q-.08-.08,0-.18a.3.3,0,0,0,.09-.18A.23.23,0,0,1,66,31a.34.34,0,0,0-.12-.13c0,.11,0,.16-.08.16s-.05,0-.05-.05,0,0-.05,0-.05.06-.05.08.06,0,.07,0h.07a.05.05,0,0,1,0,.07h0a.08.08,0,0,1-.08,0ZM65.69,41c0,.07,0,.1.05.08s0-.06,0-.08,0,0,0-.08,0,.06,0,.07,0,0,0,0Zm.11-3.72a.34.34,0,0,1,.07-.09.34.34,0,0,0,.07-.09s-.05,0-.05,0,0,0-.05,0a.41.41,0,0,0-.08.11s0,.07,0,.1Zm0-3.62a.08.08,0,0,1,0-.05s0,0,0,0,0,0,0,0S65.73,33.63,65.76,33.64ZM66,38.42c-.09-.05-.11-.11-.08-.16s0,0-.07,0a.06.06,0,0,1-.07,0,.14.14,0,0,0,0,.18.13.13,0,0,0,.17,0Zm-.08,2.4s0,0,0,0,0,0,0,0Zm.05-1.61a.09.09,0,0,1,0,.11h-.05s0-.05,0-.05,0,0,0,0ZM66,33.69a.09.09,0,0,0,0-.13h0a.09.09,0,0,1,0-.13h0a.06.06,0,0,1-.07,0s0,0-.07,0a.32.32,0,0,0,.07.15s0,.09,0,.17Zm0,3.22s.06,0,.08-.07a.07.07,0,0,0,0-.09c0,.05,0,.08,0,.09s0,0,0,.07Zm0-2.43H66s0,0-.08,0ZM66,37.72a.21.21,0,0,1,0,.09s0,0,.05.07,0-.06,0-.08,0,0,0-.08v0s0,0,0,0,0,0,0,0Zm0,3.51s.07,0,.09,0,0-.1,0-.12a.62.62,0,0,1-.1.17Zm.11-8.89h-.05s0,.05,0,.05a0,0,0,0,0,.05,0h0Zm.08,4.43s0-.05,0-.05,0,0,0-.05l-.05,0s0,0-.05,0,0,0,0,0a.06.06,0,0,0,0,.09h0Zm0-5.28s-.05,0-.05,0,0,0,.05,0Zm0,7.83h.08s0,.05-.05.05-.06,0,0,0Zm0-1.53a0,0,0,0,0,0,0h0l0,0Zm0,1.24c.07,0,.09,0,.08.11s-.08,0-.08-.1Zm.08-10.42s0,0,0,0,0,0,0,0,0,0,0,.05,0,0,0,0Zm.16,14.67a.5.5,0,0,1,.13-.09.18.18,0,0,0,.08-.18.08.08,0,0,1-.08-.05s0,0-.08.05.08,0,.08,0a.2.2,0,0,1-.13,0,1.77,1.77,0,0,1,0-.29c0-.12,0-.25,0-.37a.54.54,0,0,0-.05.46l.13.42Zm0-14.67a.12.12,0,0,1,.09,0,.07.07,0,0,0,.09,0c0-.09-.06-.15-.18-.18s0,.06,0,.07a.1.1,0,0,0,0,.07Zm.16,14.93s-.06,0-.08,0a.18.18,0,0,1,0,.12.08.08,0,0,0,0,.09.29.29,0,0,0,0-.25.28.28,0,0,0-.18-.18.1.1,0,0,0,.07.11.16.16,0,0,1,.1.12Zm0-15.25s0-.05-.11-.05,0,.06.11.06Zm0-.53v-.11h-.05s0,.06,0,.08,0,0,0,0Zm0,15.51a.15.15,0,0,1,.11,0v-.05a.09.09,0,0,0-.1,0Zm.05.58h.05s0-.05,0-.05a0,0,0,0,0-.05,0h0Zm.11-.5a.33.33,0,0,1,0,.16c0,.05,0,.09,0,.11a.11.11,0,0,1,.08,0s.05,0,.05-.08-.12,0-.09-.07a.2.2,0,0,1,.14-.12c-.05,0-.08,0-.07,0s0-.06-.07,0,0,.08-.09.12Zm.05-15.51s0,0,.08-.08a.07.07,0,0,0-.08.09Zm.13-.08c0-.05,0-.08-.05-.08s0,.09.06.09ZM67,28q-.05-.13-.16-.13c0,.13,0,.18.16.14Zm-.12,15.87H67c0-.05,0-.08.07-.07l.12,0s0-.06,0-.07,0,0,0-.07,0,0,0,0,0,0,0,0,0-.06,0-.07,0,0,0-.09-.08,0-.07-.05,0-.08,0-.08A.6.6,0,0,1,66.92,43.88Zm0-15.48a.12.12,0,0,0,.09.07s.06,0,0-.09-.13,0-.13,0Zm.42.05c0-.05,0-.08,0-.08s0,.08,0,.08Zm0,15.06s0,0,0,0a0,0,0,0,0,.05,0,.09.09,0,0,0-.09,0s0,0,0,.05Zm.05-.21a.15.15,0,0,0,.18,0,.13.13,0,0,0-.07-.12.12.12,0,0,0-.12,0s0,0,0,.05a.08.08,0,0,1,0,.05Zm.26-14.67s.05,0,.05,0,0,0,.05,0,0-.08,0-.09,0,0,0-.09a.1.1,0,0,0-.13,0q-.08,0,0,.17ZM68,43.51s0,0,.05,0,0,0,.05,0-.08,0-.09,0,0,0-.07,0,0,.05.05.1Zm.24-15.3h.08c0-.09,0-.13-.08-.13a.18.18,0,0,0,0,.13Zm.11,15.11s0,0,0,0,0,0-.05,0a0,0,0,0,0,0,.07,0,0,0,0,0,0,0Zm0,.26c.05,0,.08,0,.08-.05s-.08,0-.08.06Zm.16-.24s0,0,.05,0,0,0,.05,0,0-.1-.05-.08-.09,0-.05.08Zm.08-.16c0,.05,0,.06,0,0s0,0,0,0Zm.26-14.43c.05,0,.1,0,.13-.11s-.06,0-.08,0l-.05-.13q-.08.05-.12,0a.22.22,0,0,0-.12,0,.25.25,0,0,0,.14.11c.06,0,.09.07.09.16Zm0-.53a.09.09,0,0,0,.08,0,0,0,0,0,0,0-.07s0,.05-.07.05,0,0,0,.06Zm.05.26s.09,0,.18,0S69,28.38,69,28.4s0,.05,0,.05,0,0-.06.06Zm.05.08s0,0,0,0,0,0,0,0ZM69,27.29a.13.13,0,0,0,0,.09.11.11,0,0,1,0,.12.06.06,0,0,0,.07,0l0-.09c0-.1-.08-.13-.16-.08Zm.52,1.11s0,0,0,0,0,0,0,0a.06.06,0,0,0-.08,0s0,0,0,0Zm.13-.4c0-.05,0-.09,0-.11s0,.06,0,.07,0,0,0,0Zm2.62,15.69q.13.05.12,0a.25.25,0,0,0-.07-.15.33.33,0,0,1-.05.19Zm2.41-2.19c0-.05,0-.08-.05-.08s0,.08.05.08ZM75,40.16s0,0,.08-.05-.08,0-.08.05ZM75,42c.05,0,.08,0,.09,0s0,0-.09,0Zm.08-.21c.05,0,.08,0,.08-.05h-.05s0,0,0,0,0,0,0,0Zm.18-.76s.06,0,.07,0,0-.07,0-.07,0,.05,0,.05,0,0,0,.06Zm.21-2.27c0,.05,0,.1.11.13a.11.11,0,0,0,.11-.05.17.17,0,0,1,.08-.08.08.08,0,0,0-.11,0h0a.15.15,0,0,1-.16,0Zm.39.24a.17.17,0,0,0,0-.07.06.06,0,0,0,0-.07s0,.06,0,.08,0,0,0,.06Zm0-.45a.09.09,0,0,1,0-.12h0q.08,0,0-.09a.15.15,0,0,1-.05.11.06.06,0,0,0,0,.09l0,0Zm.05-.37a.08.08,0,0,1,.07-.09.08.08,0,0,0,.07-.09H76a.11.11,0,0,1-.05.09s0,.06,0,.09Z"/><path class="cls-2" d="M93.92,34.57a1.16,1.16,0,0,1-.72-.08.94.94,0,0,1-.34-.5,4.57,4.57,0,0,1-.24-1.35,12.59,12.59,0,0,1,0-1.42,1.83,1.83,0,0,0,0-.36.63.63,0,0,1,0-.3,2.1,2.1,0,0,0-.08-.32.56.56,0,0,1,0-.29.08.08,0,0,0,0-.05.09.09,0,0,1-.05-.09.17.17,0,0,0-.05-.12,3.88,3.88,0,0,0-.3-.38,1.22,1.22,0,0,0-.46-.2,2.14,2.14,0,0,0-.48-.09l-.48-.07-.81,0q-.53,0-1.13,0H87.52l-1.15,0a1.46,1.46,0,0,0-.7.18,1.52,1.52,0,0,0-.43.42.29.29,0,0,0-.08.21,2.11,2.11,0,0,0,0,.34.86.86,0,0,1-.05.32.38.38,0,0,1,0,.08.36.36,0,0,0,0,.08,2.15,2.15,0,0,0,0,.4.41.41,0,0,1-.07.34s0,.06,0,.08a.86.86,0,0,1,.05.32,2.06,2.06,0,0,0,0,.34.52.52,0,0,0,0,.09.54.54,0,0,1,0,.09q0,.4,0,.83a1.26,1.26,0,0,0,.14.7c0,.05,0,.08,0,.07s-.07,0-.07,0,.07,0,.09,0h.09c0,.07,0,.11.08.11a.35.35,0,0,0,.18.26l.21.08.31.07.31,0q.26,0,.72,0a3.76,3.76,0,0,0,.58,0,1.25,1.25,0,0,0,.74-.3,2,2,0,0,0,.26-.44,1.58,1.58,0,0,1,0-.18,1.43,1.43,0,0,0,0-.2,1.18,1.18,0,0,0,0-.18,1.32,1.32,0,0,1,0-.21q0-.29-.08-.72a5.94,5.94,0,0,1-.05-.59q.05-1,1-1a.7.7,0,0,1,.6.21.73.73,0,0,1,.25.41,1.55,1.55,0,0,1,0,.67,7.61,7.61,0,0,0-.09.82,4.4,4.4,0,0,1,0,.47.28.28,0,0,1,0,.11l0,.08a7.89,7.89,0,0,0-.11.88q0,.44-.08.88a3.33,3.33,0,0,0,0,.8,3.4,3.4,0,0,1,0,.8v.05a.07.07,0,0,0,0,.05.2.2,0,0,1,0,.18.46.46,0,0,0,0,.2v.11a.3.3,0,0,0,0,.13s0,.06,0,.07,0,0,0,.07,0,.37.08.57.06.4.08.59,0,.37,0,.53a2.05,2.05,0,0,1,0,.37.75.75,0,0,1-.31.38,1.87,1.87,0,0,1-.55.15.79.79,0,0,1-.94-.69,3.11,3.11,0,0,1,0-.82q.05-.53.11-.79a3,3,0,0,0,0-.8,1,1,0,0,0-.64-.72,4,4,0,0,0-.46-.13h-.24a3.06,3.06,0,0,1-.63-.07.89.89,0,0,0-.55,0,.18.18,0,0,1-.09,0H86l-.09,0-.09,0-.28.11a.44.44,0,0,1-.33,0s-.08,0-.13,0a.86.86,0,0,0-.12.2,1.14,1.14,0,0,0-.09.2c0,.07,0,.12.05.13A.08.08,0,0,1,85,37a.17.17,0,0,1,0,.09l-.08.09v.13a.92.92,0,0,1,0,.44,1,1,0,0,0,0,.46.28.28,0,0,1,0,.16.21.21,0,0,0,0,.13q.05.53.05,1.14t-.05,1.16l.05.09a.17.17,0,0,1,0,.09,2.45,2.45,0,0,0,0,.59c0,.13.06.31.09.54a1.12,1.12,0,0,0,.41.78,1.33,1.33,0,0,0,.75.2h1.17a10.68,10.68,0,0,1,1.22.09c.05,0,.08,0,.09,0a.06.06,0,0,1,.07-.05H89.9a9.92,9.92,0,0,0,1.17,0,4.63,4.63,0,0,0,1-.2,1.34,1.34,0,0,0,.68-.46,1.86,1.86,0,0,0,.29-.72q.05-.34.08-.79a3.6,3.6,0,0,1,0-.62,5.93,5.93,0,0,0,0-.65c0-.25,0-.54,0-.86a2.55,2.55,0,0,1,.05-.78.72.72,0,0,1,.41-.54,1.57,1.57,0,0,1,.48-.09.83.83,0,0,1,.72.26,1.59,1.59,0,0,1,.25.79Q95,39.68,95,41t-.08,2.7a2,2,0,0,1-.18.72.86.86,0,0,1-.54.44,3.11,3.11,0,0,1-1,0,9.08,9.08,0,0,0-1.06-.07h-1l-1.73,0-1.89,0H86a5.5,5.5,0,0,1-1.06-.11,2.29,2.29,0,0,0-1,0l-.14,0h-.14a5.87,5.87,0,0,0-1.63.12,5.13,5.13,0,0,1-1.6.09,1.5,1.5,0,0,1-.87-.29,1,1,0,0,1-.2-.5,1,1,0,0,1,.22-.76.74.74,0,0,1,.61-.25,4.2,4.2,0,0,1,.74.09,2.59,2.59,0,0,0,1,0,1,1,0,0,0,.47-.32,3.89,3.89,0,0,0,.29-.5,2,2,0,0,0,.12-.62q0-.46.05-1.07t0-1.31q0-.7,0-1.35t0-1.17V36.1A7.19,7.19,0,0,0,82.86,35q0-.61-.05-1.16v0s0-.05,0-.05,0,0,.11,0,0-.08-.05-.07a.06.06,0,0,1-.08,0c0-.05,0-.08,0-.08a0,0,0,0,0,.05,0h0s0,0,0,0-.06,0,0,0q0-.74,0-1.45t0-1.4a5.1,5.1,0,0,0-.11-.8,1.65,1.65,0,0,0-.37-.7,1.08,1.08,0,0,0-.41-.28,2.19,2.19,0,0,0-.48-.09l-.75.12a2,2,0,0,1-.7,0,.75.75,0,0,1-.43-.25,1,1,0,0,1-.22-.49,1.08,1.08,0,0,1,.11-.57.82.82,0,0,1,.45-.41,1.54,1.54,0,0,1,.8-.07,6.09,6.09,0,0,0,.8.07,15.39,15.39,0,0,0,2.11.18q1.06,0,2.11-.07t2,0l2,0q.52,0,1.17,0l1.25-.08q.62,0,1.1,0a2.36,2.36,0,0,1,.7.09,0,0,0,0,0,0,0h0s0,0,0,0,0,0,0,0a3.3,3.3,0,0,1,.29.34l0,0v0l.05.13a.11.11,0,0,1,0,.11s0,.05,0,.05a.58.58,0,0,1,.08.47.9.9,0,0,0,0,.5v.08a.39.39,0,0,0,0,.25.74.74,0,0,1,0,.28q0,.26,0,.54a2.49,2.49,0,0,0,0,.57v.18a4.7,4.7,0,0,0,0,.62q0,.33,0,.65a5.6,5.6,0,0,0,0,.58c0,.18,0,.31,0,.4a1.5,1.5,0,0,1,0,.29v.26a1.4,1.4,0,0,1-.16.7A.67.67,0,0,1,93.92,34.57ZM82.08,28.25c.05,0,.08,0,.08,0S82.07,28.22,82.08,28.25Zm.55,1a0,0,0,0,1,.05,0h0a.11.11,0,0,0,.08,0s0,0,.08,0,0-.07-.08-.07l-.13,0ZM83.21,42s0,0,0,0a0,0,0,0,1-.05,0s0,0,0,0a0,0,0,0,1,.05,0Zm0-13.32a.11.11,0,0,0,0-.08s0,.07,0,.07Zm.16,14.11a.12.12,0,0,0-.05-.09.09.09,0,0,0-.11,0,.09.09,0,0,1,.08.05.08.08,0,0,0,.08,0ZM83.29,29V29h.05a.11.11,0,0,0,0-.08,0,0,0,0,1,0,0h0Zm.08,2.11a.15.15,0,0,0-.05-.11q-.05.1.05.1Zm0-2.82v.09a.14.14,0,0,1-.05.09.08.08,0,1,0,.16,0l0,0s0-.06.12,0,0-.11-.05-.11,0,0-.07,0l-.09,0Zm0,3.11c0,.07,0,.08,0,0s0-.07,0,0Zm.11-2.58a.11.11,0,0,1,0-.07.05.05,0,0,0,0,0s0,0,0,0,0,0-.05,0a.18.18,0,0,1,0,.11s0,0,0,0Zm-.05,3.58c0,.05,0,.08.11.08a.21.21,0,0,1,0-.13h-.07Zm.05-3.4q.13,0,.11.08a.16.16,0,0,0,0,.16c-.05,0-.08,0-.09.08a.23.23,0,0,1-.07.11.39.39,0,0,0,.16.05.29.29,0,0,0,.05-.16.18.18,0,0,1,.05-.13c-.05,0-.08,0-.08-.05s0-.09,0-.11a.2.2,0,0,0,.07-.08.29.29,0,0,0-.12-.11c-.06,0-.08,0-.07,0s.06.06,0,.08a.18.18,0,0,0-.08.08Zm0,3s.05,0,.05-.05,0-.08-.05-.08a.18.18,0,0,1,0,.13Zm.05.87c.07,0,.1,0,.08-.05H83.5Zm.08-3.15a.09.09,0,0,1,0,.07.09.09,0,0,0,0,.07.14.14,0,0,1,.13,0s.05,0,.05-.07-.05,0-.05,0,0,0-.05,0-.1-.08,0-.13.05,0,.05,0,0,0,0,0a0,0,0,0,1,0,0h0s0,0-.05,0,0,0,0,0A.07.07,0,0,0,83.58,29.68Zm0,2.64a.14.14,0,0,0,.11-.07s0-.07,0-.09a.2.2,0,0,1-.07.08.09.09,0,0,0,0,.08Zm0-3.64a.12.12,0,0,0,.07-.07l0-.09c-.07,0-.11,0-.11.17Zm0,13.72h.11a.11.11,0,0,0,0-.08s0,0,0,0,0,0,0,0Zm.08-9.57s-.05,0-.05,0,.05,0,.05,0Zm-.05.42c0,.07.06.09.13.07a.14.14,0,0,1,.16,0c0-.09,0-.12-.08-.11a.44.44,0,0,1-.21,0Zm.26,5c0-.09.09-.13.16-.13a.28.28,0,0,0-.13-.32c-.05,0-.09,0-.11.11a.24.24,0,0,0,0,.16s0,0,.05,0a.06.06,0,0,1,.05.07.09.09,0,0,1-.08.11h0l-.11-.08c0,.07,0,.11,0,.12h.11l.09,0Zm0-5.78s0,0,0,0,0,0,0,0l-.08-.05a.11.11,0,0,0-.08,0,.12.12,0,0,0,.09.14h0Zm-.11,9.68s0,0,0,0a0,0,0,0,1,0-.05h-.05Zm0,.13s0,0,0,0,0,0,0,0Zm.05.37a.1.1,0,0,0,0-.09.06.06,0,0,0-.07-.07.22.22,0,0,1,0,.09.09.09,0,0,0,0,.07Zm0-7.57s0,0,0,0,0,0,0,0Zm0-2.3s0,0,0,0,0,0,0,0,0,0,0,0,0,0,0,0,0,0,0-.05l-.05,0-.05,0Zm.18-.21H84a.06.06,0,0,0-.07,0q.11.06.14,0Zm-.11,1.32a.09.09,0,0,1,0-.09s0,0,0,0a.21.21,0,0,0,0,.14ZM84,38.55,84,38.48s0,0-.07,0a.08.08,0,0,1,.08.05s0,0,.06,0ZM83.92,42s0,0,0,0a0,0,0,0,1,0-.05h-.05Zm0-10.68c.07,0,.11,0,.11,0s-.1,0-.1,0Zm.15.88a.11.11,0,0,1,0,.08s0,0,0,0,0-.05,0-.05a.18.18,0,0,0-.08-.08s0-.06,0-.13a.14.14,0,0,1,.16-.11.28.28,0,0,0,.21-.08.16.16,0,0,1-.14,0,.24.24,0,0,0-.14,0,.12.12,0,0,1,0-.12.13.13,0,0,0,0-.12.39.39,0,0,0-.09.32A.32.32,0,0,0,84.1,32.2ZM84,34.95c0,.07,0,.09,0,.07s0-.06,0-.07Zm.05.32s0-.05,0-.05a0,0,0,0,0,0,0H84l.06.08Zm0,.05c0,.05,0,.06,0,0s0-.05,0,0Zm0-6.73.09.12a.33.33,0,0,0,.14.12.24.24,0,0,1,0-.11.09.09,0,0,0,0-.11s0,.05-.08.05a.06.06,0,0,1,0-.08.06.06,0,0,0,0-.08l-.05,0s0,0,0,0Zm.11,5.28s0-.05-.11-.05,0,0,.11,0ZM84.1,30a.14.14,0,0,1,.09-.05.14.14,0,0,0,.09-.05s-.06,0-.07,0,0,0,0,0a0,0,0,0,1,0,.05h0s0,0,0,0Zm.18-1.56-.05-.05a.12.12,0,0,1-.07.07l-.07,0s.07,0,.09,0,.06,0,.09,0l.08-.05s.05,0,.11,0a.16.16,0,0,1,0-.16s-.06,0-.07,0,0,0-.07,0a.12.12,0,0,1-.07.12Zm-.18,4.75h.09a.12.12,0,0,1,.09,0c0-.07,0-.09-.08-.07l-.11.06Zm0,.21s.06,0,.08,0,0,0,.05,0h-.08s0,0,0,0Zm.05-1.9c-.05.07-.06.08,0,0s.05-.06,0,0Zm0-1.77a0,0,0,0,0,0,0h0s.05,0,.05,0-.07-.06-.07,0Zm0,1.69a0,0,0,0,0,0,0h0a0,0,0,0,0,0,0h0Zm.08,2.72a.15.15,0,0,0,.13-.08.18.18,0,0,1-.11,0,.07.07,0,0,0-.1,0h0c.06,0,.09,0,.09.1Zm0-.55s0-.05,0-.05l-.05.05s0,0,.07,0Zm0-4.51a0,0,0,0,1,.07,0s0,0,.07,0,0,0-.08-.05,0,0,0,0,0,0,0,0Zm.13.74c-.05-.05-.1-.05-.13,0h.07a.06.06,0,0,0,.07,0Zm-.13,1.56.09,0a.16.16,0,0,0,.09,0,0,0,0,0,1,0-.05h0s0,0,0-.05-.06.08-.12,0-.1,0-.11,0Zm.16.95a.15.15,0,0,1-.05-.11c-.07,0-.11,0-.11,0a.11.11,0,0,1,.09.05s.05,0,.07,0Zm0,.24q-.08-.08-.08,0s0,0,0,0,.06,0,0-.06Zm0-2.08a.06.06,0,0,0,0-.08s0,0-.07,0,0,0,0,0,0,0,0,0Zm.08-1.11s0-.05,0-.05-.07,0-.07,0Zm-.08.16s.06,0,.12,0,.06-.06,0-.09,0,0-.05,0-.05,0-.05,0Zm.11-.4a0,0,0,0,1,0,0h0s0-.05-.11-.05,0,.05,0,.05l.06,0Zm-.05.53v0s.05,0,.05,0,0-.05,0-.05l0,0Zm0,4.19s.05,0,.05,0,0,0,0,0,0-.05,0-.05,0,0,0-.05-.05,0-.05,0,0,0-.05,0,0,.08,0,.09a.06.06,0,0,0-.05.06Zm.24-5.36a.15.15,0,0,1,0-.11s-.06,0-.07,0H84.6s0,.09.11.12Zm.18-.16s.05,0,.05,0,0,0,.05,0a.18.18,0,0,1,0-.08.22.22,0,0,0,0-.08.1.1,0,0,0-.09.07Zm.08.21a.53.53,0,0,1,.29,0,.41.41,0,0,0,.29-.05c0-.05,0-.07-.11-.07a.41.41,0,0,1-.18,0s0,0,0,.05,0,0,0,.05-.11,0-.12,0a.12.12,0,0,0-.07-.08c0,.05,0,.08,0,.09s-.06,0-.06.06Zm.87,6.62h.08s0-.05-.08-.05Zm.87-6.71s-.05,0-.05,0S86.67,28.46,86.7,28.43Zm.21,6.44s0,0,0,0,0,0,0,0,0,0-.05,0,0,0,0,0ZM87,35a.11.11,0,0,0,0-.08C87,35,87,35,87,35Zm.34.29s0,0,0,0,0,0,0,0Zm.13-7.41s0,0,0,0,.06,0,0,0,0,0,0,0,0,0,0,0,0,0,0,0,0,0,0,0Zm.6,15.69s0,.06,0,.07,0,0,0,.07a.23.23,0,0,1,.12-.07.23.23,0,0,0,.12-.07s-.07,0-.11,0-.08,0-.13,0Zm.31-8.91s0,0,.05,0a.42.42,0,0,0-.08-.11.11.11,0,0,0,0,.08,0,0,0,0,0,0,.05h0Zm0,.26s.08,0,.14,0a.24.24,0,0,0,.12-.13.15.15,0,0,1-.11,0,.11.11,0,0,0-.08,0q.09.1-.08.18Zm.08-.42v0s0,0,0,0,0,.05,0,.05Zm.27,4.16H89c0-.09,0-.12-.11-.09A.43.43,0,0,0,88.75,38.68Zm.34-3.24s0-.06,0-.08a.09.09,0,0,1,0-.08A2.64,2.64,0,0,1,89.3,35c-.09,0-.14,0-.16.05s-.06.09-.13.05,0,.05-.08.11a.18.18,0,0,1,.08.08A.4.4,0,0,0,89.09,35.44Zm0,1.66a.47.47,0,0,0,.08.29,1,1,0,0,0-.24.18.13.13,0,0,0,.11.09c.05,0,.08,0,.08.12a.12.12,0,0,0,.11,0l.08-.09a.08.08,0,0,0-.08-.05s0,0,0-.05a.18.18,0,0,1,.08-.08.18.18,0,0,0,.08-.08.66.66,0,0,0-.16-.29ZM89,33.28a1.45,1.45,0,0,0,.34.11.16.16,0,0,0-.09-.11.16.16,0,0,1-.09-.11C89,33.17,88.94,33.21,89,33.28Zm0,1.11c.07,0,.11,0,.13-.05s-.13,0-.13,0ZM89,37v.08c.09,0,.13,0,.13-.11S89,37,89,37s0,0-.06,0Zm0-4.54a.3.3,0,0,0,.05.29.21.21,0,0,1,.18-.12.29.29,0,0,1,.2,0,.12.12,0,0,0,0-.11.12.12,0,0,1,0-.11.36.36,0,0,1,.07-.09.13.13,0,0,0,0-.09.27.27,0,0,0-.2.18q-.07.13-.26,0Zm.11,6s.05,0,.05,0,0,0,.05,0a.12.12,0,0,0,.07-.07s0,0,.09,0,0-.16-.13-.16,0-.1-.07-.09a.27.27,0,0,1-.14,0,.36.36,0,0,0,.09.15s0,.09,0,.16Zm0-4.17a0,0,0,0,1,0,0,0,0,0,0,0,0,0c0-.05,0-.08,0-.08s0,0,0,0S89.11,34.34,89.11,34.36Zm.05.16h.05q0-.08-.05-.05Zm0-3.27h.11s.05,0,.05,0a.11.11,0,0,0-.15,0Zm.21,3q-.11-.05-.05-.12l.08-.12q-.1,0-.14.15c0,.1,0,.12.13.09ZM89.32,33s0,0,0,0,0,0,0,0H89.3s0,0,0,0Zm0-1.53s0,0,.08-.05,0,0-.07,0ZM89.42,35l.11,0s.05,0,.05-.09h-.16a.1.1,0,0,0,0,.07s0,0,0,.05Zm.37,3.38.11-.08.11-.08c0-.05-.07-.07-.11,0a.18.18,0,0,1-.11,0,.85.85,0,0,1,0-.21.65.65,0,0,0-.05-.24l-.13,0-.05.08s0,.05,0,.11.08,0,.09,0l0,.09a.16.16,0,0,1,0,.09.16.16,0,0,0,0,.09.22.22,0,0,0,.18,0,.25.25,0,0,1,0,.15Zm-.13.16h-.11c0,.07,0,.09,0,.07s.08-.06.08-.08Zm-.11-3.93c0,.07,0,.08,0,0s0-.07,0,0Zm0,2.66s.06,0,.07,0a.14.14,0,0,1,.07-.05c0-.09-.09-.13-.16-.13a.38.38,0,0,0,0,.13.18.18,0,0,1,0,.07Zm.08-5.78s0,0,0,0a0,0,0,0,1,0,0h0Zm0,.87s0,0,.08.05a.07.07,0,0,1,0-.1h0s0-.07,0-.11a.19.19,0,0,1,0,.15Zm.08,3.93a.21.21,0,0,0,0,.09.09.09,0,0,1,0,.07.15.15,0,0,0,.14,0s.07,0,.12,0,0-.16-.11-.16a.15.15,0,0,1-.1,0Zm0-4.19s0,0,0,0,0,0,0,0Zm0,2.77a.23.23,0,0,0,.24-.18.38.38,0,0,0-.23.17Zm.05-1c0,.05,0,.08.05.08s0-.06,0-.07a.14.14,0,0,0,.05-.07s-.06,0-.07,0l0,0Zm.11-2.16s0,0,.08,0,.05,0,.05,0-.16-.05-.13-.16-.11,0-.11.05l.08,0s.05,0,0,.08Zm-.11.29c0,.05,0,.06,0,0s0-.06,0,0Zm.13.42s-.05,0-.05,0a.08.08,0,0,0,.06,0ZM90,39.52l.11-.05a.13.13,0,0,1,.13,0,.14.14,0,0,0-.05-.12L90,39.28a.16.16,0,0,0-.05.12.27.27,0,0,1,0,.1Zm.05-.87a.24.24,0,0,0,.21.05c0-.09,0-.13-.08-.12a.24.24,0,0,0-.12.05Zm0,1.14h.08s.05,0,.05,0-.12,0-.12,0Zm.13-6.7s0-.05,0-.05A.09.09,0,0,1,90,33s0,.06.12.06Zm.13-4.38a.06.06,0,0,0,.08,0s0,0,0,0Zm.34-.4v-.08l-.05.05s.06,0,.06,0Zm0,.26c.07,0,.11-.06.11-.08l-.08,0s0,0,0,0Zm.52.13a.07.07,0,0,1,.08.06.07.07,0,0,1,0,0s0,0,0,0,0,0,.05,0,0-.05,0-.05,0,0,0-.05a.09.09,0,0,1,.07,0,.09.09,0,0,0,.07,0v-.08h-.13a.13.13,0,0,1,0,.09ZM91.79,44a.07.07,0,0,1,0-.05.08.08,0,0,0,0-.05.12.12,0,0,0,0,.09S91.76,44,91.79,44Zm.52-15.56a.21.21,0,0,0,0-.13.23.23,0,0,1,0,.11S92.26,28.41,92.32,28.4Zm.05.42h.16s.06,0,.08.11a.12.12,0,0,0,0-.12.6.6,0,0,1,0-.12l-.08,0s0,0-.08,0a.09.09,0,0,1,0,.08l-.06.05Zm.11-.45h-.05a0,0,0,0,0,0,0h0s0,0,0,0S92.49,28.39,92.47,28.37Zm.13.79c0-.05,0-.08,0-.08h-.12q0,.13.16.08Zm-.05-.87a.09.09,0,0,0,0-.08s0,0,0,0a0,0,0,0,1,0,0h0s0,0,.05,0Zm.11.26a.05.05,0,0,1,0,0,.1.1,0,0,0,0-.07l-.07,0s0,0,0,0,0,0,0,.07,0,0,0,0ZM93,33c.05,0,.1,0,.13.05a.62.62,0,0,0-.11.16c0,.07-.08.07-.13,0q-.13.13.05.21a.26.26,0,0,1,.32-.19h0a.59.59,0,0,0,.11-.24c-.07,0-.11,0-.12.05a.12.12,0,0,1-.09.08s0,0,0,0,0,0,0,0a.09.09,0,0,1,0-.11c-.05,0-.08,0-.09,0s0,0-.09,0Zm-.16,10.63c.05,0,.07.08,0,.12s0,.07.07.07,0-.08,0-.09,0,0,0-.07a.62.62,0,0,1,.21-.13l.13-.05a.29.29,0,0,0-.24,0l-.18.12Zm.11-10.5s0-.05,0-.05,0,.05,0,.05Zm.24-4.09c.05,0,.08,0,.08.05l-.08.08c-.05,0-.09,0-.11,0a.05.05,0,0,0-.07,0h0a.06.06,0,0,0,.05.07s0,0,0,.07a.2.2,0,0,1-.05.08.22.22,0,0,1,0,.09s0,0,.05.07,0-.19.12-.2.15.06.12.2a.12.12,0,0,1-.09,0,.06.06,0,0,0-.07,0,0,0,0,0,1,0,0h0s0,0,.05,0a.2.2,0,0,1,.07-.08.2.2,0,0,0,.07-.08q-.05-.18-.11-.21a.3.3,0,0,0,0-.32s0,.05,0,.05,0,0-.05.05Zm-.13,0c.07,0,.11,0,.11-.05A.12.12,0,0,1,93,29s0,0,0,0ZM93.11,34s.06,0,.08,0,0,0,.08,0a.12.12,0,0,0,0-.13.12.12,0,0,1,0-.13.14.14,0,0,1-.12,0,.21.21,0,0,0-.12,0,.93.93,0,0,0,0,.26Zm.13-3.64s-.05,0-.05,0,.05,0,.05,0Zm.05-.16c0-.07,0-.1-.05-.08s0,0,.05.08Zm0-.4s0,0,0,0,0,0,0,0Zm.13.61,0-.05h-.11s0,.06.08.06Zm-.05,3.38s0,0,0,0,0,0,.05,0v-.08c-.05,0-.08,0-.08.06Zm.05-.9a0,0,0,0,1,0,0h.05c0-.05,0-.08,0-.08Zm0-2.64a.16.16,0,0,1,.16,0s0-.05,0-.05l.05,0s0,0,0-.05a.25.25,0,0,0-.21.11Zm.24-1.8c-.07,0-.1,0-.08,0s0,0,.08,0Zm-.08.58s0,0,0,0,0,0,0,0Zm.08,4.09a.11.11,0,0,0,0-.08.11.11,0,0,0,0,.09Zm.11-4.43c.09,0,.11-.05.05-.05s-.07,0-.05.06Zm.08,4.77,0,0a.05.05,0,0,1,0,0,.05.05,0,0,0,0,0h-.05Zm.11-.63s0,0,0,0,0,0-.05,0a0,0,0,0,0,0,.07s0,0,0,0Zm0-4.46a0,0,0,0,0,0-.05h0a0,0,0,0,0,0,.06h0Zm.11,4.43s0,0,0,0,0,0,0,0Zm.24,9.68s0,.06,0,.07l.08.07a.1.1,0,0,0,0-.11s0-.07,0-.11-.06,0-.07,0a.14.14,0,0,1-.07.06Z"/></g></g></g></g></svg>